SplineFontDB: 1.0
FontName: Garuda-BoldOblique
FullName: Garuda Bold Oblique
FamilyName: Garuda
Weight: Bold
Copyright: Generated by NECTEC for Public Domain\n\nModified by TLWG
Version: 1.1 : May 12, 2003
ItalicAngle: -12
UnderlinePosition: -205
UnderlineWidth: 102
Ascent: 1786
Descent: 262
NeedsXUIDChange: 1
FSType: 0
PfmFamily: 33
TTFWeight: 700
TTFWidth: 5
Panose: 2 11 7 4 2 2 2 2 2 4
LineGap: 0
VLineGap: 0
LangName: 1033 "" "" "Bold Oblique" "Garuda Bold Oblique" 
Encoding: compacted
OldEncoding: iso8859_1
DisplaySize: -72
AntiAlias: 1
WinInfo: 216 8 2
BeginPrivate: 3
BlueValues 31 [-20 4 693 709 796 800 934 956]
OtherBlues 11 [-279 -240]
ForceBold 4 true
EndPrivate
BeginChars: 344 343
StartChar: .notdef
Encoding: 0 -1
OldEncoding: 0
Width: 1024
Flags: W
HStem: 0 128<256 768> 1658 128<256 768>
VStem: 128 128<128 1658> 768 128<128 1658>
Fore
128 0 m 1
 128 1786 l 1
 896 1786 l 1
 896 0 l 1
 128 0 l 1
256 128 m 1
 768 128 l 1
 768 1658 l 1
 256 1658 l 1
 256 128 l 1
EndSplineSet
MinimumDistance: x2,-1 
EndChar
StartChar: exclam
Encoding: 2 33
OldEncoding: 33
Width: 412
Flags: W
HStem: 2 195<215 257>
DStem: 329 932 493 932 191 283 351 283
Fore
351 283 m 1
 191 283 l 1
 329 932 l 1
 493 932 l 1
 351 283 l 1
324 100 m 0
 310 34.6667 273.667 2 215 2 c 0
 166.333 2 142 24 142 68 c 0
 142.667 77.3333 144 88 146 100 c 0
 160 164.667 197 197 257 197 c 0
 303.667 197 327.333 176.333 328 135 c 0
 328 124.333 326.667 112.667 324 100 c 0
EndSplineSet
EndChar
StartChar: quotedbl
Encoding: 3 34
OldEncoding: 34
Width: 612
Flags: W
DStem: 280 932 415 932 246 772 381 772 593 932 728 932 559 772 694 772
Fore
610 608 m 1
 575 608 l 1
 559 772 l 1
 593 932 l 1
 728 932 l 1
 694 772 l 1
 610 608 l 1
295 608 m 1
 260 608 l 1
 246 772 l 1
 280 932 l 1
 415 932 l 1
 381 772 l 1
 295 608 l 1
EndSplineSet
EndChar
StartChar: numbersign
Encoding: 4 35
OldEncoding: 35
Width: 799
Flags: W
HStem: 0 21G<115 246 387 516> 221 133<115 207 392 481 665 768> 551 137<241 338 523 617 793 875> 916 20G<488 621 768 895>
DStem: 207 221 338 221 115 0 246 0 338 551 469 551 261 354 392 354 481 221 610 221 387 0 516 0 488 936 621 936 390 688 523 688 617 551 744 551 534 354 665 354 768 936 895 936 664 688 793 688
Fore
665 354 m 1
 796 354 l 1
 768 221 l 1
 610 221 l 1
 516 0 l 1
 387 0 l 1
 481 221 l 1
 338 221 l 1
 246 0 l 1
 115 0 l 1
 207 221 l 1
 88 221 l 1
 116 354 l 1
 261 354 l 1
 338 551 l 1
 213 551 l 1
 242 688 l 1
 390 688 l 1
 488 936 l 1
 621 936 l 1
 523 688 l 1
 664 688 l 1
 768 936 l 1
 895 936 l 1
 793 688 l 1
 904 688 l 1
 875 551 l 1
 744 551 l 1
 665 354 l 1
392 354 m 1
 534 354 l 1
 617 551 l 1
 469 551 l 1
 392 354 l 1
EndSplineSet
EndChar
StartChar: dollar
Encoding: 5 36
OldEncoding: 36
Width: 768
Flags: W
HStem: 914 20G<551 678>
VStem: 166 155<158 220> 609 156<274 312> 676 158<641 682>
DStem: 433 381 554 352 382 141 509 139 506 715 630 711 471 549 586 504
Fore
533 850 m 1
 551 934 l 1
 678 934 l 1
 660 850 l 1
 718.667 842.667 764.333 819.333 797 780 c 0
 821.667 750 834 717.333 834 682 c 0
 834 666.667 831.667 651 827 635 c 2
 819 606 l 2
 816.333 597.333 810.667 590 802 584 c 1
 787 580 l 1
 692 580 l 1
 676.667 582.667 670 591.333 672 606 c 0
 674.667 618.667 676 630.333 676 641 c 0
 676 677 660.667 700.333 630 711 c 1
 586 504 l 1
 613.333 497.333 639 485.667 663 469 c 1
 731 437.667 765 385.333 765 312 c 0
 765 292 762.667 270.667 758 248 c 0
 736 145.333 674.333 71.6667 573 27 c 0
 543.667 14.3333 512.333 6 479 2 c 1
 458 -100 l 1
 331 -100 l 1
 352 2 l 1
 228 2 166 54 166 158 c 0
 166 180.667 169 205.667 175 233 c 1
 177.667 265 190 281 212 281 c 2
 304 281 l 1
 315 279 l 1
 321.667 274.333 324.667 266.667 324 256 c 1
 324 246 l 1
 322 236.667 321 228 321 220 c 0
 321 183.333 341.333 157 382 141 c 1
 433 381 l 1
 407 385 379.667 394 351 408 c 0
 303.667 430.667 272.667 457.167 258 487.5 c 0
 243.333 517.833 241.667 558.667 253 610 c 0
 267 677.333 297 730 343 768 c 0
 409.667 822.667 473 850 533 850 c 1
506 715 m 1
 477.333 710.333 453 698.333 433 679 c 0
 411 658.333 400 634 400 606 c 0
 400 588 410.333 571 431 555 c 1
 471 549 l 1
 506 715 l 1
554 352 m 1
 509 139 l 1
 560.333 149 593 186.667 607 252 c 0
 608.333 260 609 267.333 609 274 c 0
 609 308 590.667 334 554 352 c 1
EndSplineSet
EndChar
StartChar: percent
Encoding: 6 37
OldEncoding: 37
Width: 932
Flags: W
HStem: -10 82<724 744> -2 21G<127 287> 430 82<328 349> 914 20G<877 1033>
DStem: 877 934 1033 934 127 -2 287 -2
Fore
200 682 m 0
 236 850 315 934 437 934 c 0
 524.333 934 571.333 882.667 578 780 c 0
 580 751.333 577 718.667 569 682 c 0
 554.333 613.333 528.333 556.333 491 511 c 0
 447 457 393 430 329 430 c 0
 263.667 430 221 458.333 201 515 c 0
 186.333 559.667 186 615.333 200 682 c 0
471 799 m 1
 472.333 817.667 468 832 458 842 c 1
 453.333 852 440.667 857.333 420 858 c 0
 380.667 858.667 350.333 822 329 748 c 0
 323.667 729.333 318.333 707.333 313 682 c 0
 305 643.333 301 611.333 301 586 c 0
 301 536.667 316.333 512 347 512 c 0
 394.333 512 429.667 567.333 453 678 c 1
 463 723 l 1
 467 752 l 1
 471 799 l 1
595 244 m 0
 609 311.333 634.667 367.667 672 413 c 0
 716.667 467 770 494 832 494 c 0
 895.333 494 937.667 465.667 959 409 c 0
 976.333 363 978.333 308 965 244 c 0
 949.667 174 924 116.333 888 71 c 0
 844 17 789.667 -10 725 -10 c 0
 658.333 -10 615.333 18.6667 596 76 c 0
 580.667 120 580.333 176 595 244 c 0
815 416 m 0
 768.333 416 733 358.667 709 244 c 0
 697 188.667 691 153 691 137 c 0
 691 93.6667 708 72 742 72 c 0
 772 72 798 93 820 135 c 1
 849 236 l 2
 859 270 864.667 306 866 344 c 0
 868 392 851 416 815 416 c 0
877 934 m 1
 1033 934 l 1
 287 -2 l 1
 127 -2 l 1
 877 934 l 1
EndSplineSet
EndChar
StartChar: ampersand
Encoding: 7 38
OldEncoding: 38
Width: 958
Flags: W
HStem: -9.99999 127<360 414> 848 96<615 641>
VStem: 96 179<220 252> 726 118<752 779>
DStem: 453 436 602 498 617 199 735 313
Fore
848 2 m 1
 770 2 712.667 37.6667 676 109 c 1
 561.333 29.6667 456 -10 360 -10 c 0
 184 -10 96 67 96 221 c 0
 96 314.333 130.333 386 199 436 c 0
 232.333 460.667 297.667 490.667 395 526 c 1
 357 600 l 1
 337 666 l 2
 331.667 682.667 332.333 706.333 339 737 c 0
 353 804.333 390 856.667 450 894 c 0
 503.333 927.333 566.333 944 639 944 c 0
 775.667 944 844 889 844 779 c 0
 844 761 841.667 741.667 837 721 c 0
 817 625.667 738.667 551.333 602 498 c 1
 735 313 l 1
 761.667 340.333 790.667 376 822 420 c 1
 877 520 l 1
 1013 500 l 1
 969.667 405.333 898.667 307.667 800 207 c 1
 832 155 869 130.333 911 133 c 2
 942 135 l 1
 915 10 l 1
 848 2 l 1
622 848 m 0
 586 848 554.833 835.5 528.5 810.5 c 0
 502.167 785.5 489 755.333 489 720 c 0
 489 703.333 492.667 686.667 500 670 c 1
 540 610 l 1
 562 573 l 1
 655.333 607.667 708.667 657 722 721 c 0
 724.667 731.667 726 742 726 752 c 0
 726 816 691.333 848 622 848 c 0
453 436 m 1
 354.333 420 296.333 372.333 279 293 c 0
 276.333 278.333 275 264.667 275 252 c 0
 275 211.333 288 178.667 314 154 c 0
 340 129.333 373.333 117 414 117 c 0
 471.333 117 539 144.333 617 199 c 1
 453 436 l 1
EndSplineSet
MinimumDistance: x11,-1 
EndChar
StartChar: quotesingle
Encoding: 8 39
OldEncoding: 39
Width: 399
Flags: W
DStem: 341 977 474 977 307 817 440 817
Fore
356 653 m 1
 321 653 l 1
 307 817 l 1
 341 977 l 1
 474 977 l 1
 440 817 l 1
 356 653 l 1
EndSplineSet
EndChar
StartChar: parenleft
Encoding: 9 40
OldEncoding: 40
Width: 506
Flags: W
VStem: 131 125<81 149>
Fore
287 369 m 0
 266.333 270.333 256 174.667 256 82 c 0
 256 -23.3333 269.667 -125 297 -223 c 1
 207 -223 l 1
 156.333 -104.333 131 19.6667 131 149 c 0
 131 222.333 139.333 297.667 156 375 c 0
 204.667 605.667 308 806.333 466 977 c 1
 556 977 l 1
 424 793.667 334.333 591 287 369 c 0
EndSplineSet
MinimumDistance: x1,-1 
EndChar
StartChar: parenright
Encoding: 10 41
OldEncoding: 41
Width: 506
Flags: W
VStem: 351 127<606 669>
Fore
148 -223 m 1
 57 -223 l 1
 186.333 -40.3333 273.333 157 318 369 c 0
 340.667 473 351.667 573 351 669 c 0
 351 776.333 336.667 879 308 977 c 1
 398 977 l 1
 451.333 863 478 739.667 478 607 c 0
 478 532.333 469.667 455 453 375 c 0
 407.667 161.667 306 -37.6667 148 -223 c 1
EndSplineSet
MinimumDistance: x6,-1 
EndChar
StartChar: asterisk
Encoding: 11 42
OldEncoding: 42
Width: 799
Flags: W
Fore
583 700 m 1
 673 516 l 1
 620 479 l 1
 542 674 l 1
 383 479 l 1
 346 516 l 1
 518 700 l 1
 324 764 l 1
 355 823 l 1
 537 745 l 1
 579 977 l 1
 636 977 l 1
 578 745 l 1
 793 825 l 1
 799 764 l 1
 583 700 l 1
EndSplineSet
EndChar
StartChar: plus
Encoding: 12 43
OldEncoding: 43
Width: 756
Flags: W
HStem: 352 121<188 404 541 758>
DStem: 405 352 515 352 348 86 458 86 487 739 597 739 431 473 541 473
Fore
515 352 m 1
 458 86 l 1
 348 86 l 1
 405 352 l 1
 163 352 l 1
 189 473 l 1
 431 473 l 1
 487 739 l 1
 597 739 l 1
 541 473 l 1
 783 473 l 1
 757 352 l 1
 515 352 l 1
EndSplineSet
MinimumDistance: x8,-1 
EndChar
StartChar: comma
Encoding: 13 44
OldEncoding: 44
Width: 338
Flags: W
Fore
170 -27 m 1
 176 0 l 1
 144.667 0 120 9.66667 102 29 c 0
 84 48.3333 78.3333 73.3333 85 104 c 0
 91.6667 134.667 106.833 160.5 130.5 181.5 c 0
 154.167 202.5 181 213 211 213 c 0
 267 213 294.667 182.667 294 122 c 0
 294 104 291.667 83.6667 287 61 c 1
 282 39 l 1
 234.667 -108.333 148.667 -193 24 -215 c 1
 39 -147 l 1
 65.6667 -143 85 -137.667 97 -131 c 1
 133.667 -119 158 -84.3333 170 -27 c 1
EndSplineSet
EndChar
StartChar: hyphen
Encoding: 14 45
OldEncoding: 45
Width: 608
Flags: W
HStem: 322 108<143 620>
Fore
121 322 m 1
 144 430 l 1
 642 430 l 1
 619 322 l 1
 121 322 l 1
EndSplineSet
EndChar
StartChar: period
Encoding: 15 46
OldEncoding: 46
Width: 291
Flags: W
Fore
269 100 m 0
 255 34.6667 218 2 158 2 c 0
 109.333 2 85 23.6667 85 67 c 0
 85 77 86.3333 88 89 100 c 0
 103 164.667 140 197 200 197 c 0
 248 197 272 172.333 272 123 c 0
 272 115.667 271 108 269 100 c 0
EndSplineSet
EndChar
StartChar: slash
Encoding: 16 47
OldEncoding: 47
Width: 799
Flags: W
HStem: -2 21G<43 215> 914 20G<793 961>
DStem: 793 934 961 934 43 -2 215 -2
Fore
793 934 m 1
 961 934 l 1
 215 -2 l 1
 43 -2 l 1
 793 934 l 1
EndSplineSet
EndChar
StartChar: zero
Encoding: 17 48
OldEncoding: 48
Width: 932
Flags: W
HStem: 0 102<493 527> 827 109<669 695>
VStem: 836 167<600 657>
Fore
985 471 m 0
 955.667 331.667 909 224.667 845 150 c 0
 759 50 642 0 494 0 c 0
 362 0 272.667 47 226 141 c 0
 202 188.333 190 245.333 190 312 c 0
 190 359.333 196.333 411.667 209 469 c 0
 237 602.333 290 710.667 368 794 c 0
 456 888.667 564.333 936 693 936 c 0
 899.667 936 1003 833 1003 627 c 0
 1003 579.667 997 527.667 985 471 c 0
676 827 m 0
 564 827 477 752 415 602 c 0
 397 559.333 383.333 515 374 469 c 0
 354 374.333 351.333 295 366 231 c 0
 386 145 437.333 102 520 102 c 0
 666 102 764.667 223.667 816 467 c 0
 829.333 529.667 836 584.333 836 631 c 0
 836 761.667 782.667 827 676 827 c 0
EndSplineSet
EndChar
StartChar: one
Encoding: 18 49
OldEncoding: 49
Width: 932
Flags: W
HStem: -6 21G<501 673> 918 20G<664 873>
DStem: 679 834 873 938 501 -6 673 -6
Fore
501 -6 m 1
 679 834 l 1
 594 762 l 1
 545 723 l 1
 491 684 l 1
 430 643 l 1
 370 721 l 1
 406 743 l 2
 438 763 491 800.667 565 856 c 1
 573 863.333 589.667 877.667 615 899 c 0
 644.333 923.667 660.667 936.667 664 938 c 1
 873 938 l 1
 673 -6 l 1
 501 -6 l 1
EndSplineSet
MinimumDistance: x11,-1 
EndChar
StartChar: two
Encoding: 19 50
OldEncoding: 50
Width: 932
Flags: W
HStem: -4 135<384 890> 836 118<687 729>
VStem: 886 160<699 723>
Fore
890 -4 m 1
 155 -4 l 1
 170.333 66.6667 186.333 120 203 156 c 0
 227 206 263 252.333 311 295 c 0
 367.667 345 421.333 382.667 472 408 c 2
 653 498 l 2
 808.333 575.333 886 647 886 713 c 0
 886 751.667 861.667 783 813 807 c 0
 773 826.333 731.333 836 688 836 c 0
 610.667 836 547 810 497 758 c 0
 467.667 727.333 453 693 453 655 c 0
 453 637 456 616.667 462 594 c 1
 294 535 l 1
 284 557.667 278 582 276 608 c 1
 289 696 l 1
 293 724.667 316 761.667 358 807 c 0
 448 905 571.667 954 729 954 c 0
 857.667 954 947.333 920 998 852 c 0
 1030 809.333 1046 765.667 1046 721 c 0
 1046 621.667 987 539 869 473 c 2
 682 369 l 2
 616 332.333 570.667 306 546 290 c 0
 500.667 262 458.667 229.667 420 193 c 0
 400.667 175 388.667 154.333 384 131 c 1
 921 133 l 1
 890 -4 l 1
EndSplineSet
EndChar
StartChar: three
Encoding: 20 51
OldEncoding: 51
Width: 932
Flags: W
HStem: -10 112<519 556> 825 119<700 746>
VStem: 793 174<293 327> 868 161<717 741>
Fore
474 670 m 1
 312 676 l 1
 325.333 720 338 752 350 772 c 0
 366 798 391 824.667 425 852 c 0
 502.333 913.333 609.333 944 746 944 c 0
 820 944 883 929 935 899 c 0
 997.667 862.333 1029 809.667 1029 741 c 0
 1029 724.333 1027 706.667 1023 688 c 0
 1002.33 590 930.333 528.667 807 504 c 1
 805 492 l 1
 883 474.667 932.667 438.333 954 383 c 0
 962.667 358.333 967 333.333 967 308 c 0
 967 292 965.333 276 962 260 c 0
 939.333 152 865.667 75 741 29 c 0
 671 3 597.333 -10 520 -10 c 0
 360.667 -10 258 31 212 113 c 0
 186.667 159 181 215.667 195 283 c 1
 363 283 l 1
 359 215 l 1
 363 174.333 389.333 143.667 438 123 c 0
 471.333 109 506.667 102 544 102 c 0
 602.667 102 653.667 115.333 697 142 c 0
 746.333 171.333 776.667 213.333 788 268 c 0
 791.333 283.333 793 297.667 793 311 c 0
 793 362.333 767.667 397.333 717 416 c 0
 681 429.333 616.333 436 523 436 c 1
 547 551 l 1
 622 545 l 1
 674 551 l 2
 765.333 561.667 824.667 593 852 645 c 1
 864 682 l 1
 866.667 694.667 868 706.667 868 718 c 0
 868 789.333 812.333 825 701 825 c 0
 600.333 825 527.333 782.667 482 698 c 1
 474 678 l 1
 474 670 l 1
EndSplineSet
EndChar
StartChar: four
Encoding: 21 52
OldEncoding: 52
Width: 932
Flags: W
HStem: -6 21G<611 783> 238 110<326 663 856 987> 922 20G<759 982>
DStem: 663 238 835 238 611 -6 783 -6 784 817 982 942 684 348 856 348
Fore
835 238 m 1
 783 -6 l 1
 611 -6 l 1
 663 238 l 1
 143 238 l 1
 169 362 l 1
 759 942 l 1
 982 942 l 1
 856 348 l 1
 1010 348 l 1
 987 238 l 1
 835 238 l 1
784 817 m 1
 326 348 l 1
 684 348 l 1
 784 817 l 1
EndSplineSet
EndChar
StartChar: five
Encoding: 22 53
OldEncoding: 53
Width: 932
Flags: W
HStem: -20 118<529 563> 526 136<651 755> 803 129<549 1041>
VStem: 830 168<374 413>
DStem: 434 932 535 772 251 420 454 573
Fore
535 -20 m 0
 329.667 -20 221.667 47.3333 211 182 c 0
 210.333 190.667 210 212 210 246 c 1
 382 246 l 1
 376 147.333 434.667 98 558 98 c 0
 692.667 98 778 163 814 293 c 1
 823 324 l 2
 827.667 341.333 830 358 830 374 c 0
 830 410.667 817.333 443 792 471 c 0
 758.667 507.667 711.667 526 651 526 c 0
 562.333 526 481.333 490.667 408 420 c 1
 251 420 l 1
 434 932 l 1
 1050 932 l 1
 1041 803 l 1
 550 803 l 1
 535 772 l 1
 454 573 l 1
 539 618 l 1
 582 639 l 2
 612.667 654.333 670.333 662 755 662 c 0
 852.333 662 921.333 627.333 962 558 c 0
 986 516.667 998 468.333 998 413 c 0
 998 381.667 994.333 348.333 987 313 c 0
 939.667 91 789 -20 535 -20 c 0
EndSplineSet
EndChar
StartChar: six
Encoding: 23 54
OldEncoding: 54
Width: 932
Flags: W
HStem: -20 114<521 560> 508 104<635 679> 840 108<717 753>
VStem: 223 159<224 272> 812 164<349 380>
Fore
522 -20 m 0
 366 -20 271.333 38 238 154 c 0
 228 186.667 223 226 223 272 c 0
 223 336.667 232.667 414 252 504 c 0
 280 634 336.333 739 421 819 c 0
 511.667 905 621.667 948 751 948 c 0
 931 948 1028.33 877 1043 735 c 1
 891 735 l 1
 873.667 805 821.333 840 734 840 c 0
 666.667 840 606.667 815.333 554 766 c 0
 510.667 725.333 476.333 668.667 451 596 c 2
 438 559 l 1
 427 510 l 1
 451 524 l 1
 464 535 l 2
 521.333 586.333 593 612 679 612 c 0
 764.333 612 833 595 885 561 c 0
 945.667 520.333 976 460 976 380 c 0
 976 354.667 973 327.667 967 299 c 0
 944.333 193.667 890.667 113 806 57 c 0
 728.667 5.66667 634 -20 522 -20 c 0
636 508 m 0
 573.333 508 519.333 486.333 474 443 c 0
 430.667 402.333 402.333 350.333 389 287 c 0
 384.333 264.333 382 243.333 382 224 c 0
 383.333 137.333 440 94 552 94 c 0
 616.667 94 671.833 111.833 717.5 147.5 c 0
 763.167 183.167 792.667 232.333 806 295 c 0
 810 314.333 812 332.667 812 350 c 0
 812 400.667 795.667 439.667 763 467 c 0
 730.333 494.333 688 508 636 508 c 0
EndSplineSet
EndChar
StartChar: seven
Encoding: 24 55
OldEncoding: 55
Width: 932
Flags: W
HStem: -2 21G<309 502> 813 115<372 910>
Fore
553 172 m 0
 533 122.667 516 64.6667 502 -2 c 1
 309 -2 l 1
 370.333 197.333 475.333 380.333 624 547 c 0
 676 605 771.333 693.667 910 813 c 1
 349 813 l 1
 373 928 l 1
 1080 928 l 1
 1054 803 l 1
 970 740.333 893 669.333 823 590 c 0
 697.667 447.333 607.667 308 553 172 c 0
EndSplineSet
EndChar
StartChar: eight
Encoding: 25 56
OldEncoding: 56
Width: 932
Flags: W
HStem: -8 98<516 554> 465 117<615 644> 854 88<696 722>
VStem: 201 160<221 245> 342 155<679 697> 797 161<330 352>
Fore
951 291 m 0
 929.667 191.667 876.667 115.667 792 63 c 0
 716.667 15.6667 625.333 -8 518 -8 c 0
 431.333 -8 360 8.33333 304 41 c 0
 235.333 81 201 141.333 201 222 c 0
 201 244 203.667 267.667 209 293 c 0
 235.667 417 326 490.667 480 514 c 1
 487 545 l 1
 390.333 554.333 342 603.333 342 692 c 0
 342 708 344 725 348 743 c 0
 362.667 813 413.667 865.667 501 901 c 0
 567.667 928.333 640.667 942 720 942 c 0
 792.667 942 854.333 932 905 912 c 0
 976.333 884 1012 839.667 1012 779 c 0
 1012 767 1010.67 754.333 1008 741 c 0
 984.667 632.333 914.667 567 798 545 c 1
 793 514 l 1
 903 494.667 958 440 958 350 c 0
 958 332 955.667 312.333 951 291 c 0
793 291 m 0
 795.667 305.667 797 319.333 797 332 c 0
 797 420.667 737 465 617 465 c 0
 557.667 465 505 450.667 459 422 c 0
 409.667 390 379 346.333 367 291 c 0
 363 274.333 361 258.333 361 243 c 0
 361 194.333 378.667 156.333 414 129 c 0
 446 103 487 90 537 90 c 0
 601 90 656.333 108.167 703 144.5 c 0
 749.667 180.833 779.667 229.667 793 291 c 0
702 854 m 0
 588.667 854 523 812.333 505 729 c 1
 499.667 713 497 698 497 684 c 0
 497 616 545.333 582 642 582 c 0
 758 582 826.333 630.333 847 727 c 0
 855.667 769.667 843.333 802.333 810 825 c 0
 782.667 844.333 746.667 854 702 854 c 0
EndSplineSet
EndChar
StartChar: nine
Encoding: 26 57
OldEncoding: 57
Width: 932
Flags: W
HStem: -10 98<496 530> 332 106<574 603> 840 108<688 724>
VStem: 278 159<556 587>
Fore
991 444 m 0
 963.667 315.333 908 209.333 824 126 c 0
 732.667 35.3333 624 -10 498 -10 c 0
 318 -10 222 53.3333 210 180 c 1
 209 193 l 1
 352 193 l 1
 370 123 423.667 88 513 88 c 0
 597.667 88 673 133 739 223 c 0
 781.667 281 809.667 331.667 823 375 c 0
 827.667 390.333 833.667 415.667 841 451 c 1
 810 430 l 1
 782 406 l 2
 724.667 356.667 655.667 332 575 332 c 0
 377 332 278 406.667 278 556 c 0
 278 580.667 281 607 287 635 c 0
 309 739 361.333 818.333 444 873 c 0
 519.333 923 612.667 948 724 948 c 0
 929.333 948 1028.33 847.667 1021 647 c 0
 1019 593.667 1009 526 991 444 c 0
697 840 m 0
 632.333 840 577.167 822 531.5 786 c 0
 485.833 750 456.333 701 443 639 c 0
 439 620.333 437 603 437 587 c 0
 437 539.667 452.667 502.667 484 476 c 0
 513.333 450.667 552.333 438 601 438 c 0
 662.333 438 717.333 457.833 766 497.5 c 0
 814.667 537.167 845.667 587 859 647 c 0
 862.333 665.667 864 682.667 864 698 c 0
 864 792.667 808.333 840 697 840 c 0
EndSplineSet
MinimumDistance: x21,-1 
EndChar
StartChar: colon
Encoding: 27 58
OldEncoding: 58
Width: 393
Flags: W
HStem: 2 195<190 232> 512 195<299 340>
Fore
408 608 m 0
 394.667 544 358.333 512 299 512 c 0
 249.667 512 225 533.333 225 576 c 0
 225 585.333 226.333 596 229 608 c 0
 243 674 280 707 340 707 c 0
 388 707 412 685.667 412 643 c 0
 412 632.333 410.667 620.667 408 608 c 0
300 100 m 0
 286 34.6667 249.333 2 190 2 c 0
 141.333 2 117 23.6667 117 67 c 0
 117 77 118.333 88 121 100 c 0
 135 164.667 172 197 232 197 c 0
 280 197 304 175.667 304 133 c 0
 304 123 302.667 112 300 100 c 0
EndSplineSet
EndChar
StartChar: semicolon
Encoding: 28 59
OldEncoding: 59
Width: 428
Flags: W
HStem: 506 194<305 346>
Fore
415 602 m 0
 401.667 538 365 506 305 506 c 0
 255 506 230 527.333 230 570 c 0
 230 579.333 231.333 590 234 602 c 0
 248 667.333 285.333 700 346 700 c 0
 394 700 418 675.667 418 627 c 0
 418 619 417 610.667 415 602 c 0
200 -33 m 2
 208 6 l 1
 149.333 6 120 31.6667 120 83 c 0
 120 90.3333 121 98 123 106 c 0
 137.667 176 179.333 211 248 211 c 0
 284 211 308 194.333 320 161 c 0
 330 133 330.333 101.333 321 66 c 2
 312 33 l 2
 272.667 -110.333 190.333 -193 65 -215 c 1
 80 -147 l 1
 103.333 -143 121.333 -138.333 134 -133 c 1
 168 -113.667 190 -80.3333 200 -33 c 2
EndSplineSet
EndChar
StartChar: less
Encoding: 29 60
OldEncoding: 60
Width: 799
Flags: W
DStem: 168 330 316 399 718 84 746 215 852 713 824 582 197 467 316 399
Fore
168 330 m 1
 197 467 l 1
 852 713 l 1
 824 582 l 1
 316 399 l 1
 746 215 l 1
 718 84 l 1
 168 330 l 1
EndSplineSet
EndChar
StartChar: equal
Encoding: 30 61
OldEncoding: 61
Width: 727
Flags: W
HStem: 184 123<152 703> 537 120<227 778>
Fore
202 537 m 1
 228 657 l 1
 804 657 l 1
 778 537 l 1
 202 537 l 1
127 184 m 1
 153 307 l 1
 729 307 l 1
 703 184 l 1
 127 184 l 1
EndSplineSet
EndChar
StartChar: greater
Encoding: 31 62
OldEncoding: 62
Width: 799
Flags: W
DStem: 222 582 250 713 650 399 799 467 650 399 770 330 144 215 116 84
Fore
116 84 m 1
 144 215 l 1
 650 399 l 1
 222 582 l 1
 250 713 l 1
 799 467 l 1
 770 330 l 1
 116 84 l 1
EndSplineSet
EndChar
StartChar: question
Encoding: 32 63
OldEncoding: 63
Width: 719
Flags: W
HStem: -2.00001 154<357 390> 494 196<341 415> 836 108<512 563>
Fore
748 873 m 0
 778 840.333 795 809.667 799 781 c 0
 801.667 761.667 798 728.667 788 682 c 0
 767.333 586 715 503.333 631 434 c 2
 525 346 l 2
 493 320 470.333 281.667 457 231 c 2
 446 188 l 1
 337 186 l 1
 353 252 l 1
 375 309 l 2
 383 330.333 403 363.333 435 408 c 0
 442.333 420 480.333 461.333 549 532 c 0
 609.667 594 640 655.667 640 717 c 0
 640 796.333 597.333 836 512 836 c 0
 455.333 836 412 816 382 776 c 2
 365 754 l 1
 342.333 716 333.667 687.333 339 668 c 1
 368.333 682.667 393.667 690 415 690 c 0
 457.667 690 479 670 479 630 c 0
 479 620 477.667 608.667 475 596 c 0
 468.333 566 452.167 541.5 426.5 522.5 c 0
 400.833 503.5 372.333 494 341 494 c 0
 292.333 494 258 514.333 238 555 c 0
 221.333 589.667 218.333 631.333 229 680 c 0
 249.667 777.333 302 849.667 386 897 c 0
 441.333 928.333 500.333 944 563 944 c 0
 641.667 944 703.333 920.333 748 873 c 0
390 152 m 0
 432.667 152 454 133.333 454 96 c 0
 454 89.3333 453.333 82 452 74 c 0
 443.333 23.3333 412 -2 358 -2 c 0
 316.667 -2 296 15 296 49 c 0
 296 57 297 65.3333 299 74 c 0
 309.667 126 340 152 390 152 c 0
EndSplineSet
EndChar
StartChar: at
Encoding: 33 64
OldEncoding: 64
Width: 1049
Flags: W
HStem: 588 129<652 672> 689 20G<833 939> 860 107<718 753>
VStem: 159 127<329 363> 993 109<614 650>
Fore
722 180 m 0
 677.333 180 654.667 198 654 234 c 0
 654 242 655 250.667 657 260 c 1
 608.333 215.333 560.667 190 514 184 c 1
 452.667 184 408 208.333 380 257 c 0
 354 301 347.333 353.333 360 414 c 0
 377.333 494 412.667 563 466 621 c 0
 525.333 685 593.333 717 670 717 c 0
 728.667 717 773.333 688.333 804 631 c 1
 833 709 l 1
 939 709 l 1
 793 301 l 2
 785 278.333 790.333 266.667 809 266 c 0
 847.667 265.333 886 299.667 924 369 c 0
 970 451.667 993 533.667 993 615 c 0
 993 675 978.333 725.333 949 766 c 0
 903 828.667 828.667 860 726 860 c 0
 616.667 860 522.333 820.667 443 742 c 0
 370.333 670 322 578.333 298 467 c 0
 290 427.667 286 391 286 357 c 0
 286 290.333 301.667 233.333 333 186 c 0
 382.333 110 464 72 578 72 c 0
 661.333 72 745 102 829 162 c 1
 941 162 l 1
 807 30.6667 675.333 -35 546 -35 c 0
 400.667 -35 294.333 12 227 106 c 0
 181.667 168 159 243 159 331 c 0
 159 372.333 164 416.333 174 463 c 0
 204.667 604.333 272 722.667 376 818 c 0
 484.667 917.333 609.667 967 751 967 c 0
 867.667 967 959.333 929 1026 853 c 0
 1076.67 795.667 1102 728 1102 650 c 0
 1102 621.333 1098.67 591.667 1092 561 c 0
 1067.33 444.333 1026 356.333 968 297 c 0
 922 249.667 885 219 857 205 c 0
 823 188.333 778 180 722 180 c 0
505 436 m 0
 501 418 499 402 499 388 c 0
 499 336.667 524 311 574 311 c 0
 612.667 311 647.667 328.333 679 363 c 0
 707.667 393.667 726.333 429 735 469 c 0
 738.333 485 740 499.333 740 512 c 0
 740 562.667 713.333 588 660 588 c 0
 624 588 590.333 571.333 559 538 c 0
 531 508 513 474 505 436 c 0
EndSplineSet
EndChar
StartChar: A
Encoding: 34 65
OldEncoding: 65
Width: 840
Flags: W
HStem: 4 21G<34 189 615 789> 207 129<352 595> 920 20G<507 722>
DStem: 507 940 575 797 34 4 352 336 507 940 290 207 34 4 189 4
Fore
615 4 m 1
 603 207 l 1
 290 207 l 1
 189 4 l 1
 34 4 l 1
 507 940 l 1
 722 940 l 1
 789 4 l 1
 615 4 l 1
575 797 m 1
 352 336 l 1
 595 336 l 1
 575 797 l 1
EndSplineSet
MinimumDistance: x8,-1 
EndChar
StartChar: B
Encoding: 35 66
OldEncoding: 66
Width: 864
Flags: W
HStem: 4 129<298 468> 426 121<386 542> 817 123<443 647>
VStem: 695 166<299 319> 763 172<730 767>
DStem: 311 940 444 817 112 4 386 547 311 940 361 426 112 4 298 133
Fore
615 12 m 1
 488 4 l 1
 112 4 l 1
 311 940 l 1
 687 940 l 1
 797 934 l 2
 822.333 932.667 848 921.667 874 901 c 0
 914.667 868.333 935 823.667 935 767 c 0
 935 748.333 932.667 728.333 928 707 c 0
 905.333 599 834.333 528 715 494 c 1
 710 481 l 1
 810.667 459 861 398 861 298 c 0
 861 240 842.667 187 806 139 c 0
 752 69.6667 688.333 27.3333 615 12 c 1
687 813 m 2
 647 817 l 1
 444 817 l 1
 386 547 l 1
 554 547 l 1
 629 549 l 1
 646.333 551.667 665 560.333 685 575 c 0
 723.667 602.333 748 640 758 688 c 0
 761.333 703.333 763 717.333 763 730 c 0
 763 780 737.667 807.667 687 813 c 2
653 403 m 0
 641.667 411.667 625.333 418 604 422 c 1
 542 426 l 1
 361 426 l 1
 298 133 l 1
 468 133 l 1
 547 135 l 1
 564.333 137.667 584.333 146 607 160 c 0
 651.667 188 680 229.667 692 285 c 0
 694 296.333 695 307 695 317 c 0
 695 352.333 681 381 653 403 c 0
EndSplineSet
EndChar
StartChar: C
Encoding: 36 67
OldEncoding: 67
Width: 864
Flags: W
HStem: -4.00002 133<451 490> 821 135<627 662>
VStem: 767 162<628 701>
Fore
452 -4 m 0
 324.667 -4 237 46.3333 189 147 c 0
 164.333 199 152 259 152 327 c 0
 152 373 157.667 423 169 477 c 0
 197.667 609.667 252.667 719.667 334 807 c 0
 426 906.333 535.333 956 662 956 c 0
 840 956 929.333 861 930 671 c 0
 930 657 929.667 643 929 629 c 1
 758 616 l 1
 764 642.667 767 667 767 689 c 0
 767 777 720.667 821 628 821 c 0
 560.667 821 498.667 778 442 692 c 0
 401.333 630 372 559 354 479 c 0
 334 393 332.667 316.667 350 250 c 0
 371.333 169.333 418 129 490 129 c 0
 553.333 129 606.333 157 649 213 c 0
 667.667 237.667 686.667 271 706 313 c 1
 859 303 l 1
 784.333 98.3333 648.667 -4 452 -4 c 0
EndSplineSet
EndChar
StartChar: D
Encoding: 37 68
OldEncoding: 68
Width: 864
Flags: W
HStem: 4 21G<75 347> 797 143<404 556>
VStem: 740 169<576 612>
DStem: 274 940 405 797 75 4 267 145
Fore
710 133 m 0
 623.333 47 502.333 4 347 4 c 2
 75 4 l 1
 274 940 l 1
 511 940 l 2
 680.333 940 790.667 905.333 842 836 c 0
 886.667 775.333 909 700.667 909 612 c 0
 909 569.333 904 523.667 894 475 c 0
 865.333 340.333 804 226.333 710 133 c 0
708 721 m 0
 683.333 771.667 623.667 797 529 797 c 2
 405 797 l 1
 267 145 l 1
 361 145 l 2
 421.667 145 467.667 150.667 499 162 c 0
 549.667 180 591.667 210.667 625 254 c 0
 640.333 273.333 661.667 309.333 689 362 c 1
 723 445.333 740 517 740 577 c 0
 740 629.667 729.333 677.667 708 721 c 0
EndSplineSet
EndChar
StartChar: E
Encoding: 38 69
OldEncoding: 69
Width: 760
Flags: W
HStem: 2 125<293 698> 391 131<377 689> 797 135<434 867>
DStem: 304 932 435 797 106 2 377 522 304 932 349 391 106 2 293 127
Fore
106 2 m 1
 304 932 l 1
 896 932 l 1
 867 797 l 1
 435 797 l 1
 377 522 l 1
 717 522 l 1
 689 391 l 1
 349 391 l 1
 293 127 l 1
 725 127 l 1
 698 2 l 1
 106 2 l 1
EndSplineSet
MinimumDistance: x4,-1 
EndChar
StartChar: F
Encoding: 39 70
OldEncoding: 70
Width: 709
Flags: W
HStem: 2 21G<104 264> 385 139<375 688> 795 141<432 863>
DStem: 303 936 433 795 104 2 375 524 303 936 346 385 104 2 264 2
Fore
433 795 m 1
 375 524 l 1
 717 524 l 1
 688 385 l 1
 346 385 l 1
 264 2 l 1
 104 2 l 1
 303 936 l 1
 893 936 l 1
 863 795 l 1
 433 795 l 1
EndSplineSet
MinimumDistance: x0,-1 
EndChar
StartChar: G
Encoding: 40 71
OldEncoding: 71
Width: 864
Flags: W
HStem: -8 131<444 497> 0 21G<662 795> 348 129<575 717>
VStem: 125 170<337 378>
Fore
662 0 m 1
 683 100 l 1
 638.333 28 558.667 -8 444 -8 c 0
 320 -8 230.333 40.6667 175 138 c 0
 141.667 196.667 125 263.333 125 338 c 0
 125 377.333 129.667 419 139 463 c 0
 169 603 228.667 717 318 805 c 0
 415.333 901.667 532.333 950 669 950 c 0
 850.333 950 941.333 854.667 942 664 c 1
 787 641 l 1
 794.333 761 744 821 636 821 c 0
 557.333 821 483.667 777.333 415 690 c 0
 359 619.333 322 541.667 304 457 c 0
 298 429.667 295 403.333 295 378 c 0
 295 331.333 304.667 286.667 324 244 c 0
 360 163.333 417.667 123 497 123 c 0
 611.667 123 685 198 717 348 c 1
 549 348 l 1
 576 477 l 1
 896 477 l 1
 795 0 l 1
 662 0 l 1
EndSplineSet
MinimumDistance: x13,-1 
EndChar
StartChar: H
Encoding: 41 72
OldEncoding: 72
Width: 879
Flags: W
HStem: 4 21G<81 243 642 810> 412 143<360 729> 920 20G<280 442 841 1009>
DStem: 280 940 442 940 81 4 360 555 280 940 330 412 81 4 243 4 729 412 1009 940 642 4 810 4 841 940 1009 940 759 555 810 4
Fore
642 4 m 1
 729 412 l 1
 330 412 l 1
 243 4 l 1
 81 4 l 1
 280 940 l 1
 442 940 l 1
 360 555 l 1
 759 555 l 1
 841 940 l 1
 1009 940 l 1
 810 4 l 1
 642 4 l 1
EndSplineSet
EndChar
StartChar: I
Encoding: 42 73
OldEncoding: 73
Width: 393
Flags: W
HStem: 4 21G<112 271> 920 20G<311 470>
DStem: 311 940 470 940 112 4 271 4
Fore
112 4 m 1
 311 940 l 1
 470 940 l 1
 271 4 l 1
 112 4 l 1
EndSplineSet
EndChar
StartChar: J
Encoding: 43 74
OldEncoding: 74
Width: 645
Flags: W
HStem: -4 145<315 343> 916 20G<635 793>
DStem: 635 936 793 936 511 354 646 244
Fore
477 39 m 0
 428.333 10.3333 374.667 -4 316 -4 c 0
 300 -4 287.667 -2.66667 279 0 c 1
 194.333 0 137 32.6667 107 98 c 0
 85.6667 144.667 80.6667 195.333 92 250 c 1
 117 367 l 1
 273 367 l 1
 249 254 l 2
 247 244 246 234.667 246 226 c 0
 246 169.333 276.333 141 337 141 c 0
 409.667 141 460 181.333 488 262 c 1
 511 354 l 1
 635 936 l 1
 793 936 l 1
 646 244 l 1
 608 151.333 551.667 83 477 39 c 0
EndSplineSet
EndChar
StartChar: K
Encoding: 44 75
OldEncoding: 75
Width: 840
Flags: W
HStem: 0 21G<111 264 612 793> 914 20G<310 463>
DStem: 310 934 463 934 111 0 354 424 310 934 301 174 111 0 264 0 521 436 668 586 612 0 793 0 778 932 948 932 354 424 668 586 778 932 521 436 354 424 301 174
Fore
612 0 m 1
 521 436 l 1
 301 174 l 1
 264 0 l 1
 111 0 l 1
 310 934 l 1
 463 934 l 1
 354 424 l 1
 778 932 l 1
 948 932 l 1
 668 586 l 1
 793 0 l 1
 612 0 l 1
EndSplineSet
EndChar
StartChar: L
Encoding: 45 76
OldEncoding: 76
Width: 655
Flags: W
HStem: 4 143<293 624> 920 20G<300 462>
DStem: 300 940 462 940 101 4 293 147
Fore
101 4 m 1
 300 940 l 1
 462 940 l 1
 293 147 l 1
 654 147 l 1
 624 4 l 1
 101 4 l 1
EndSplineSet
MinimumDistance: x2,-1 
EndChar
StartChar: M
Encoding: 46 77
OldEncoding: 77
Width: 1153
Flags: W
HStem: 4 21G<107 237 501 607 880 1039> 920 20G<306 593 952 1238>
DStem: 306 940 408 811 107 4 237 4 453 811 593 940 501 4 628 279 952 940 1001 811 628 279 607 4 1051 811 1238 940 880 4 1039 4
Fore
880 4 m 1
 1051 811 l 1
 1001 811 l 1
 607 4 l 1
 501 4 l 1
 453 811 l 1
 408 811 l 1
 237 4 l 1
 107 4 l 1
 306 940 l 1
 593 940 l 1
 628 279 l 1
 952 940 l 1
 1238 940 l 1
 1039 4 l 1
 880 4 l 1
EndSplineSet
EndChar
StartChar: N
Encoding: 47 78
OldEncoding: 78
Width: 864
Flags: W
HStem: 4 21G<107 220 609 751> 687 20G<369 414> 920 20G<306 493 835 950>
DStem: 306 940 369 707 107 4 220 4 414 707 493 940 609 4 661 315 835 940 950 940 702 315 751 4
Fore
609 4 m 1
 414 707 l 1
 369 707 l 1
 220 4 l 1
 107 4 l 1
 306 940 l 1
 493 940 l 1
 661 315 l 1
 702 315 l 1
 835 940 l 1
 950 940 l 1
 751 4 l 1
 609 4 l 1
EndSplineSet
EndChar
StartChar: O
Encoding: 48 79
OldEncoding: 79
Width: 864
Flags: W
HStem: -3.99998 139<426 465> 823 133<607 631>
Fore
427 -4 m 0
 297.667 -4 213.333 42.3333 174 135 c 0
 144.667 203 130 274 130 348 c 0
 130 390 134.667 433 144 477 c 0
 172 606.333 226.667 715.667 308 805 c 0
 400 905.667 507.667 956 631 956 c 0
 731 956 803 933.333 847 888 c 0
 891 842.667 914.667 770 918 670 c 0
 922.667 547.333 897.667 426.333 843 307 c 0
 748.333 99.6667 609.667 -4 427 -4 c 0
609 823 m 0
 531.667 823 462.333 776.667 401 684 c 0
 361 622.667 332.667 553.667 316 477 c 0
 298.667 395 299.333 321.333 318 256 c 0
 341.333 175.333 390.333 135 465 135 c 0
 535.667 135 600.667 178 660 264 c 0
 695.333 315.333 722.667 386.333 742 477 c 0
 755.333 537.667 762 590.333 762 635 c 0
 762 760.333 711 823 609 823 c 0
EndSplineSet
EndChar
StartChar: P
Encoding: 49 80
OldEncoding: 80
Width: 836
Flags: W
HStem: 0 21G<84 244> 369 125<349 560> 809 127<415 613>
DStem: 283 936 416 809 84 0 349 494 283 936 322 369 84 0 244 0
Fore
645 375 m 2
 596 369 l 1
 322 369 l 1
 244 0 l 1
 84 0 l 1
 283 936 l 1
 688 936 l 2
 753.333 936 806 918 846 882 c 0
 888.667 844.667 910 793.667 910 729 c 0
 910 665 890.667 598.667 852 530 c 0
 799.333 437.333 730.333 385.667 645 375 c 2
663 803 m 0
 643 807 618 809 588 809 c 2
 416 809 l 1
 349 494 l 1
 560 494 l 1
 598 500 l 2
 644.667 507.333 682.333 537.333 711 590 c 0
 719.667 605.333 728 625.667 736 651 c 1
 742 679.667 743.333 703.667 740 723 c 0
 730.667 767.667 705 794.333 663 803 c 0
EndSplineSet
MinimumDistance: x12,-1 
EndChar
StartChar: Q
Encoding: 50 81
OldEncoding: 81
Width: 864
Flags: W
VStem: 750 174<584 620>
Fore
616 37 m 1
 612.667 20.3333 611 5.66667 611 -7 c 0
 611 -60.3333 640 -84.6667 698 -80 c 2
 750 -76 l 1
 723 -201 l 1
 673 -205 l 2
 605.667 -210.333 560.333 -193.333 537 -154 c 0
 518.333 -122.667 511.333 -72 516 -2 c 1
 403 -12 l 2
 355.667 -16 311 -2.33333 269 29 c 0
 230.333 57.6667 201.333 95 182 141 c 0
 157.333 198.333 145 261.333 145 330 c 0
 145 374.667 150.333 421.667 161 471 c 0
 188.333 600.333 241.333 709.667 320 799 c 0
 408 899.667 514 950 638 950 c 0
 762.667 950 844.667 905 884 815 c 0
 910.667 755.667 924 690 924 618 c 0
 924 571.333 918.333 522.333 907 471 c 0
 864.333 270.333 767.333 125.667 616 37 c 1
740 705 m 0
 728 779.667 684.667 817 610 817 c 0
 526.667 817 459.333 774 408 688 c 1
 365 586 l 1
 333 471 l 1
 312.333 395 311 320.667 329 248 c 0
 348.333 167.333 395.667 127 471 127 c 0
 551.667 127 614.667 168.667 660 252 c 1
 705 358 l 1
 737 471 l 1
 745 497.667 749.333 536 750 586 c 0
 750 622.667 746.667 662.333 740 705 c 0
EndSplineSet
EndChar
StartChar: R
Encoding: 51 82
OldEncoding: 82
Width: 881
Flags: W
HStem: -2 21G<72 227 676 842> 375 153<339 601> 778 154<391 700>
VStem: 668 156<79 127>
DStem: 270 932 392 778 72 -2 339 528 270 932 307 375 72 -2 227 -2
Fore
676 -2 m 1
 670.667 24 668 51.3333 668 80 c 0
 668 118 672.667 158.333 682 201 c 0
 695.333 265.667 699.333 307.333 694 326 c 0
 684.667 358.667 649.333 375 588 375 c 2
 307 375 l 1
 227 -2 l 1
 72 -2 l 1
 270 932 l 1
 698 932 l 2
 872 932 959 870.333 959 747 c 0
 959 725.667 956.333 702 951 676 c 0
 939 620.667 922 578.667 900 550 c 0
 882 526.667 845.333 496.333 790 459 c 1
 835.333 421.667 858 375 858 319 c 0
 858 298.333 855 276.667 849 254 c 2
 838 211 l 1
 829 170 l 2
 825.667 154.667 824 140.333 824 127 c 0
 824 95 833.333 69 852 49 c 1
 842 -2 l 1
 676 -2 l 1
667 778 m 2
 392 778 l 1
 339 528 l 1
 638 528 l 2
 680.667 528 711.333 534.5 730 547.5 c 0
 748.667 560.5 765.333 587 780 627 c 1
 790 662 l 1
 802.667 710 794 743.333 764 762 c 0
 746.667 772.667 714.333 778 667 778 c 2
EndSplineSet
MinimumDistance: x18,-1 
EndChar
StartChar: S
Encoding: 52 83
OldEncoding: 83
Width: 786
Flags: W
HStem: -8 147<364 415> 811 141<555 577>
VStem: 600 183<282 346>
Fore
504 8 m 0
 460 -2.66667 413.667 -8 365 -8 c 0
 191 -8 96.3333 67 81 217 c 1
 162 240 l 1
 253 264 l 1
 263 180.667 317 139 415 139 c 0
 455.667 139 492.667 148 526 166 c 0
 565.333 186.667 589 215.333 597 252 c 0
 599 262.667 600 272.667 600 282 c 0
 600 314.667 585.667 340 557 358 c 1
 505 379 l 1
 456 391 l 2
 376.667 411 320.333 431.667 287 453 c 0
 233.667 487.667 207 537.333 207 602 c 0
 207 623.333 209.333 646 214 670 c 0
 243.333 808 322.333 896 451 934 c 0
 491 946 532.333 952 575 952 c 0
 733 952 822.667 889.333 844 764 c 1
 691 715 l 1
 686.333 748.333 675.667 771.333 659 784 c 0
 635.667 802 601.667 811 557 811 c 0
 465.667 811 412.333 774.667 397 702 c 0
 394.333 690 393 678.667 393 668 c 0
 393 641.333 402.333 622 421 610 c 1
 460 594 l 1
 507 582 l 2
 528.333 576.667 569 565.667 629 549 c 0
 655 541 682.667 524 712 498 c 0
 759.333 455.333 783 404.667 783 346 c 0
 783 288.667 764 230 726 170 c 0
 672 84.6667 598 30.6667 504 8 c 0
EndSplineSet
MinimumDistance: x28,-1 
EndChar
StartChar: T
Encoding: 53 84
OldEncoding: 84
Width: 709
Flags: W
HStem: 2 21G<270 430> 795 143<239 439 598 824>
DStem: 439 795 599 795 270 2 430 2
Fore
599 795 m 1
 430 2 l 1
 270 2 l 1
 439 795 l 1
 210 795 l 1
 240 938 l 1
 854 938 l 1
 824 795 l 1
 599 795 l 1
EndSplineSet
MinimumDistance: x0,-1 
EndChar
StartChar: U
Encoding: 54 85
OldEncoding: 85
Width: 864
Flags: W
HStem: -8.00001 139<433 479> 914 20G<291 471 813 981>
DStem: 291 934 471 934 170 367 331 270 813 934 981 934 682 322 843 287
Fore
843 287 m 1
 829.667 225.667 786.667 158.667 714 86 c 1
 640.667 23.3333 547.333 -8 434 -8 c 0
 244.667 -8 148.667 56.6667 146 186 c 0
 144.667 226 152.667 286.333 170 367 c 2
 291 934 l 1
 471 934 l 1
 331 270 l 2
 328.333 256.667 327 244.333 327 233 c 0
 327 189.667 347.667 160.333 389 145 c 0
 414.333 135.667 444.333 131 479 131 c 0
 545 131 594.667 149.333 628 186 c 0
 650.667 211.333 668.667 256.667 682 322 c 1
 813 934 l 1
 981 934 l 1
 843 287 l 1
EndSplineSet
EndChar
StartChar: V
Encoding: 55 86
OldEncoding: 86
Width: 786
Flags: W
HStem: 0 21G<297 500> 916 20G<240 414>
Fore
500 0 m 1
 297 0 l 1
 240 936 l 1
 414 936 l 1
 442 168 l 1
 793 934 l 1
 944 936 l 1
 500 0 l 1
EndSplineSet
EndChar
StartChar: W
Encoding: 56 87
OldEncoding: 87
Width: 1180
Flags: W
HStem: -2 21G<254 422 750 924> 914 20G<711 766> 916 20G<836 863>
VStem: 233 162<270.172 932> 742 129<279.18 361.613 546.569 669.75>
DStem: 711 934 726 670 415 268 422 -2 742 670 871 934 750 -2 886 279 836 936 863 936 766 934 871 934 1193 932 1338 934 901 270 924 -2
Fore
924 -2 m 1
 750 -2 l 1
 742 670 l 1
 726 670 l 1
 422 -2 l 1
 254 -2 l 1
 233 932 l 1
 397 932 l 1
 395 270 l 1
 415 268 l 1
 711 934 l 1
 766 934 l 1
 836 936 l 1
 863 936 l 1
 871 934 l 1
 886 279 l 1
 901 270 l 1
 1193 932 l 1
 1338 934 l 1
 924 -2 l 1
EndSplineSet
EndChar
StartChar: X
Encoding: 57 88
OldEncoding: 88
Width: 840
Flags: W
HStem: 0 21G<55 227 588 774> 914 20G<781 947> 916 20G<287 473>
DStem: 781 934 947 934 560 629 624 498
Fore
588 0 m 1
 488 358 l 1
 227 0 l 1
 55 0 l 1
 431 485 l 1
 287 936 l 1
 473 936 l 1
 560 629 l 1
 781 934 l 1
 947 934 l 1
 624 498 l 1
 774 0 l 1
 588 0 l 1
EndSplineSet
EndChar
StartChar: Y
Encoding: 58 89
OldEncoding: 89
Width: 786
Flags: W
HStem: 0 21G<313 475> 916 20G<246 435 783 942>
DStem: 397 397 553 377 313 0 475 0 783 936 942 936 527 559 553 377
Fore
553 377 m 1
 475 0 l 1
 313 0 l 1
 397 397 l 1
 246 936 l 1
 435 936 l 1
 527 559 l 1
 783 936 l 1
 942 936 l 1
 553 377 l 1
EndSplineSet
MinimumDistance: x4,8 
EndChar
StartChar: Z
Encoding: 59 90
OldEncoding: 90
Width: 864
Flags: W
HStem: -2 135<325 793> 801 133<345 766>
DStem: 766 801 948 801 143 131 325 133
Fore
115 -2 m 1
 143 131 l 1
 766 801 l 1
 317 801 l 1
 346 934 l 1
 977 934 l 1
 948 801 l 1
 325 133 l 1
 821 133 l 1
 793 -2 l 1
 115 -2 l 1
EndSplineSet
EndChar
StartChar: bracketleft
Encoding: 60 91
OldEncoding: 91
Width: 498
Flags: W
HStem: -254 80<199 313> 852 82<416 548>
DStem: 330 934 417 852 77 -254 199 -174
Fore
77 -254 m 1
 330 934 l 1
 566 934 l 1
 548 852 l 1
 417 852 l 1
 199 -174 l 1
 330 -174 l 1
 313 -254 l 1
 77 -254 l 1
EndSplineSet
MinimumDistance: x4,-1 
EndChar
StartChar: backslash
Encoding: 61 92
OldEncoding: 92
Width: 555
Flags: W
Fore
333 4 m 1
 253 940 l 1
 385 938 l 1
 481 2 l 1
 333 4 l 1
EndSplineSet
EndChar
StartChar: bracketright
Encoding: 62 93
OldEncoding: 93
Width: 498
Flags: W
HStem: -268 90<92 224> 844 90<329 441>
DStem: 441 844 566 934 224 -178 310 -268
Fore
74 -268 m 1
 93 -178 l 1
 224 -178 l 1
 441 844 l 1
 310 844 l 1
 330 934 l 1
 566 934 l 1
 310 -268 l 1
 74 -268 l 1
EndSplineSet
EndChar
StartChar: asciicircum
Encoding: 63 94
OldEncoding: 94
Width: 786
Flags: W
HStem: 920 20G<526 655>
DStem: 526 940 573 858 208 381 302 381 573 858 655 940 644 381 738 381
Fore
644 381 m 1
 573 858 l 1
 302 381 l 1
 208 381 l 1
 526 940 l 1
 655 940 l 1
 738 381 l 1
 644 381 l 1
EndSplineSet
MinimumDistance: x6,-1 
EndChar
StartChar: underscore
Encoding: 64 95
OldEncoding: 95
Width: 0
Flags: W
HStem: -145 75<-1167 -25>
Fore
-1166 -70 m 1
 -9 -70 l 1
 -25 -145 l 1
 -1182 -145 l 1
 -1166 -70 l 1
EndSplineSet
EndChar
StartChar: grave
Encoding: 65 96
OldEncoding: 96
Width: 498
Flags: W
Fore
543 827 m 1
 313 924 l 1
 357 1026 l 1
 574 897 l 1
 543 827 l 1
EndSplineSet
EndChar
StartChar: a
Encoding: 66 97
OldEncoding: 97
Width: 717
Flags: W
HStem: -6 21G<249 298> -5.99999 98<297 346> 0 21G<674 698> 604 98<483 526>
VStem: 93 164<117 163>
Fore
249 -6 m 2
 145.667 -6 93.6667 35 93 117 c 0
 93 134.333 95.3333 153.333 100 174 c 0
 116 248 154.667 304.667 216 344 c 0
 258.667 371.333 323.333 394 410 412 c 1
 568 426 l 1
 580 483 l 2
 582.667 495.667 583.667 507.333 583 518 c 1
 589.667 550 575.333 574.667 540 592 c 0
 523.333 600 504.667 604 484 604 c 0
 408 604 355.667 572 327 508 c 1
 196 508 l 1
 238.667 637.333 348.667 702 526 702 c 0
 610.667 702 671 681 707 639 c 1
 727 620.333 735.667 588.333 733 543 c 0
 732.333 530.333 730 514 726 494 c 1
 656 166 l 1
 654.667 158.667 654 151.667 654 145 c 0
 654 123.667 662.333 106.667 679 94 c 1
 715 82 l 1
 698 0 l 1
 674 0 l 1
 597 6 l 1
 575 10 560.667 19.6667 554 35 c 1
 537 78 l 1
 534 92 l 1
 487.333 26.6667 408.667 -6 298 -6 c 2
 249 -6 l 2
548 334 m 1
 509.333 331.333 450.667 321.667 372 305 c 1
 308.667 283 271.667 247 261 197 c 0
 258.333 184.333 257 173 257 163 c 0
 257.667 115.667 287.333 92 346 92 c 0
 397.333 92 441.333 114.667 478 160 c 0
 508 198 529 245 541 301 c 2
 548 334 l 1
EndSplineSet
MinimumDistance: x30,-1 
EndChar
StartChar: b
Encoding: 67 98
OldEncoding: 98
Width: 723
Flags: W
HStem: 0 21G<84 217> 582 118<486 587> 918 20G<283 426>
DStem: 283 938 426 938 84 0 360 625
Fore
413 -4 m 0
 302.333 -4 241.667 19.3333 231 66 c 1
 217 0 l 1
 84 0 l 1
 283 938 l 1
 426 938 l 1
 360 625 l 1
 368 623 l 1
 402 674.333 475 700 587 700 c 0
 670.333 700 725.333 659.333 752 578 c 0
 774 510.667 775.667 432 757 342 c 0
 737 248 699.333 169.333 644 106 c 0
 580 32.6667 503 -4 413 -4 c 0
486 582 m 0
 397.333 582 339 517 311 387 c 1
 289 283 l 2
 282.333 251.667 279 224 279 200 c 0
 279 125.333 311.667 88 377 88 c 0
 431 88 482 118.667 530 180 c 0
 566.667 226.667 591.667 280.667 605 342 c 0
 617 400.667 614.667 453.333 598 500 c 0
 578.667 554.667 541.333 582 486 582 c 0
EndSplineSet
MinimumDistance: x5,-1 
EndChar
StartChar: c
Encoding: 68 99
OldEncoding: 99
Width: 709
Flags: W
HStem: -1.52588e-05 121<372 409> 590 119<507 534>
VStem: 124 171<239 273>
Fore
373 0 m 0
 277.667 0 208.333 34 165 102 c 0
 137.667 144.667 124 194.667 124 252 c 0
 124 280.667 127.333 311.333 134 344 c 0
 156 447.333 201.333 532.667 270 600 c 0
 344 672.667 432 709 534 709 c 0
 684 709 755 629.667 747 471 c 1
 610 471 l 1
 611.333 479.667 612 488 612 496 c 0
 612 558.667 579.333 590 514 590 c 0
 408.667 590 340.333 515 309 365 c 0
 299.667 323 295 286.667 295 256 c 0
 295 166 333 121 409 121 c 0
 475.667 121 527.333 162.667 564 246 c 1
 703 244 l 1
 642.333 81.3333 532.333 -6.93889e-18 373 0 c 0
EndSplineSet
MinimumDistance: x11,-1 
EndChar
StartChar: d
Encoding: 69 100
OldEncoding: 100
Width: 709
Flags: W
HStem: -28 20G<305 334> 0 21G<512 647> 563 135<489 515> 920 20G<704 847>
DStem: 704 940 847 940 636 612 647 0
Fore
512 0 m 1
 527 63 l 1
 513 61 l 1
 480.333 9.66667 431.667 -14 367 -10 c 2
 334 -8 l 1
 305 -8 l 2
 222.333 -8 167.333 30.3333 140 107 c 0
 117.333 170.333 115.333 246.667 134 336 c 0
 153.333 426 189 505 241 573 c 0
 304.333 656.333 377 698 459 698 c 2
 490 698 l 2
 530.667 698 561.167 692.333 581.5 681 c 0
 601.833 669.667 620 646.667 636 612 c 1
 704 940 l 1
 847 940 l 1
 647 0 l 1
 512 0 l 1
585 379 m 1
 593.667 422.333 593.333 461.333 584 496 c 0
 572.667 540.667 547.667 563 509 563 c 0
 451.667 563 402 537.667 360 487 c 0
 324.667 443.667 300.333 391.333 287 330 c 0
 275.667 274.667 278 224 294 178 c 0
 313.333 123.333 348.333 96 399 96 c 0
 437 96 474.333 118 511 162 c 1
 537.667 202.667 555.667 243.667 565 285 c 1
 585 379 l 1
EndSplineSet
EndChar
StartChar: e
Encoding: 70 101
OldEncoding: 101
Width: 709
Flags: W
HStem: -1.52588e-05 117<361 398> 348 105<317 598> 588 114<473 507>
VStem: 122 149<234 259> 603 128<468 513>
Fore
287 348 m 1
 276 289 l 1
 272.667 269.667 271 252 271 236 c 0
 271 156.667 313.333 117 398 117 c 0
 467.333 117 516.667 150.333 546 217 c 1
 683 217 l 1
 605.667 72.3333 498.667 -6.93889e-18 362 0 c 0
 264.667 0 196 36.6667 156 110 c 0
 133.333 152 122 201 122 257 c 0
 122 289 126 323.333 134 360 c 0
 182 588 301 702 491 702 c 0
 623 702 699.667 661.333 721 580 c 0
 728.333 552 731.667 515 731 469 c 1
 713 348 l 1
 287 348 l 1
494 588 m 0
 405.333 588 346.333 543 317 453 c 1
 598 453 l 1
 601.333 469 603 483.667 603 497 c 0
 603 557.667 566.667 588 494 588 c 0
EndSplineSet
EndChar
StartChar: f
Encoding: 71 102
OldEncoding: 102
Width: 393
Flags: W
HStem: 4 21G<116 259> 555 111<178 233 400 495> 932 20G<507 530>
DStem: 233 555 376 555 116 4 259 4
Fore
533 840 m 2
 492.333 842 462 829.333 442 802 c 0
 429.333 783.333 418 751.667 408 707 c 1
 400 666 l 1
 519 666 l 1
 495 555 l 1
 376 555 l 1
 259 4 l 1
 116 4 l 1
 233 555 l 1
 155 555 l 1
 179 666 l 1
 257 666 l 1
 284 788 l 1
 303 836 l 1
 326 870 l 1
 370 924.667 430.333 952 507 952 c 2
 530 952 l 1
 595 948 l 1
 571 838 l 1
 533 840 l 2
EndSplineSet
MinimumDistance: x6,-1 
EndChar
StartChar: g
Encoding: 72 103
OldEncoding: 103
Width: 702
Flags: W
HStem: -307 106<281 315> -2 111<297 359> 680 20G<653 776>
VStem: 26 134<-136 -92>
Fore
635 614 m 1
 641 655 l 1
 648 686 l 1
 653 700 l 1
 776 700 l 1
 656 137 l 2
 626.667 -1.66667 593.333 -101.333 556 -162 c 0
 496 -258.667 408.333 -307 293 -307 c 0
 115 -307 26 -244 26 -118 c 0
 26 -109.333 26.3333 -100.667 27 -92 c 1
 29 -74 l 1
 160 -74 l 1
 161 -135 l 1
 165.667 -152.333 180.667 -166.667 206 -178 c 2
 240 -193 l 1
 281 -201 l 1
 305 -201 l 2
 314.333 -201 323.667 -199.667 333 -197 c 1
 369.667 -197 405 -177.667 439 -139 c 1
 452.333 -121.667 466 -98 480 -68 c 1
 487 -41 l 1
 492 -8 l 1
 502 39 l 1
 509 53 l 1
 510.333 58.3333 512.667 62.6667 516 66 c 1
 469.333 32.6667 417.333 11.3333 360 2 c 0
 344 -0.666667 323 -2 297 -2 c 0
 281 -2 254 2.66667 216 12 c 0
 200 16 182 28.3333 162 49 c 1
 110.667 87 85 146 85 226 c 0
 85 258 89.3333 293.333 98 332 c 0
 119.333 434 161.667 520 225 590 c 0
 241.667 608 269.333 628.333 308 651 c 0
 362 682.333 414.333 698 465 698 c 0
 541.667 698 598.333 670 635 614 c 1
550 518 m 2
 544 526 l 1
 532 552 501.333 568.333 452 575 c 1
 396 575 346 548 302 494 c 0
 265.333 448.667 240.333 396 227 336 c 0
 214.333 274 216.667 222.667 234 182 c 0
 255.333 133.333 297 109 359 109 c 0
 427.667 109 483.333 144 526 214 c 0
 562 274 580 341 580 415 c 0
 580 457.667 570 492 550 518 c 2
EndSplineSet
MinimumDistance: x11,-1 
EndChar
StartChar: h
Encoding: 73 104
OldEncoding: 104
Width: 709
Flags: W
HStem: -4 21G<85 228 486 630> 914 20G<285 428>
DStem: 285 934 428 934 85 -4 354 590 285 934 298 324 85 -4 228 -4 585 451 739 506 486 -4 630 -4
Fore
486 -4 m 1
 585 451 l 2
 588.333 467 590 481.333 590 494 c 0
 590 536 570 557 530 557 c 0
 498.667 557 465.833 548.333 431.5 531 c 0
 397.167 513.667 371 492.333 353 467 c 1
 317 397 l 1
 298 324 l 1
 228 -4 l 1
 85 -4 l 1
 285 934 l 1
 428 934 l 1
 354 590 l 1
 357 584 l 1
 399.667 661.333 484.667 700 612 700 c 0
 668.667 700 709 675.667 733 627 c 0
 742.333 608.333 747 587 747 563 c 1
 739 506 l 1
 630 -4 l 1
 486 -4 l 1
EndSplineSet
EndChar
StartChar: i
Encoding: 74 105
OldEncoding: 105
Width: 340
Flags: W
HStem: -2 21G<96 240> 678 20G<244 388>
DStem: 244 698 388 698 96 -2 240 -2 294 932 438 932 265 793 409 793
Fore
265 793 m 1
 294 932 l 1
 438 932 l 1
 409 793 l 1
 265 793 l 1
96 -2 m 1
 244 698 l 1
 388 698 l 1
 240 -2 l 1
 96 -2 l 1
EndSplineSet
EndChar
StartChar: j
Encoding: 75 106
OldEncoding: 106
Width: 340
Flags: W
HStem: 678 20G<244 388>
DStem: 244 698 388 698 89 -33 211 -104
Fore
256 791 m 1
 286 932 l 1
 438 932 l 1
 408 791 l 1
 256 791 l 1
211 -104 m 1
 194.333 -180.667 158 -231.333 102 -256 c 0
 82.6667 -264.667 48.3333 -270.667 -1 -274 c 2
 -69 -279 l 1
 -90 -276 l 1
 -65 -160 l 1
 -44 -162 l 2
 24.6667 -168.667 69 -125.667 89 -33 c 1
 244 698 l 1
 388 698 l 1
 211 -104 l 1
EndSplineSet
EndChar
StartChar: k
Encoding: 76 107
OldEncoding: 107
Width: 733
Flags: W
HStem: 0 21G<98 242 530 690> 678 20G<666 820> 920 20G<298 442>
DStem: 298 940 442 940 98 0 317 352 298 940 276 162 98 0 242 0 453 346 590 473 530 0 690 0 666 698 820 698 450 479 590 473
Fore
530 0 m 1
 453 346 l 1
 276 162 l 1
 242 0 l 1
 98 0 l 1
 298 940 l 1
 442 940 l 1
 317 352 l 1
 450 479 l 1
 666 698 l 1
 820 698 l 1
 590 473 l 1
 690 0 l 1
 530 0 l 1
EndSplineSet
EndChar
StartChar: l
Encoding: 77 108
OldEncoding: 108
Width: 340
Flags: W
HStem: 4 21G<97 241> 920 20G<296 440>
DStem: 296 940 440 940 97 4 241 4
Fore
97 4 m 1
 296 940 l 1
 440 940 l 1
 241 4 l 1
 97 4 l 1
EndSplineSet
EndChar
StartChar: m
Encoding: 78 109
OldEncoding: 109
Width: 1075
Flags: W
HStem: 0 21G<88 231 465 608 842 985> 580 118<488 566 856 945>
DStem: 236 698 302 334 88 0 231 0 563 461 679 334 465 0 608 0 945 483 1091 498 842 0 985 0
Fore
842 0 m 1
 945 483 l 2
 947 493 948 502 948 510 c 0
 948 555.333 917.333 578 856 578 c 0
 810 578 761.667 540.333 711 465 c 0
 705 456.333 699 437.333 693 408 c 1
 684 367 l 1
 679 334 l 1
 608 0 l 1
 465 0 l 1
 563 461 l 2
 566.333 477.667 568 492.333 568 505 c 0
 567.333 555 540.667 580 488 580 c 0
 436 580 387.667 542.333 343 467 c 1
 320 408 l 1
 302 334 l 1
 231 0 l 1
 88 0 l 1
 236 698 l 1
 371 698 l 1
 353 610 l 1
 353 600 l 1
 384.333 640.667 416.667 668 450 682 c 0
 475.333 692.667 514 698 566 698 c 0
 595.333 698 622.333 686 647 662 c 0
 671.667 638 685 611.333 687 582 c 1
 723 629.333 761.667 661.333 803 678 c 0
 836.333 691.333 883.667 698 945 698 c 0
 1005.67 698 1052.67 673 1086 623 c 0
 1093.33 613 1096.33 596.333 1095 573 c 1
 1091 498 l 1
 985 0 l 1
 842 0 l 1
EndSplineSet
EndChar
StartChar: n
Encoding: 79 110
OldEncoding: 110
Width: 709
Flags: W
HStem: 0 21G<90 233 475 618> 678 20G<238 379 558 592>
DStem: 238 698 309 356 90 0 233 0 566 426 709 430 475 0 618 0
Fore
475 0 m 1
 566 426 l 1
 571.333 452.667 574 475.333 574 494 c 0
 574 520.667 568.5 540.167 557.5 552.5 c 0
 546.5 564.833 526.667 571 498 571 c 0
 446.667 571 402 544 364 490 c 0
 349.333 469.333 337.333 447.333 328 424 c 1
 309 356 l 1
 233 0 l 1
 90 0 l 1
 238 698 l 1
 379 698 l 1
 357 592 l 1
 421 662.667 488 698 558 698 c 2
 592 698 l 2
 654 698 696.667 675 720 629 c 0
 730.667 607 733.333 579.667 728 547 c 2
 709 430 l 1
 618 0 l 1
 475 0 l 1
EndSplineSet
EndChar
StartChar: o
Encoding: 80 111
OldEncoding: 111
Width: 717
Flags: W
HStem: -3.99999 104<350 379>
VStem: 116 158<235 269> 586 161<427 461>
Fore
351 -4 m 0
 257 -4 190 32 150 104 c 0
 127.333 145.333 116 193.333 116 248 c 0
 116 279.333 119.667 312.667 127 348 c 0
 148.333 447.333 190.333 529.333 253 594 c 0
 322.333 666 405 702 501 702 c 0
 599.667 702 669.667 665.667 711 593 c 0
 735 551 747 502 747 446 c 0
 747 414 743 379.333 735 342 c 0
 714.333 246 670 165.333 602 100 c 0
 529.333 30.6667 445.667 -4 351 -4 c 0
580 514 m 1
 580 538 568.667 557.333 546 572 c 0
 526 585.333 503.333 592 478 592 c 0
 384 592 321.333 518.333 290 371 c 0
 279.333 321 274 278 274 242 c 0
 273.333 147.333 308.333 100 379 100 c 0
 476.333 100 542 180 576 340 c 0
 582.667 370.667 586 402.667 586 436 c 0
 586 461.333 584 487.333 580 514 c 1
EndSplineSet
EndChar
StartChar: p
Encoding: 81 112
OldEncoding: 112
Width: 717
Flags: W
HStem: -240 21G<21 164> -6 106<356 374> 578 127<475 568> 678 20G<220 351>
DStem: 220 698 226 51 21 -240 164 -240
Fore
396 -6 m 2
 359 -6 l 2
 293.667 -6 255.333 13.6667 244 53 c 1
 226 51 l 1
 164 -240 l 1
 21 -240 l 1
 220 698 l 1
 351 698 l 1
 335 623 l 1
 326 586 l 1
 384.667 665.333 465.333 705 568 705 c 0
 650 705 704.333 663.333 731 580 c 0
 753 513.333 754.333 434.667 735 344 c 0
 716.333 255.333 678.667 177.667 622 111 c 0
 555.333 33 480 -6 396 -6 c 2
475 578 m 0
 426.333 578 384.667 554 350 506 c 1
 316 446 l 1
 298 389 l 1
 282 317 l 1
 266 229 l 1
 265.333 213.667 269.333 193.333 278 168 c 0
 293.333 122.667 323.667 100 369 100 c 0
 421 100 468.333 128.667 511 186 c 0
 545.667 233.333 569 285.333 581 342 c 0
 593 399.333 592 450 578 494 c 0
 560.667 550 526.333 578 475 578 c 0
EndSplineSet
MinimumDistance: x3,-1 
EndChar
StartChar: q
Encoding: 82 113
OldEncoding: 113
Width: 709
Flags: W
HStem: -240 21G<449 592> 582 116<466 502>
VStem: 107 149<223 257>
DStem: 513 61 791 696 449 -240 592 -240
Fore
592 -240 m 1
 449 -240 l 1
 513 61 l 1
 487.667 33.6667 455.333 14 416 2 c 1
 323 -6 l 2
 236.333 -13.3333 174 24 136 106 c 0
 116.667 146.667 107 192.333 107 243 c 0
 107 275.667 111 310 119 346 c 0
 139 442.667 177 523 233 587 c 0
 297.667 661 375.667 698 467 698 c 0
 519.667 698 556.333 693.333 577 684 c 0
 605.667 671.333 626.333 645.333 639 606 c 1
 658 698 l 1
 684 700 l 1
 791 696 l 1
 592 -240 l 1
591 410 m 2
 600.333 454 598 492 584 524 c 0
 567.333 562.667 537 582 493 582 c 0
 437 582 387.333 554.667 344 500 c 0
 308.667 454.667 285 403.333 273 346 c 1
 263 303 l 1
 258.333 278.333 256 256 256 236 c 0
 256 187.333 271 151 301 127 c 1
 325.667 113 350.333 106 375 106 c 0
 419.667 106 461.333 127.333 500 170 c 0
 534.667 208.667 557.333 251.667 568 299 c 1
 591 410 l 2
EndSplineSet
EndChar
StartChar: r
Encoding: 83 114
OldEncoding: 114
Width: 463
Flags: W
HStem: 0 21G<66 207> 557 143<513 544>
DStem: 215 700 279 340 66 0 207 0
Fore
336 608 m 1
 392.667 669.333 447.667 700 501 700 c 2
 575 700 l 1
 544 557 l 1
 514 557 492 555.667 478 553 c 1
 374 546.333 307.667 475.333 279 340 c 2
 207 0 l 1
 66 0 l 1
 215 700 l 1
 356 700 l 1
 336 608 l 1
EndSplineSet
MinimumDistance: x5,-1 
EndChar
StartChar: s
Encoding: 84 115
OldEncoding: 115
Width: 645
Flags: W
HStem: 586 121<431 467>
VStem: 85 133<161 208> 164 147<465 504> 552 136<501 540>
Fore
482 16 m 0
 436 -4 392.333 -14 351 -14 c 0
 269 -14 208.333 -4.66667 169 14 c 0
 113 40 85 89 85 161 c 0
 85 186.333 88.3333 214.667 95 246 c 1
 222 246 l 1
 219.333 232 218 219.333 218 208 c 0
 218 136 271.667 100 379 100 c 1
 459 108.667 505 141 517 197 c 0
 524.333 232.333 511 255.333 477 266 c 0
 404.333 288.667 332.333 318 261 354 c 0
 241 364 216.333 379 187 399 c 1
 171.667 415 164 437 164 465 c 0
 164 477 165.667 490.667 169 506 c 0
 183 574 219.667 625.667 279 661 c 0
 331 691.667 393.667 707 467 707 c 0
 613 707 686.667 651.333 688 540 c 0
 688 518 685 493.667 679 467 c 1
 548 467 l 1
 550.667 479.667 552 491 552 501 c 0
 551.333 557.667 511.333 586 432 586 c 0
 403.333 586 377.333 579.667 354 567 c 0
 325.333 551.667 311 530.667 311 504 c 0
 311 488 320.667 474.333 340 463 c 1
 507 401 l 2
 589 371 636.667 335 650 293 c 0
 658 268.333 659 241.667 653 213 c 0
 633.667 122.333 576.667 56.6667 482 16 c 0
EndSplineSet
EndChar
StartChar: t
Encoding: 85 116
OldEncoding: 116
Width: 498
Flags: W
HStem: 582 114<178 263 431 550> 698 21G<431 578> 914 20G<346 482>
DStem: 263 582 407 582 189 233 339 264 346 934 482 934 293 696 431 698
Fore
445 14 m 1
 382 6 l 1
 341 4 l 2
 232.333 -1.33333 176 37 172 119 c 1
 189 233 l 1
 263 582 l 1
 155 582 l 1
 179 696 l 1
 293 696 l 1
 346 934 l 1
 482 934 l 1
 431 698 l 1
 578 698 l 1
 550 582 l 1
 407 582 l 1
 339 264 l 2
 327.667 211.333 324.333 176.667 329 160 c 0
 336.333 132.667 362 119 406 119 c 1
 429 121 l 1
 462 123 l 1
 434 -8 l 1
 457 18 l 1
 445 14 l 1
EndSplineSet
MinimumDistance: x10,-1 
EndChar
StartChar: u
Encoding: 86 117
OldEncoding: 117
Width: 709
Flags: W
HStem: -2 21G<483 612> 676 20G<244 388 617 760>
DStem: 244 696 388 696 144 225 296 262 617 696 760 696 539 330 612 -2
Fore
483 -2 m 1
 503 92 l 1
 475 92 l 1
 422.333 30.6667 352.667 1.73472e-18 266 0 c 0
 199.333 0 158.667 23.3333 144 70 c 0
 136.667 92.6667 132 116.333 130 141 c 1
 144 225 l 1
 244 696 l 1
 388 696 l 1
 296 262 l 2
 292 242.667 290 225.333 290 210 c 0
 290 158.667 315.333 133 366 133 c 0
 392.667 133 418.667 141.333 444 158 c 0
 462.667 170.667 483 193 505 225 c 1
 525 272 l 1
 539 330 l 1
 617 696 l 1
 760 696 l 1
 612 -2 l 1
 483 -2 l 1
EndSplineSet
EndChar
StartChar: v
Encoding: 87 118
OldEncoding: 118
Width: 627
Flags: W
HStem: 0 21G<248 395> 678 20G<185 338 607 754>
DStem: 185 698 338 698 248 0 380 227
Fore
395 0 m 1
 248 0 l 1
 185 698 l 1
 338 698 l 1
 380 227 l 1
 607 698 l 1
 754 698 l 1
 395 0 l 1
EndSplineSet
MinimumDistance: x4,-1 
EndChar
StartChar: w
Encoding: 88 119
OldEncoding: 119
Width: 971
Flags: W
HStem: 2 21G<612 748> 678 20G<951 1082> 680 20G<184 337> 698 21G<652 713>
DStem: 567 700 591 500 356 219 369 2 602 500 713 698 612 2 729 219
Fore
748 2 m 1
 612 2 l 1
 602 500 l 1
 591 500 l 1
 369 2 l 1
 224 4 l 1
 184 700 l 1
 337 700 l 1
 347 217 l 1
 356 219 l 1
 567 700 l 1
 652 698 l 1
 713 698 l 1
 729 219 l 1
 734 217 l 1
 951 698 l 1
 1082 698 l 1
 748 2 l 1
EndSplineSet
MinimumDistance: x13,-1 
EndChar
StartChar: x
Encoding: 89 120
OldEncoding: 120
Width: 709
Flags: W
HStem: 0 21G<66 217 471 637> 678 20G<234 400 611 754>
Fore
471 0 m 1
 398 246 l 1
 217 0 l 1
 66 0 l 1
 349 360 l 1
 295 530 l 1
 234 698 l 1
 400 698 l 1
 458 481 l 1
 611 698 l 1
 754 698 l 1
 508 375 l 1
 637 0 l 1
 471 0 l 1
EndSplineSet
EndChar
StartChar: y
Encoding: 90 121
OldEncoding: 121
Width: 629
Flags: W
HStem: 678 20G<199 353 621 748>
Fore
358 -70 m 2
 328 -129.333 291 -175.667 247 -209 c 0
 211.667 -235.667 159.667 -251.333 91 -256 c 2
 1 -262 l 1
 32 -125 l 1
 59 -127 l 1
 82 -127 l 2
 130.667 -127 169.667 -114.333 199 -89 c 0
 221.667 -69 245.333 -33.3333 270 18 c 1
 199 698 l 1
 353 698 l 1
 381 201 l 1
 621 698 l 1
 748 698 l 1
 358 -70 l 2
EndSplineSet
EndChar
StartChar: z
Encoding: 91 122
OldEncoding: 122
Width: 551
Flags: W
HStem: 0 117<197 506> 586 112<202 473>
Fore
31 0 m 1
 60 137 l 1
 473 586 l 1
 180 586 l 1
 203 698 l 1
 640 698 l 1
 618 594 l 1
 197 117 l 1
 531 117 l 1
 506 0 l 1
 31 0 l 1
EndSplineSet
EndChar
StartChar: braceleft
Encoding: 92 123
OldEncoding: 123
Width: 498
Flags: W
HStem: -244 76<333 356> 862 76<557 591>
VStem: 246 103<246 257>
DStem: 243 215 344 213 178 -90 284 -72 364 784 462 766 299 479 402 483
Fore
270 -244 m 2
 234.667 -244 208 -226.333 190 -191 c 0
 174.667 -159 170.667 -125.333 178 -90 c 2
 243 215 l 1
 245 227 246 238 246 248 c 0
 246 295.333 216.667 319 158 319 c 1
 173 389 l 1
 244.333 389 286.333 419 299 479 c 2
 364 784 l 2
 372 822 388 853.667 412 879 c 0
 449.333 918.333 485.667 938 521 938 c 2
 607 938 l 1
 591 862 l 1
 568 862 l 2
 510.667 862 475.333 830 462 766 c 2
 402 483 l 1
 388 419 338 379.667 252 365 c 1
 246 340 l 1
 314.667 340 349 311.333 349 254 c 0
 349 242 347.333 228.333 344 213 c 2
 284 -72 l 1
 277.333 -100.667 276.333 -121 281 -133 c 0
 289 -156.333 311.667 -168 349 -168 c 2
 372 -168 l 1
 356 -244 l 1
 270 -244 l 2
EndSplineSet
MinimumDistance: x14,-1 
EndChar
StartChar: bar
Encoding: 93 124
OldEncoding: 124
Width: 393
Flags: W
HStem: 4 21G<144 251> 920 20G<343 450>
DStem: 343 940 450 940 144 4 251 4
Fore
144 4 m 1
 343 940 l 1
 450 940 l 1
 251 4 l 1
 144 4 l 1
EndSplineSet
EndChar
StartChar: braceright
Encoding: 94 125
OldEncoding: 125
Width: 498
Flags: W
HStem: -248 21G<37 123> 914 20G<289 375>
VStem: 297 103<447 458>
DStem: 243 209 346 211 183 -76 281 -94 361 762 467 780 301 479 402 475
Fore
346 211 m 2
 281 -94 l 2
 273 -130.667 256.667 -162 232 -188 c 0
 194 -228 157.667 -248 123 -248 c 2
 37 -248 l 1
 53 -172 l 1
 78 -172 l 2
 134 -172 169 -140 183 -76 c 1
 243 209 l 1
 261 292.333 310 334 390 334 c 1
 396 362 l 1
 330 362 297 391 297 449 c 0
 297 458.333 298.333 468.333 301 479 c 1
 361 762 l 2
 367 790.667 367.667 811 363 823 c 0
 354.333 846.333 332.333 858 297 858 c 2
 272 858 l 1
 289 934 l 1
 375 934 l 2
 410.333 934 437 916.333 455 881 c 0
 470.333 849 474.333 815.333 467 780 c 2
 402 475 l 2
 400.667 468.333 400 462 400 456 c 0
 400 435.333 408 417.667 424 403 c 1
 440.667 391 462.667 385 490 385 c 1
 475 315 l 1
 403.667 315 360.667 280.333 346 211 c 2
EndSplineSet
MinimumDistance: x20,-1 
EndChar
StartChar: asciitilde
Encoding: 95 126
OldEncoding: 126
Width: 786
Flags: W
Fore
530 324 m 2
 424 397 l 2
 382.667 425.667 349.667 440 325 440 c 0
 293.667 440 273.333 421.667 264 385 c 2
 252 338 l 1
 133 338 l 1
 147.667 408 180.667 469.333 232 522 c 0
 261.333 552 295.333 567 334 567 c 0
 382 567 435.667 544 495 498 c 2
 567 442 l 2
 595 420 621.333 408.667 646 408 c 0
 678 406.667 702.333 444.667 719 522 c 1
 834 522 l 1
 823.333 470.667 804.667 425 778 385 c 0
 737.333 323.667 686.333 293 625 293 c 0
 591.667 293 560 303.333 530 324 c 2
EndSplineSet
EndChar
StartChar: exclamdown
Encoding: 96 161
OldEncoding: 161
Width: 445
Flags: W
HStem: -266 21G<70 269> 673 20G<282 466>
DStem: 118 -41 317 -41 70 -266 269 -266 282 693 466 693 243 510 427 510
Fore
466 693 m 1
 427 510 l 1
 243 510 l 1
 282 693 l 1
 466 693 l 1
372 443 m 1
 317 -41 l 1
 269 -266 l 1
 70 -266 l 1
 118 -41 l 1
 269 443 l 1
 372 443 l 1
EndSplineSet
EndChar
StartChar: cent
Encoding: 97 162
OldEncoding: 162
Width: 744
Flags: W
VStem: 116 192<237 266>
DStem: 244 10 321 -11 116 -241 190 -263 529 564 599 530 330 176 396 136 728 951 803 928 602 705 679 686
Fore
599 530 m 1
 396 136 l 1
 424 134 l 2
 492.667 129.333 546.667 173.333 586 266 c 1
 759 235 l 1
 685.667 67.6667 561.333 -16 386 -16 c 0
 366.667 -16 345 -14.3333 321 -11 c 1
 190 -263 l 1
 116 -241 l 1
 244 10 l 1
 158.667 54.6667 116 130.667 116 238 c 0
 116 272 120.333 309 129 349 c 0
 180.333 589 330 709 578 709 c 1
 588.667 707 596.667 705.667 602 705 c 1
 728 951 l 1
 803 928 l 1
 679 686 l 1
 755 654 796.667 588 804 488 c 1
 616 456 l 1
 617.333 486 611.667 510.667 599 530 c 1
529 564 m 1
 514 565 l 2
 414.667 571.667 349.667 502.667 319 358 c 0
 311.667 323.333 308 292.667 308 266 c 0
 308 228 315.333 198 330 176 c 1
 529 564 l 1
EndSplineSet
EndChar
StartChar: sterling
Encoding: 98 163
OldEncoding: 163
Width: 744
Flags: W
HStem: -15 165<538 561> 406 144<124 228 411 585> 827 147<559 596>
VStem: 224 181<607 641>
Fore
692 186 m 1
 730 31 l 1
 660.667 0.333333 597.333 -15 540 -15 c 0
 505.333 -15 456 -5.83333 392 12.5 c 0
 328 30.8333 280.667 40 250 40 c 0
 196.667 40 138.333 21.3333 75 -16 c 1
 38 142 l 1
 152 212.667 214.333 288 225 368 c 2
 230 406 l 1
 94 406 l 1
 125 550 l 1
 228 550 l 1
 225.333 570 224 590 224 610 c 0
 224 642 227.333 674 234 706 c 0
 251.333 786.667 295.667 852 367 902 c 0
 435 950 511.333 974 596 974 c 0
 770 974 851.333 890 840 722 c 1
 658 696 l 1
 662.667 783.333 629.667 827 559 827 c 0
 523.667 827 492.167 815.333 464.5 792 c 0
 436.833 768.667 419.333 739.667 412 705 c 0
 407.333 682.333 405 658 405 632 c 0
 405 606 407.333 578.667 412 550 c 1
 615 550 l 1
 584 406 l 1
 411 406 l 1
 406 377 l 2
 395.333 317 347.333 247 262 167 c 1
 294 181 325.333 187 356 185 c 2
 397 182 l 2
 401.667 181.333 418.333 177.333 447 170 c 0
 497.667 156.667 532.333 150 551 150 c 0
 585.667 150 632.667 162 692 186 c 1
EndSplineSet
MinimumDistance: x21,-1 
EndChar
StartChar: currency
Encoding: 99 164
OldEncoding: 164
Width: 744
Flags: W
HStem: 186 157<410 443> 607 158<499 532>
VStem: 175 160<416 443> 606 160<504 535>
Fore
247 614 m 1
 178 700 l 1
 311 816 l 1
 382 727 l 1
 429.333 752.333 479.333 765 532 765 c 0
 584 765 629 752.333 667 727 c 1
 772 815 l 1
 859 705 l 1
 753 618 l 1
 761.667 591.333 766 563.667 766 535 c 0
 766 462.333 741.667 395 693 333 c 1
 762 246 l 1
 630 135 l 1
 559 223 l 1
 505 198.333 455.333 186 410 186 c 0
 357.333 186 312.667 198.333 276 223 c 1
 173 137 l 1
 86 247 l 1
 189 333 l 1
 179.667 360.333 175 388.333 175 417 c 0
 175 490.333 199 556 247 614 c 1
335 443 m 0
 335 416.333 343.667 394.667 361 378 c 0
 384.333 354.667 411.667 343 443 343 c 0
 489.667 343 531 363.667 567 405 c 0
 593 433.667 606 467 606 505 c 0
 606 535 595.833 559.5 575.5 578.5 c 0
 555.167 597.5 529.667 607 499 607 c 0
 457 607 421.667 593 393 565 c 0
 354.333 528.333 335 487.667 335 443 c 0
EndSplineSet
EndChar
StartChar: yen
Encoding: 100 165
OldEncoding: 165
Width: 744
Flags: W
HStem: 0 21G<276 459> 178 145<101 314 528 743> 401 144<148 320 648 790> 937 20G<204 405 739 940>
DStem: 204 957 405 957 320 545 476 679 314 178 497 178 276 0 459 0 739 957 940 957 547 679 648 545
Fore
314 178 m 1
 71 178 l 1
 102 323 l 1
 345 323 l 1
 361 401 l 1
 118 401 l 1
 149 545 l 1
 320 545 l 1
 204 957 l 1
 405 957 l 1
 476 679 l 1
 485.333 643.667 491 613 493 587 c 1
 505 613 523 643.667 547 679 c 2
 739 957 l 1
 940 957 l 1
 648 545 l 1
 821 545 l 1
 790 401 l 1
 544 401 l 1
 528 323 l 1
 774 323 l 1
 743 178 l 1
 497 178 l 1
 459 0 l 1
 276 0 l 1
 314 178 l 1
EndSplineSet
EndChar
StartChar: brokenbar
Encoding: 101 166
OldEncoding: 166
Width: 374
Flags: W
DStem: 165 235 311 235 55 -281 201 -281 322 974 468 974 212 458 358 458
Fore
212 458 m 1
 322 974 l 1
 468 974 l 1
 358 458 l 1
 212 458 l 1
55 -281 m 1
 165 235 l 1
 311 235 l 1
 201 -281 l 1
 55 -281 l 1
EndSplineSet
EndChar
StartChar: section
Encoding: 102 167
OldEncoding: 167
Width: 744
Flags: W
HStem: -281 140<316 352>
VStem: 252 189<729 758> 464 187<-48 -12>
Fore
804 754 m 1
 620 735 l 1
 622.667 746.333 624 757 624 767 c 0
 624 811.667 596.333 834 541 834 c 0
 474.333 834 441 808.667 441 758 c 0
 441 742.667 446 728.667 456 716 c 0
 472.667 696 511.667 663.667 573 619 c 0
 659 555.667 715 504.333 741 465 c 0
 760.333 435 770 402 770 366 c 0
 770 350 768 333.667 764 317 c 0
 747.333 237 693.667 168.667 603 112 c 1
 635 74 651 32.6667 651 -12 c 0
 651 -26 649.667 -40 647 -54 c 0
 631 -126.667 590 -183.667 524 -225 c 0
 464.667 -262.333 395.667 -281 317 -281 c 0
 149.667 -281 65.6667 -212.333 65 -75 c 0
 64.3333 -65 64.6667 -54.6667 66 -44 c 1
 249 -23 l 1
 248.333 -101.667 282.667 -141 352 -141 c 0
 414.667 -141 451.333 -115.333 462 -64 c 0
 463.333 -58.6667 464 -53.3333 464 -48 c 0
 464 -30 456.667 -14.3333 442 -1 c 0
 418.667 21 371.667 58 301 110 c 0
 214.333 174 161 226.667 141 268 c 0
 127 295.333 120 325 120 357 c 0
 120 373.667 122 390.667 126 408 c 0
 146 502.667 200.667 572.333 290 617 c 1
 264.667 655 252 692.333 252 729 c 0
 252 799.667 287 861 357 913 c 0
 411.667 953.667 480.333 974 563 974 c 0
 729.667 974 810 900.667 804 754 c 1
521 191 m 1
 573 230.333 599 265.667 599 297 c 0
 599 325.667 574.333 361.333 525 404 c 2
 374 533 l 1
 322.667 502.333 297 466 297 424 c 0
 297 388 318.333 353 361 319 c 2
 521 191 l 1
EndSplineSet
MinimumDistance: x11,-1 
EndChar
StartChar: dieresis
Encoding: 103 168
OldEncoding: 168
Width: 445
Flags: W
HStem: 816 158<209 334 490 615>
DStem: 210 974 368 974 176 816 334 816 491 974 649 974 457 816 615 816
Fore
176 816 m 1
 210 974 l 1
 368 974 l 1
 334 816 l 1
 176 816 l 1
457 816 m 1
 491 974 l 1
 649 974 l 1
 615 816 l 1
 457 816 l 1
EndSplineSet
EndChar
StartChar: copyright
Encoding: 104 169
OldEncoding: 169
Width: 985
Flags: W
HStem: -24 99<482 516> 197 94<542 564> 878 99<674 708>
VStem: 83 101<365 393> 339 117<384 409> 1007 102<564 591>
Fore
702 977 m 0
 838.667 977 946 929 1024 833 c 0
 1080.67 763.667 1109 682.333 1109 589 c 0
 1109 553.667 1104.67 516.333 1096 477 c 0
 1066.67 339 993.167 221 875.5 123 c 0
 757.833 25 629 -24 489 -24 c 0
 353 -24 246 24.6667 168 122 c 0
 111.333 192.667 83 274.333 83 367 c 0
 83 401.667 87 438.333 95 477 c 0
 125 616.333 198.333 734.5 315 831.5 c 0
 431.667 928.5 560.667 977 702 977 c 0
681 878 m 0
 567.667 878 464.167 839 370.5 761 c 0
 276.833 683 218 588.333 194 477 c 0
 187.333 445.667 184 415.667 184 387 c 0
 184 313 206.667 248 252 192 c 0
 314.667 114 400.667 75 510 75 c 0
 622 75 725.333 114.5 820 193.5 c 0
 914.667 272.5 973.667 367 997 477 c 0
 1003.67 508.333 1007 538 1007 566 c 0
 1007 640 984.667 705.333 940 762 c 0
 878 839.333 791.667 878 681 878 c 0
701 402 m 1
 799 367 l 1
 740.333 253.667 655.333 197 544 197 c 0
 478 197 424 218.667 382 262 c 0
 353.333 291.333 339 332.667 339 386 c 0
 339 411.333 342.333 440 349 472 c 0
 367 555.333 402.333 622.333 455 673 c 0
 511.667 727 581 754 663 754 c 0
 771 754 832.333 701 847 595 c 1
 736 570 l 1
 726 630.667 693.667 661 639 661 c 0
 549 661 491 599.333 465 476 c 0
 459 446.667 456 421 456 399 c 0
 456 327 488 291 552 291 c 0
 613.333 291 663 328 701 402 c 1
EndSplineSet
EndChar
StartChar: ordfeminine
Encoding: 105 170
OldEncoding: 170
Width: 495
Flags: W
VStem: 152 140<584 621>
Fore
340 818 m 1
 221 842 l 1
 259 930 334.333 974 447 974 c 0
 531.667 974 584 961 604 935 c 0
 614.667 919.667 620 897.333 620 868 c 0
 620 846 617 819.667 611 789 c 1
 578 633 l 1
 562 560.333 558.667 515 568 497 c 1
 444 497 l 1
 440.667 508.333 438.667 523.667 438 543 c 1
 391.333 504.333 340.333 485 285 485 c 0
 197 485 152.667 518 152 584 c 0
 152 596.667 153.667 610.667 157 626 c 0
 168.333 678 198 716 246 740 c 0
 271.333 752 320.667 765.333 394 780 c 0
 430.667 787.333 459.333 794.667 480 802 c 1
 482 816 l 2
 487.333 852.667 469.333 871 428 871 c 0
 388 871 358.667 853.333 340 818 c 1
462 715 m 1
 440.667 707 422.667 701.667 408 699 c 0
 338 685.667 300 664.667 294 636 c 0
 292.667 630.667 292 625.667 292 621 c 0
 292 595.667 310.333 583 347 583 c 0
 405 583 441.333 618.333 456 689 c 1
 462 715 l 1
EndSplineSet
MinimumDistance: x21,-1 
EndChar
StartChar: guillemotleft
Encoding: 106 171
OldEncoding: 171
Width: 744
Flags: W
Fore
549 642 m 1
 318 347 l 1
 423 46 l 1
 279 46 l 1
 137 347 l 1
 405 642 l 1
 549 642 l 1
805 642 m 1
 574 347 l 1
 679 46 l 1
 535 46 l 1
 393 347 l 1
 661 642 l 1
 805 642 l 1
EndSplineSet
EndChar
StartChar: logicalnot
Encoding: 107 172
OldEncoding: 172
Width: 781
Flags: W
HStem: 534 167<204 671>
DStem: 671 534 874 701 609 246 777 246
Fore
609 246 m 1
 671 534 l 1
 170 534 l 1
 205 701 l 1
 874 701 l 1
 777 246 l 1
 609 246 l 1
EndSplineSet
EndChar
StartChar: minus
Encoding: 108 173
OldEncoding: 173
Width: 445
Flags: W
HStem: 255 184<134 457>
Fore
96 255 m 1
 135 439 l 1
 496 439 l 1
 457 255 l 1
 96 255 l 1
EndSplineSet
EndChar
StartChar: registered
Encoding: 109 174
OldEncoding: 174
Width: 985
Flags: W
HStem: -24 98<482 517> 879 98<674 712>
VStem: 83 102<365 394> 710 118<599 624> 1008 101<564 592>
DStem: 425 740 515 656 312 209 485 511 425 740 467 427 312 209 420 209
Fore
702 977 m 0
 838.667 977 946 929.333 1024 834 c 0
 1080.67 765.333 1109 684.333 1109 591 c 0
 1109 555 1104.67 517 1096 477 c 0
 1066.67 339 993.167 221 875.5 123 c 0
 757.833 25 629 -24 489 -24 c 0
 353 -24 246 24.6667 168 122 c 0
 111.333 192.667 83 274.333 83 367 c 0
 83 401.667 87 438.333 95 477 c 0
 125 616.333 198.167 734.5 314.5 831.5 c 0
 430.833 928.5 560 977 702 977 c 0
682 879 m 0
 569.333 879 465.833 839.667 371.5 761 c 0
 277.167 682.333 218 587.667 194 477 c 0
 188 447.667 185 419.333 185 392 c 0
 184.333 318 206.333 252 251 194 c 0
 312.333 114 399 74 511 74 c 0
 624.333 74 728 113.333 822 192 c 0
 916 270.667 974.667 365.667 998 477 c 0
 1004.67 507.667 1008 537.333 1008 566 c 0
 1008 638.667 986.333 703.667 943 761 c 0
 883 839.667 796 879 682 879 c 0
312 209 m 1
 425 740 l 1
 703 739 l 2
 786.333 738.333 828 700 828 624 c 0
 828 613.333 826.667 602 824 590 c 0
 806.667 507.333 748.667 457.667 650 441 c 1
 671.333 435 691.333 415 710 381 c 1
 735 316 l 1
 775 209 l 1
 641 209 l 1
 616 295 l 2
 602.667 339.667 590 370 578 386 c 0
 558.667 413.333 531 427 495 427 c 2
 467 427 l 1
 420 209 l 1
 312 209 l 1
485 511 m 1
 529 511 l 2
 585 511 621 512.667 637 516 c 0
 677 525.333 700.667 548 708 584 c 0
 709.333 589.333 710 594.333 710 599 c 0
 710 607.667 707.667 615.667 703 623 c 1
 699.667 645 651.667 656 559 656 c 2
 515 656 l 1
 485 511 l 1
EndSplineSet
EndChar
StartChar: macron
Encoding: 110 175
OldEncoding: 175
Width: 739
Flags: W
HStem: 1013 120<228 965>
Fore
203 1013 m 1
 229 1133 l 1
 991 1133 l 1
 965 1013 l 1
 203 1013 l 1
EndSplineSet
EndChar
StartChar: degree
Encoding: 111 176
OldEncoding: 176
Width: 535
Flags: W
HStem: 557 108<381 405>
VStem: 213 112<713 743> 529 112<786 811>
Fore
219 765 m 0
 231 822.333 261.333 871.5 310 912.5 c 0
 358.667 953.5 412.333 974 471 974 c 0
 550.333 974 603.333 939.667 630 871 c 0
 637.333 852.333 641 832.333 641 811 c 0
 641 743.667 611 681.333 551 624 c 0
 504.333 579.333 448 557 382 557 c 0
 332 557 288.667 575.333 252 612 c 0
 226 638 213 672 213 714 c 0
 213 730 215 747 219 765 c 0
325 743 m 0
 325 691 351.667 665 405 665 c 0
 437 665 465.667 677.333 491 702 c 0
 516.333 726.667 529 755 529 787 c 0
 529 839 502 865 448 865 c 0
 425.333 865 401.333 856.333 376 839 c 0
 342 815 325 783 325 743 c 0
EndSplineSet
EndChar
StartChar: plusminus
Encoding: 112 177
OldEncoding: 177
Width: 734
Flags: W
HStem: 0 172<69 702> 481 172<171 385 590 804>
DStem: 385 481 553 481 332 232 500 232 475 902 643 902 422 653 590 653
Fore
332 232 m 1
 385 481 l 1
 135 481 l 1
 172 653 l 1
 422 653 l 1
 475 902 l 1
 643 902 l 1
 590 653 l 1
 841 653 l 1
 804 481 l 1
 553 481 l 1
 500 232 l 1
 332 232 l 1
33 0 m 1
 70 172 l 1
 739 172 l 1
 702 0 l 1
 33 0 l 1
EndSplineSet
MinimumDistance: x6,-1 
EndChar
StartChar: twosuperior
Encoding: 113 178
OldEncoding: 178
Width: 445
Flags: W
HStem: 475 103<331 514>
Fore
536 578 m 1
 514 475 l 1
 117 475 l 1
 136.333 540.333 206.333 613.667 327 695 c 0
 412.333 752.333 458 795 464 823 c 0
 465.333 828.333 466 833 466 837 c 0
 466 863 447 876 409 876 c 0
 368.333 876 339.667 851 323 801 c 1
 201 811 l 1
 234.333 916.333 311.333 969 432 969 c 0
 538.667 969 592 931 592 855 c 0
 592 813 574.333 773.333 539 736 c 0
 519.667 715.333 471.333 677.667 394 623 c 2
 331 578 l 1
 536 578 l 1
EndSplineSet
EndChar
StartChar: threesuperior
Encoding: 114 179
OldEncoding: 179
Width: 445
Flags: W
HStem: 467 93<317 341> 695 86<345 372>
VStem: 427 128<642 660>
Fore
157 618 m 1
 280 631 l 1
 277.333 583.667 297 560 339 560 c 0
 386.333 560 415 583.667 425 631 c 0
 426.333 638.333 427 645 427 651 c 0
 427 680.333 408.667 695 372 695 c 0
 358.667 695 338.333 692 311 686 c 1
 346 781 l 1
 404.667 781 437.667 798.333 445 833 c 0
 445.667 837 446 841 446 845 c 0
 446 865.667 430.667 876 400 876 c 0
 362.667 876 337 854.667 323 812 c 1
 209 829 l 1
 249 922.333 320.333 969 423 969 c 0
 482.333 969 523.333 954.333 546 925 c 0
 564 902.333 573 879.333 573 856 c 0
 573 810 544.667 772 488 742 c 1
 532.667 722 555 692 555 652 c 0
 555 606.667 529.667 562.667 479 520 c 0
 437.667 484.667 384 467 318 467 c 0
 206.667 467 153 517.333 157 618 c 1
EndSplineSet
EndChar
StartChar: acute
Encoding: 115 180
OldEncoding: 180
Width: 445
Flags: W
Fore
287 778 m 1
 419 974 l 1
 625 974 l 1
 403 778 l 1
 287 778 l 1
EndSplineSet
EndChar
StartChar: mu
Encoding: 116 181
OldEncoding: 181
Width: 771
Flags: W
HStem: -266 21G<15 198> -17 148<388 413> 0 21G<532 703> 673 20G<219 402 665 850>
DStem: 219 693 402 693 15 -266 336 379 219 693 273 84 15 -266 198 -266 665 693 850 693 598 377 703 0
Fore
219 693 m 1
 402 693 l 1
 336 379 l 1
 325.333 331 320 290.333 320 257 c 0
 320 173 351 131 413 131 c 0
 501.667 131 563.333 213 598 377 c 2
 665 693 l 1
 850 693 l 1
 703 0 l 1
 532 0 l 1
 550 84 l 1
 500.667 16.6667 447 -17 389 -17 c 0
 331 -17 292.333 16.6667 273 84 c 1
 198 -266 l 1
 15 -266 l 1
 219 693 l 1
EndSplineSet
EndChar
StartChar: paragraph
Encoding: 117 182
OldEncoding: 182
Width: 744
Flags: W
HStem: -263 21G<200 359 453 607> 787 170<581 676 829 904>
DStem: 345 421 582 787 200 -263 359 -263 676 787 830 787 453 -263 607 -263
Fore
359 -263 m 1
 200 -263 l 1
 345 421 l 1
 275 421 219.667 444 179 490 c 0
 151 522 137 563.333 137 614 c 0
 137 636.667 139.667 661 145 687 c 0
 157 744.333 181.667 795.333 219 840 c 0
 257.667 887.333 304 919.333 358 936 c 0
 403.333 950 467.333 957 550 957 c 2
 940 957 l 1
 904 787 l 1
 830 787 l 1
 607 -263 l 1
 453 -263 l 1
 676 787 l 1
 582 787 l 1
 359 -263 l 1
EndSplineSet
EndChar
StartChar: periodcentered
Encoding: 118 183
OldEncoding: 183
Width: 372
Flags: W
DStem: 215 558 398 558 175 374 358 374
Fore
175 374 m 1
 215 558 l 1
 398 558 l 1
 358 374 l 1
 175 374 l 1
EndSplineSet
EndChar
StartChar: cedilla
Encoding: 119 184
OldEncoding: 184
Width: 445
Flags: W
HStem: -274 81<64 130> -77 69<157 212>
VStem: 229 128<-120 -100>
Fore
-31 -263 m 1
 -15 -186 l 1
 25.6667 -190.667 66.3333 -193 107 -193 c 0
 179 -193 219.333 -172.667 228 -132 c 0
 228.667 -127.333 229 -123 229 -119 c 0
 229 -91 205 -77 157 -77 c 0
 129 -77 99.6667 -81.3333 69 -90 c 1
 99 -25 l 1
 136.333 -13.6667 174 -8 212 -8 c 0
 308.667 -8 357 -38.6667 357 -100 c 0
 357 -109.333 355.667 -119.667 353 -131 c 0
 333 -226.333 246.667 -274 94 -274 c 0
 40 -274 -1.66667 -270.333 -31 -263 c 1
EndSplineSet
MinimumDistance: x9,-1 
EndChar
StartChar: onesuperior
Encoding: 120 185
OldEncoding: 185
Width: 445
Flags: W
DStem: 371 810 529 969 300 475 424 475
Fore
424 475 m 1
 300 475 l 1
 371 810 l 1
 326.333 782.667 275.333 761.333 218 746 c 1
 239 847 l 1
 331 874.333 394.333 915 429 969 c 1
 529 969 l 1
 424 475 l 1
EndSplineSet
EndChar
StartChar: ordmasculine
Encoding: 121 186
OldEncoding: 186
Width: 488
Flags: W
HStem: 483 111<346 373>
VStem: 164 139<654 676> 490 143<782 801>
Fore
172 728 m 0
 187.333 801.333 218.667 860 266 904 c 0
 316 950.667 377.667 974 451 974 c 0
 507 974 551.333 958.667 584 928 c 0
 616.667 897.333 633 854.333 633 799 c 0
 633 777 630.333 753.333 625 728 c 0
 590.333 564.667 497.667 483 347 483 c 0
 225 483 164 540.667 164 656 c 0
 164 678 166.667 702 172 728 c 0
310 727 m 0
 305.333 705 303 686 303 670 c 0
 303 619.333 324.667 594 368 594 c 0
 426 594 464.667 638.333 484 727 c 0
 488 748.333 490 767.333 490 784 c 0
 490 834 468.333 859 425 859 c 0
 367 859 328.667 815 310 727 c 0
EndSplineSet
EndChar
StartChar: guillemotright
Encoding: 122 187
OldEncoding: 187
Width: 744
Flags: W
Fore
335 46 m 1
 567 341 l 1
 461 642 l 1
 606 642 l 1
 748 341 l 1
 480 46 l 1
 335 46 l 1
79 46 m 1
 311 341 l 1
 205 642 l 1
 350 642 l 1
 492 341 l 1
 224 46 l 1
 79 46 l 1
EndSplineSet
EndChar
StartChar: onequarter
Encoding: 123 188
OldEncoding: 188
Width: 1115
Flags: W
HStem: 68 95<832 930 1067 1116>
DStem: 372 810 530 969 301 475 425 475 982 310 1131 467 951 163 1067 163 995 969 1099 969 215 -35 319 -35 1030 467 982 310 715 160 832 163
Fore
425 475 m 1
 301 475 l 1
 372 810 l 1
 325.333 782 274.333 760.667 219 746 c 1
 240 847 l 1
 333.333 875 396.333 915.667 429 969 c 1
 530 969 l 1
 425 475 l 1
319 -35 m 1
 215 -35 l 1
 995 969 l 1
 1099 969 l 1
 319 -35 l 1
910 -27 m 1
 930 68 l 1
 695 68 l 1
 715 160 l 1
 1030 467 l 1
 1131 467 l 1
 1067 163 l 1
 1137 163 l 1
 1116 68 l 1
 1046 68 l 1
 1026 -27 l 1
 910 -27 l 1
951 163 m 1
 982 310 l 1
 832 163 l 1
 951 163 l 1
EndSplineSet
EndChar
StartChar: onehalf
Encoding: 124 189
OldEncoding: 189
Width: 1115
Flags: W
HStem: -27 102<893 1075>
DStem: 372 810 530 969 301 475 425 475 995 969 1099 969 215 -35 319 -35
Fore
425 475 m 1
 301 475 l 1
 372 810 l 1
 325.333 782 274.333 760.667 219 746 c 1
 240 847 l 1
 333.333 875 396.333 915.667 429 969 c 1
 530 969 l 1
 425 475 l 1
319 -35 m 1
 215 -35 l 1
 995 969 l 1
 1099 969 l 1
 319 -35 l 1
1097 75 m 1
 1075 -27 l 1
 679 -27 l 1
 697 37 767 110.333 889 193 c 0
 973.667 250.333 1019 293 1025 321 c 0
 1026.33 325.667 1027 330.333 1027 335 c 0
 1027 361 1008 374 970 374 c 0
 929.333 374 901 348.667 885 298 c 1
 764 309 l 1
 799.333 414.333 876 467 994 467 c 0
 1059.33 467 1103.67 452 1127 422 c 0
 1144.33 398.667 1153 374.333 1153 349 c 0
 1153 310.333 1137.33 273.333 1106 238 c 0
 1084.67 214 1034.67 175 956 121 c 0
 928.667 103 907.667 87.6667 893 75 c 1
 1097 75 l 1
EndSplineSet
MinimumDistance: x10,-1 
EndChar
StartChar: threequarters
Encoding: 125 190
OldEncoding: 190
Width: 1115
Flags: W
HStem: 68 95<832 930 1067 1116> 467 93<317 342> 695 86<345 372>
VStem: 427 128<637.235 654>
DStem: 982 310 1131 467 951 163 1067 163 1011 969 1114 969 231 -35 335 -35 1029 467 982 310 714 160 832 163
Fore
157 618 m 1
 280 631 l 1
 277.333 583.667 297 560 339 560 c 0
 386.333 560 415 583.667 425 631 c 0
 426.333 638.333 427 645 427 651 c 0
 427 680.333 408.667 695 372 695 c 0
 358.667 695 338.333 692 311 686 c 1
 346 781 l 1
 404.667 781 437.667 798.333 445 833 c 0
 445.667 837 446 841 446 845 c 0
 446 865.667 430.667 876 400 876 c 0
 362.667 876 337 854.667 323 812 c 1
 209 829 l 1
 249 922.333 320.333 969 423 969 c 0
 482.333 969 523.333 954.333 546 925 c 0
 564 902.333 573 879.333 573 856 c 0
 573 810 544.667 772 488 742 c 1
 532.667 722 555 692 555 652 c 0
 555 606.667 529.667 562.667 479 520 c 0
 437.667 484.667 384 467 318 467 c 0
 206.667 467 153 517.333 157 618 c 1
335 -35 m 1
 231 -35 l 1
 1011 969 l 1
 1114 969 l 1
 335 -35 l 1
910 -27 m 1
 930 68 l 1
 694 68 l 1
 714 160 l 1
 1029 467 l 1
 1131 467 l 1
 1067 163 l 1
 1137 163 l 1
 1116 68 l 1
 1046 68 l 1
 1026 -27 l 1
 910 -27 l 1
951 163 m 1
 982 310 l 1
 832 163 l 1
 951 163 l 1
EndSplineSet
EndChar
StartChar: questiondown
Encoding: 126 191
OldEncoding: 191
Width: 817
Flags: W
HStem: -274 140<351 382> 673 20G<462 645>
VStem: 61 180<-45 -25>
DStem: 462 693 645 693 423 510 606 510
Fore
645 693 m 1
 606 510 l 1
 423 510 l 1
 462 693 l 1
 645 693 l 1
427 447 m 1
 593 447 l 1
 584 397 l 1
 569.333 310.333 505 227.333 391 148 c 0
 339 111.333 306.667 87.3333 294 76 c 0
 258.667 42.6667 241 8.33333 241 -27 c 0
 241 -98.3333 286 -134 376 -134 c 0
 472 -134 543.667 -80.3333 591 27 c 1
 755 6 l 1
 687 -180.667 553 -274 353 -274 c 0
 237.667 -274 157.667 -244.333 113 -185 c 0
 78.3333 -139 61 -92 61 -44 c 0
 61 14 83.3333 68.3333 128 119 c 0
 162 157.667 220.667 206 304 264 c 0
 348.667 295.333 377.5 320.667 390.5 340 c 0
 403.5 359.333 415.667 395 427 447 c 1
EndSplineSet
MinimumDistance: x0,-1 
EndChar
StartChar: AE
Encoding: 133 198
OldEncoding: 198
Width: 1337
Flags: W
HStem: 0 161<815 1273> 225 167<410 636> 421 161<905 1307> 795 162<949 1424>
DStem: 593 957 688 812 -56 0 410 392 593 957 304 225 -56 0 158 0 763 812 950 795 673 392 905 582
Fore
-56 0 m 1
 593 957 l 1
 1458 957 l 1
 1424 795 l 1
 950 795 l 1
 905 582 l 1
 1342 582 l 1
 1307 421 l 1
 870 421 l 1
 815 161 l 1
 1307 161 l 1
 1273 0 l 1
 588 0 l 1
 636 225 l 1
 304 225 l 1
 158 0 l 1
 -56 0 l 1
410 392 m 1
 673 392 l 1
 763 812 l 1
 688 812 l 1
 410 392 l 1
EndSplineSet
MinimumDistance: x4,-1 
EndChar
StartChar: Eth
Encoding: 143 208
OldEncoding: 208
Width: 966
Flags: W
HStem: 0 161<324 488> 418 121<112 186 405 584> 775 20G<459 546> 937 20G<300 653>
VStem: 819 200<607 640>
DStem: 186 418 379 418 97 0 324 161 300 957 459 795 212 539 405 539
Fore
300 957 m 1
 653 957 l 2
 745.667 957 815.333 947 862 927 c 0
 924.667 899.667 970 848.667 998 774 c 0
 1012 735.333 1019 690 1019 638 c 0
 1019 587.333 1012.33 530.333 999 467 c 0
 933 155.667 753.333 -1.38778e-17 460 0 c 2
 97 0 l 1
 186 418 l 1
 87 418 l 1
 113 539 l 1
 212 539 l 1
 300 957 l 1
459 795 m 1
 405 539 l 1
 610 539 l 1
 584 418 l 1
 379 418 l 1
 324 161 l 1
 469 161 l 2
 577.667 161 656 186.667 704 238 c 0
 744 280.667 776.333 359.333 801 474 c 0
 813 531.333 819 579.667 819 619 c 0
 819 643.667 816.667 664.667 812 682 c 0
 797.333 736 762 770.333 706 785 c 0
 680 791.667 626.667 795 546 795 c 2
 459 795 l 1
EndSplineSet
EndChar
StartChar: multiply
Encoding: 150 215
OldEncoding: 215
Width: 781
Flags: W
DStem: 213 669 361 791 370 471 517 593 370 471 463 353 130 274 224 155 463 353 610 474 620 153 767 275 756 790 850 671 517 593 610 474
Fore
130 274 m 1
 370 471 l 1
 213 669 l 1
 361 791 l 1
 517 593 l 1
 756 790 l 1
 850 671 l 1
 610 474 l 1
 767 275 l 1
 620 153 l 1
 463 353 l 1
 224 155 l 1
 130 274 l 1
EndSplineSet
EndChar
StartChar: Oslash
Encoding: 151 216
OldEncoding: 216
Width: 1040
Flags: W
HStem: -16 156<523 560>
VStem: 143 202<337 367> 902 201<585 620>
DStem: 186 153 254 65 47 27 123 -54 849 753 898 650 351 302 400 199 1125 1003 1199 923 998 887 1064 801
Fore
998 887 m 1
 1125 1003 l 1
 1199 923 l 1
 1064 801 l 1
 1090 748.333 1103 687.333 1103 618 c 0
 1103 573.333 1097.67 525 1087 473 c 0
 1055.67 327.667 991.333 211 894 123 c 0
 792 30.3333 668.667 -16 524 -16 c 0
 403.333 -16 313.333 11 254 65 c 1
 123 -54 l 1
 47 27 l 1
 186 153 l 1
 157.333 205.667 143 267.667 143 339 c 0
 143 383.667 148.667 432.333 160 485 c 0
 191.333 630.333 256 747.333 354 836 c 0
 456.667 928 581 974 727 974 c 0
 842.333 974 932.667 945 998 887 c 1
849 753 m 1
 812.333 790.333 760.667 809 694 809 c 0
 517.333 809 405.667 699.333 359 480 c 0
 349.667 436.667 345 398 345 364 c 0
 345 341.333 347 320.667 351 302 c 1
 849 753 l 1
898 650 m 1
 400 199 l 1
 437.333 159.667 487.333 140 550 140 c 0
 640 140 715.667 174.667 777 244 c 0
 830.333 303.333 867 380.667 887 476 c 0
 897 523.333 902 564.667 902 600 c 0
 902 618.667 900.667 635.333 898 650 c 1
EndSplineSet
EndChar
StartChar: Thorn
Encoding: 157 222
OldEncoding: 222
Width: 892
Flags: W
HStem: 0 21G<97 291> 937 20G<300 494>
VStem: 738 205<522 562>
DStem: 300 957 422 615 97 0 364 343
Fore
97 0 m 1
 300 957 l 1
 494 957 l 1
 456 777 l 1
 572 777 l 2
 676 777 739.667 775 763 771 c 0
 833.667 759 884.333 726.667 915 674 c 0
 933.667 642.667 943 605.333 943 562 c 0
 943 537.333 939.667 510.667 933 482 c 0
 904.333 345.333 829 254.667 707 210 c 0
 653.667 190 569.667 180 455 180 c 2
 329 180 l 1
 291 0 l 1
 97 0 l 1
422 615 m 1
 364 343 l 1
 469 343 l 2
 547 343 602 349 634 361 c 0
 687.333 380.333 720.333 420.333 733 481 c 0
 736.333 495.667 738 509.333 738 522 c 0
 738 551.333 729 572.667 711 586 c 0
 685 605.333 619.667 615 515 615 c 2
 422 615 l 1
EndSplineSet
EndChar
StartChar: germandbls
Encoding: 158 223
OldEncoding: 223
Width: 817
Flags: W
HStem: -16 147<534 556> 0 21G<91 274>
VStem: 618 193<781 816>
DStem: 223 622 406 622 91 0 274 0
Fore
91 0 m 1
 223 622 l 1
 248.333 740 284.667 825.333 332 878 c 0
 389.333 942 473.333 974 584 974 c 0
 735.333 974 811 921.333 811 816 c 0
 811 765.333 789 711.333 745 654 c 0
 715 615.333 695.667 589 687 575 c 1
 677 550 l 1
 675.667 545.333 675 540.667 675 536 c 0
 675 525.333 678 515 684 505 c 1
 683.333 502.333 703.333 474.333 744 421 c 0
 793.333 357.667 818 298.333 818 243 c 0
 818 169 783.333 104.333 714 49 c 0
 661.333 5.66667 601.667 -16 535 -16 c 0
 439.667 -16 377.667 25.3333 349 108 c 1
 493 183 l 1
 505 148.333 524 131 550 131 c 0
 592.667 131 618.667 153.667 628 199 c 0
 634 225.667 608 273.667 550 343 c 0
 498.667 404.333 473 454.667 473 494 c 0
 473 499.333 473.333 504.667 474 510 c 0
 480.667 538.667 507.333 585 554 649 c 0
 596.667 707.667 618 751.667 618 781 c 0
 618 813.667 595.667 830 551 830 c 0
 503.667 830 468 806 444 758 c 0
 433.333 736 420.667 690.667 406 622 c 2
 274 0 l 1
 91 0 l 1
EndSplineSet
MinimumDistance: x4,-1 
EndChar
StartChar: ae
Encoding: 165 230
OldEncoding: 230
Width: 1189
Flags: W
HStem: -16 130<290 367> 293 114<755 1032> 569 140<491 545 922 946>
VStem: 92 189<145 179> 1038 169<447 481>
Fore
985 221 m 1
 1157 189 l 1
 1077.67 52.3333 961.333 -16 808 -16 c 0
 707.333 -16 631.667 16 581 80 c 1
 487 16 390 -16 290 -16 c 0
 206.667 -16 150.667 5 122 47 c 0
 102 77 92 109.667 92 145 c 0
 92 159 93.6667 173.333 97 188 c 0
 113.667 267.333 159.667 325 235 361 c 0
 274.333 380.333 350.333 400.667 463 422 c 0
 506.333 430.667 545.667 440.333 581 451 c 1
 585 469 l 2
 587 479 588 488.333 588 497 c 0
 588.667 545 556.333 569 491 569 c 0
 424.333 569 376 540 346 482 c 1
 186 514 l 1
 254.667 644 374.333 709 545 709 c 0
 637 709 703 687.667 743 645 c 1
 804.333 687.667 872 709 946 709 c 0
 1120 709 1207 623 1207 451 c 0
 1207 404.333 1200.67 351.667 1188 293 c 1
 727 293 l 1
 726.333 281 726 269.667 726 259 c 0
 726 169 762.333 124 835 124 c 0
 898.333 124 948.333 156.333 985 221 c 1
1032 407 m 1
 1036 428.333 1038 447.333 1038 464 c 0
 1038 534 1000 569 924 569 c 0
 882 569 844.667 552 812 518 c 0
 782.667 488 763.667 451 755 407 c 1
 1032 407 l 1
554 332 m 1
 447.333 306 389.333 291 380 287 c 1
 324.667 271 293 243.667 285 205 c 0
 283 195.667 281.667 187 281 179 c 0
 281 135.667 309.667 114 367 114 c 0
 427 114 472 136.333 502 181 c 0
 521.333 210.333 538.667 260.667 554 332 c 1
EndSplineSet
EndChar
StartChar: eth
Encoding: 175 240
OldEncoding: 240
Width: 817
Flags: W
HStem: -16 149<403 437> 549 144<504 526> 937 20G<420 611>
VStem: 119 192<255 289> 656 199<402 472>
DStem: 538 842 576 790 382 775 396 712
Fore
420 957 m 1
 611 957 l 1
 670 899 l 1
 800 957 l 1
 817 893 l 1
 714 850 l 1
 808 727.333 855 601.333 855 472 c 0
 855 434 851 395.667 843 357 c 0
 819.667 247 769 158 691 90 c 0
 610.333 19.3333 514.667 -16 404 -16 c 0
 288 -16 208 21.6667 164 97 c 0
 134 148.333 119 204 119 264 c 0
 119 291.333 122 319.333 128 348 c 0
 147.333 438.667 191.667 517.667 261 585 c 0
 335 657 416.333 693 505 693 c 0
 553.667 693 599 678 641 648 c 1
 637 658 632.167 671 626.5 687 c 0
 620.833 703 604 737.333 576 790 c 1
 396 712 l 1
 382 775 l 1
 538 842 l 1
 504 881.333 464.667 919.667 420 957 c 1
320 346 m 0
 314 318.667 311 294.333 311 273 c 0
 311 179.667 353 133 437 133 c 0
 499.667 133 553 162.667 597 222 c 0
 636.333 276.667 656 336.667 656 402 c 0
 656 438 647.667 468.333 631 493 c 0
 605.667 530.333 570 549 524 549 c 0
 471.333 549 425.667 527.667 387 485 c 0
 353.667 447.667 331.333 401.333 320 346 c 0
EndSplineSet
EndChar
StartChar: divide
Encoding: 182 247
OldEncoding: 247
Width: 734
Flags: W
HStem: 387 171<150 783>
DStem: 340 304 523 304 301 121 484 121 450 824 633 824 411 641 594 641
Fore
411 641 m 1
 450 824 l 1
 633 824 l 1
 594 641 l 1
 411 641 l 1
114 387 m 1
 151 558 l 1
 820 558 l 1
 783 387 l 1
 114 387 l 1
301 121 m 1
 340 304 l 1
 523 304 l 1
 484 121 l 1
 301 121 l 1
EndSplineSet
MinimumDistance: x2,-1 
EndChar
StartChar: oslash
Encoding: 183 248
OldEncoding: 248
Width: 817
Flags: W
HStem: -16 143<409 440>
VStem: 121 184<253 274> 671 184<411 433>
DStem: 163 102 220 39 68 14 127 -48 629 534 667 454 307 236 349 158 841 731 902 671 757 652 813 590
Fore
757 652 m 1
 841 731 l 1
 902 671 l 1
 813 590 l 1
 841 544 855 492 855 434 c 0
 855 406 852 376.667 846 346 c 0
 823.333 241.333 771.333 154.833 690 86.5 c 0
 608.667 18.1667 515.333 -16 410 -16 c 0
 337.333 -16 274 2.33333 220 39 c 1
 127 -48 l 1
 68 14 l 1
 163 102 l 1
 135.667 146.667 121.667 197.667 121 255 c 0
 121 285 124.667 317 132 351 c 0
 154 456.333 205 542.333 285 609 c 0
 365 675.667 458.333 709 565 709 c 0
 641.667 709 705.667 690 757 652 c 1
629 534 m 1
 604.333 557.333 573.333 569 536 569 c 0
 480 569 431 546.333 389 501 c 0
 351.667 461 326.667 411.667 314 353 c 0
 308 324.333 305 297.333 305 272 c 0
 305 260 305.667 248 307 236 c 1
 629 534 l 1
667 454 m 1
 349 158 l 1
 371.667 137.333 402 127 440 127 c 0
 509.333 127 566.333 158.333 611 221 c 0
 651 277 671 341 671 413 c 0
 671 427 669.667 440.667 667 454 c 1
EndSplineSet
EndChar
StartChar: thorn
Encoding: 189 254
OldEncoding: 254
Width: 817
Flags: W
HStem: -264 21G<35 218> -16 145<459 480> 569 140<547 629> 937 20G<294 477>
DStem: 294 957 477 957 35 -264 404 613 294 957 292 86 35 -264 218 -264
Fore
294 957 m 1
 477 957 l 1
 404 613 l 1
 481.333 677 556.333 709 629 709 c 0
 709 709 770.333 677.667 813 615 c 0
 841 575 855 524.333 855 463 c 0
 855 429 850.667 391.667 842 351 c 0
 820.667 251.667 779.667 168 719 100 c 0
 649.667 22.6667 568 -16 474 -16 c 0
 399.333 -16 338.667 18 292 86 c 1
 218 -264 l 1
 35 -264 l 1
 294 957 l 1
350 362 m 0
 342.667 327.333 338.667 296.667 338 270 c 0
 336.667 176 377.667 129 461 129 c 0
 558.333 129 622.333 201 653 345 c 0
 661 380.333 665 411.333 665 438 c 0
 665 525.333 625.667 569 547 569 c 0
 445 569 379.333 500 350 362 c 0
EndSplineSet
MinimumDistance: x1,-1 
EndChar
StartChar: dotlessi
Encoding: 191 305
OldEncoding: 305
Width: 372
Flags: W
HStem: 0 21G<96 279> 673 20G<243 426>
DStem: 243 693 426 693 96 0 279 0
Fore
96 0 m 1
 243 693 l 1
 426 693 l 1
 279 0 l 1
 96 0 l 1
EndSplineSet
EndChar
StartChar: OE
Encoding: 192 338
OldEncoding: 338
Width: 1337
Flags: W
HStem: -16 169<427 491> 0 163<883 1296> 421 161<972 1330> 795 162<1016 1447> 808 166<608 642>
VStem: 129 204<307 343>
Fore
1331 163 m 1
 1296 0 l 1
 680 0 l 1
 704 113 l 1
 636.667 27 544.333 -16 427 -16 c 0
 273 -16 178 54.6667 142 196 c 0
 133.333 229.333 129 266.667 129 308 c 0
 129 359.333 135.667 416.667 149 480 c 0
 178.333 618 229.667 730.667 303 818 c 0
 391 922 499.333 974 628 974 c 0
 738.667 974 816.333 933.333 861 852 c 1
 883 957 l 1
 1481 957 l 1
 1447 795 l 1
 1017 795 l 1
 972 582 l 1
 1365 582 l 1
 1330 421 l 1
 937 421 l 1
 883 163 l 1
 1331 163 l 1
630 808 m 0
 488.667 808 395.667 703.333 351 494 c 0
 338.333 436 332.333 385 333 341 c 0
 333 215.667 385.667 153 491 153 c 0
 631.667 153 725.667 265.333 773 490 c 0
 784.333 542 790 587.333 790 626 c 0
 790 747.333 736.667 808 630 808 c 0
EndSplineSet
MinimumDistance: x22,-1 
EndChar
StartChar: oe
Encoding: 193 339
OldEncoding: 339
Width: 1262
Flags: W
HStem: -16 152<405 439> -16 140<893 925> 293 114<840 1118> 557 152<527 563>
VStem: 120 192<255 290> 1123 165<447 465>
Fore
1067 223 m 1
 1240 194 l 1
 1162.67 54 1047.33 -16 894 -16 c 0
 795.333 -16 720.333 16.3333 669 81 c 1
 587 16.3333 499.333 -16 406 -16 c 0
 305.333 -16 228.667 18 176 86 c 0
 138.667 133.333 120 190 120 256 c 0
 120 284 123.333 313.667 130 345 c 0
 153.333 453 204.167 540.667 282.5 608 c 0
 360.833 675.333 454.333 709 563 709 c 0
 659.667 709 733.333 677 784 613 c 1
 858 677 942 709 1036 709 c 0
 1203.33 709 1287.33 624.333 1288 455 c 0
 1288.67 407.667 1282.33 353.667 1269 293 c 1
 813 293 l 1
 809.667 277 808 262 808 248 c 0
 808 165.333 846.333 124 923 124 c 0
 981.667 124 1029.67 157 1067 223 c 1
1118 407 m 1
 1121.33 424.333 1123 440.333 1123 455 c 0
 1123 534.333 1085.67 574 1011 574 c 0
 967 574 929 556.667 897 522 c 0
 868.333 492 849.333 453.667 840 407 c 1
 1118 407 l 1
317 336 m 0
 313.667 320.667 312 305.333 312 290 c 0
 312 260.667 318 231.667 330 203 c 0
 348 158.333 384.333 136 439 136 c 0
 502.333 136 555 168 597 232 c 0
 633.667 288 652 349.667 652 417 c 0
 652 447 646.667 474 636 498 c 0
 617.333 537.333 581.333 557 528 557 c 0
 418.667 557 348.333 483.333 317 336 c 0
EndSplineSet
EndChar
StartChar: florin
Encoding: 197 402
OldEncoding: 402
Width: 744
Flags: W
HStem: -281 155<92 112> 556 137<350 430 667 749> 818 156<776 798>
DStem: 430 556 616 556 211 -14 367 -83
Fore
298 556 m 1
 351 693 l 1
 483 693 l 1
 506 752 l 2
 537.333 834.667 568.667 890.333 600 919 c 0
 639.333 955.667 698.667 974 778 974 c 0
 836.667 974 893 965 947 947 c 1
 880 799 l 1
 840.667 811.667 807.667 818 781 818 c 0
 739 818 706 788.667 682 730 c 2
 667 693 l 1
 803 693 l 1
 749 556 l 1
 616 556 l 1
 367 -83 l 1
 339.667 -154.333 309 -204 275 -232 c 0
 236.333 -264.667 181.333 -281 110 -281 c 0
 40 -281 -19 -272.333 -67 -255 c 1
 0 -111 l 1
 45.3333 -121 80.6667 -126 106 -126 c 0
 136 -126 159.333 -114 176 -90 c 0
 184 -79.3333 195.667 -54 211 -14 c 2
 430 556 l 1
 298 556 l 1
EndSplineSet
MinimumDistance: x13,-1 
EndChar
StartChar: circumflex
Encoding: 198 710
OldEncoding: 710
Width: 445
Flags: W
DStem: 346 974 408 878 168 781 316 781
Fore
168 781 m 1
 346 974 l 1
 516 974 l 1
 610 781 l 1
 462 781 l 1
 408 878 l 1
 316 781 l 1
 168 781 l 1
EndSplineSet
MinimumDistance: x5,-1 
EndChar
StartChar: caron
Encoding: 199 711
OldEncoding: 711
Width: 445
Flags: W
Fore
209 974 m 1
 357 974 l 1
 407 876 l 1
 503 974 l 1
 651 974 l 1
 475 781 l 1
 305 781 l 1
 209 974 l 1
EndSplineSet
EndChar
StartChar: ring
Encoding: 201 730
OldEncoding: 730
Width: 445
Flags: W
HStem: 748 70<382 399> 934 70<420 436>
VStem: 278 71<846 861> 469 71<891 906>
Fore
506 812 m 0
 471.333 769.333 430 748 382 748 c 0
 352 748 327.167 757.167 307.5 775.5 c 0
 287.833 793.833 278 817.667 278 847 c 0
 278 894.333 298 934.333 338 967 c 0
 368 991.667 400.667 1004 436 1004 c 0
 466 1004 490.833 994.5 510.5 975.5 c 0
 530.167 956.5 540 932.667 540 904 c 0
 540 870 528.667 839.333 506 812 c 0
467 876 m 0
 468.333 882.667 469 889 469 895 c 0
 469 921 453.333 934 422 934 c 0
 383.333 934 359.667 914.667 351 876 c 0
 349.667 869.333 349 863 349 857 c 0
 349 831 365 818 397 818 c 0
 435.667 818 459 837.333 467 876 c 0
EndSplineSet
EndChar
StartChar: tilde
Encoding: 202 732
OldEncoding: 732
Width: 445
Flags: W
HStem: 933 20G<561 646>
Fore
243 787 m 1
 159 787 l 1
 164 810 l 2
 184.667 905.333 234.333 953 313 953 c 0
 340.333 953 375.667 941.667 419 919 c 0
 447 904.333 473 897 497 897 c 0
 527 897 548.333 915.667 561 953 c 1
 646 953 l 1
 622.667 843.667 572.333 789 495 789 c 0
 483.667 789 469.333 790.667 452 794 c 1
 383 821 l 2
 343.667 836.333 316 844 300 844 c 0
 270 844 251 825 243 787 c 1
EndSplineSet
EndChar
StartChar: uni0E01
Encoding: 205 3585
OldEncoding: 3585
Width: 901
Flags: W
HStem: 0 21G<156 311 633 791> 700 99<587 621>
VStem: 754 160<588 606>
DStem: 234 369 389 369 156 0 311 0 749 547 908 549 633 0 791 0
Fore
156 0 m 1
 234 369 l 1
 252 422 l 1
 270 464 303 498 351 524 c 1
 367 530 l 1
 348 551 l 2
 333.333 567.667 316.667 581.333 298 592 c 2
 247 621 l 1
 212 639 l 1
 242 671 286.333 701.667 345 731 c 0
 435 776.333 526.333 799 619 799 c 0
 696.333 799 761 786 813 760 c 0
 880.333 726 914 674 914 604 c 0
 914 586.667 912 568.333 908 549 c 2
 791 0 l 1
 633 0 l 1
 749 547 l 2
 752.333 562.333 754 576.667 754 590 c 0
 754 663.333 703.333 700 602 700 c 0
 556.667 700 514.333 691.333 475 674 c 1
 460.333 670 444 660.333 426 645 c 1
 487 598 l 2
 499 588.667 514.333 572.333 533 549 c 2
 542 537 l 1
 512 524 l 1
 462 496.667 426.667 462 406 420 c 1
 389 369 l 1
 311 0 l 1
 156 0 l 1
EndSplineSet
EndChar
StartChar: uni0E02
Encoding: 206 3586
OldEncoding: 3586
Width: 881
Flags: W
HStem: 0 104<181 276 434 577> 457 94<284 305> 775 20G<787 943> 779 20G<422 446>
VStem: 163 104<558 583>
DStem: 318 299 477 307 276 104 434 104 787 795 943 795 656 180 812 178
Fore
812 178 m 2
 794 93.3333 750.333 38.6667 681 14 c 0
 654.333 4.66667 627.333 4.33681e-19 600 0 c 2
 160 0 l 1
 182 104 l 1
 276 104 l 1
 318 299 l 1
 324 329 341 358.333 369 387 c 2
 455 475 l 2
 486.333 507.667 506 542.667 514 580 c 0
 517.333 596 519 610.667 519 624 c 0
 519 668.667 499.667 695.667 461 705 c 0
 450.333 707.667 434.333 709 413 709 c 1
 436.333 696.333 449.667 670.333 453 631 c 1
 452 592 l 1
 432.667 502 377 457 285 457 c 0
 203.667 457 163 491 163 559 c 0
 163 573.667 164.667 590 168 608 c 0
 177.333 650 201 690.333 239 729 c 0
 277 767.667 317 789 359 793 c 2
 422 799 l 1
 446 799 l 2
 560 799 626.667 756 646 670 c 0
 651.333 648.667 651 624.667 645 598 c 0
 635 551.333 616 510.333 588 475 c 2
 510 377 l 2
 494 356.333 483 333 477 307 c 1
 434 104 l 1
 571 104 l 2
 617 104 645.333 129.333 656 180 c 2
 787 795 l 1
 943 795 l 1
 812 178 l 2
303 551 m 0
 336.333 551 357 569.333 365 606 c 0
 366.333 612 367 617.333 367 622 c 0
 367 644 353.667 655 327 655 c 0
 295.667 655 276.333 636.667 269 600 c 0
 267.667 594 267 588.333 267 583 c 0
 267 561.667 279 551 303 551 c 0
EndSplineSet
EndChar
StartChar: uni0E03
Encoding: 207 3587
OldEncoding: 3587
Width: 895
Flags: W
HStem: 0 104<197 294 452 578> 385 84<225 245> 775 20G<790 945>
DStem: 335 295 491 287 294 104 452 104 790 795 945 795 658 176 810 160
Fore
810 160 m 2
 793.333 82.6667 744.667 32 664 8 c 1
 578 0 l 1
 176 0 l 1
 198 104 l 1
 294 104 l 1
 335 295 l 2
 341 323.667 360.333 357 393 395 c 2
 497 516 l 2
 528.333 553.333 544 589.333 544 624 c 0
 544 646 535.667 660.667 519 668 c 1
 499 670.667 475.333 659 448 633 c 2
 425 612 l 1
 418 635 l 1
 395.333 674.333 366 694 330 694 c 0
 316.667 694 305 690 295 682 c 1
 271 649 l 1
 268 643 l 1
 298 641 l 2
 309.333 640.333 318.333 639 325 637 c 0
 363 621.667 382 593.667 382 553 c 0
 382 517 369.667 482.333 345 449 c 0
 314.333 406.333 274.333 385 225 385 c 0
 173.667 385 141 407.667 127 453 c 0
 118.333 482.333 117.667 515 125 551 c 0
 131.667 581.667 137.333 601.333 142 610 c 2
 180 682 l 2
 220.667 758.667 276.333 797 347 797 c 0
 377 797 404 785.333 428 762 c 1
 455 725 l 1
 517 774 l 1
 537.667 786.667 558.333 794.333 579 797 c 1
 615 797 643 778 663 740 c 0
 680.333 705.333 685.333 670.333 678 635 c 0
 662.667 562.333 631 498.667 583 444 c 0
 531 384 500.333 331.667 491 287 c 2
 452 104 l 1
 569 104 l 2
 618.333 104 648 128 658 176 c 1
 790 795 l 1
 945 795 l 1
 810 160 l 2
299 520 m 0
 300.333 527.333 301 533.667 301 539 c 0
 301 561.667 289 573 265 573 c 0
 236.333 573 218.333 556 211 522 c 0
 209.667 514.667 209 508.333 209 503 c 0
 209 480.333 221 469 245 469 c 0
 273.667 469 291.667 486 299 520 c 0
EndSplineSet
EndChar
StartChar: uni0E04
Encoding: 208 3588
OldEncoding: 3588
Width: 938
Flags: W
HStem: 0 21G<197 356 672 827> 682 117<592 631>
VStem: 785 159<559 586>
DStem: 778 500 935 508 672 0 827 0
Fore
827 0 m 1
 672 0 l 1
 778 500 l 2
 782.667 522 785 542 785 560 c 0
 785 641.333 723.333 682 600 682 c 0
 467.333 682 382.667 624.667 346 510 c 1
 339.333 477.333 333.667 428 329 362 c 0
 323.667 286 325 240.333 333 225 c 1
 363 322 l 1
 397 429.333 442 499.333 498 532 c 0
 522 546 553 553 591 553 c 0
 662.333 553 699.333 516 702 442 c 1
 699 410 l 1
 685 344.667 647.667 303 587 285 c 1
 534 276 l 1
 512 276 492.333 280.333 475 289 c 2
 464 295 l 1
 451 264 l 1
 409 168 l 1
 381 90 l 1
 356 0 l 1
 197 0 l 1
 212 72 l 1
 214 109.333 212.333 149.667 207 193 c 1
 191 330 l 1
 185 384.667 188.667 444 202 508 c 0
 222.667 604 275.333 678 360 730 c 0
 435.333 776 525 799 629 799 c 0
 839 799 944 728 944 586 c 0
 944 562 941 536 935 508 c 2
 827 0 l 1
572 465 m 0
 538 465 517.333 448 510 414 c 0
 508.667 408.667 508 403.667 508 399 c 0
 508 376.333 522.333 365 551 365 c 0
 583.667 365 603.333 381.333 610 414 c 0
 611.333 420 612 425.667 612 431 c 0
 612 453.667 598.667 465 572 465 c 0
EndSplineSet
EndChar
StartChar: uni0E05
Encoding: 209 3589
OldEncoding: 3589
Width: 934
Flags: W
HStem: 0 21G<182 340 659 817>
DStem: 775 545 934 549 659 0 817 0
Fore
817 0 m 1
 659 0 l 1
 775 545 l 2
 779 563 781 579 781 593 c 0
 781 608.333 778.333 621 773 631 c 1
 765 655.667 750.667 668 730 668 c 0
 724.667 668 719 667.333 713 666 c 1
 581 604 l 1
 469 664 l 2
 456.333 670.667 438 664 414 644 c 0
 395.333 628.667 381 612.667 371 596 c 1
 356.333 576.667 344.333 550 335 516 c 2
 326 483 l 2
 316 448.333 311 396 311 326 c 0
 311 265.333 313.333 231.667 318 225 c 1
 348 307 l 1
 374 375.667 400 425.667 426 457 c 0
 463.333 501.667 511.333 524 570 524 c 0
 599.333 524 625.333 516 648 500 c 0
 674 482.667 686.667 460 686 432 c 1
 679 383 l 1
 671.667 325.667 634 283.333 566 256 c 1
 538 248 l 1
 509 246 l 2
 493.667 244.667 475 248 453 256 c 2
 442 260 l 1
 401 170 l 1
 357 63 l 1
 340 0 l 1
 182 0 l 1
 189 33 l 1
 199 109 l 2
 199.667 113.667 201 126.333 203 147 c 1
 201.667 157.667 199.667 173 197 193 c 2
 179 328 l 1
 171.667 380 175.333 439.333 190 506 c 0
 212 612 268 693.333 358 750 c 0
 414.667 785.333 456 803 482 803 c 0
 488.667 803 494 801.667 498 799 c 2
 607 723 l 1
 754 799 l 1
 776 807 806.333 799.333 845 776 c 0
 877 756.667 900 736.333 914 715 c 0
 941.333 672.333 948 617 934 549 c 1
 817 0 l 1
555 434 m 0
 522.333 434 502.333 417 495 383 c 0
 494.333 377 494 371.667 494 367 c 0
 494 345 507.333 334 534 334 c 0
 566.667 334 586.333 350.333 593 383 c 0
 594.333 389 595 394.667 595 400 c 0
 595 422.667 581.667 434 555 434 c 0
EndSplineSet
EndChar
StartChar: uni0E06
Encoding: 210 3590
OldEncoding: 3590
Width: 1026
Flags: W
HStem: -6 108<357 375> 385 82<239 257> 775 20G<921 1076>
VStem: 134 89<489 507> 218 108<129 145> 313 83<533 548>
DStem: 921 795 1076 795 792 186 932 119
Fore
932 119 m 1
 918.667 55 881 15.3333 819 0 c 1
 785 -4 l 1
 746.333 -4 716.333 11.6667 695 43 c 2
 649 111 l 1
 592 184 l 1
 570 207 l 1
 554 131 l 2
 534.667 39.6667 470.333 -6 361 -6 c 0
 281 -6 233.667 28 219 96 c 1
 218.333 109.333 218 121.333 218 132 c 0
 218 150 219.333 165.333 222 178 c 0
 242.667 274.667 298.333 337 389 365 c 1
 449 375 l 1
 469 469 l 2
 472.333 485.667 486 509.667 510 541 c 1
 538 584 l 1
 549 616 l 1
 550.333 622.667 551 628.667 551 634 c 0
 551 650 545 661.333 533 668 c 1
 520.333 670.667 500.333 662.333 473 643 c 1
 437 612 l 1
 430 635 l 1
 410 674.333 381.667 694 345 694 c 0
 331 694 319 690 309 682 c 1
 285 649 l 1
 282 643 l 1
 303 645 l 1
 365 645 396 612.667 396 548 c 0
 396 515.333 383.667 482.333 359 449 c 0
 327.667 406.333 288 385 240 385 c 0
 169.333 385 134 422 134 496 c 0
 134 512.667 136 530.333 140 549 c 0
 146.667 581 152.333 601.333 157 610 c 2
 194 682 l 2
 210 712.667 233.333 739 264 761 c 0
 297.333 785 330 797 362 797 c 0
 392 797 419 785.333 443 762 c 1
 469 725 l 1
 510 760 l 2
 538 784.667 565.667 797 593 797 c 0
 629.667 797 657.667 777.333 677 738 c 0
 694.333 702.667 699 667 691 631 c 1
 651 535 l 1
 625 465 l 1
 599 344 l 1
 637 322 l 1
 684 285 l 1
 767 190 l 1
 785 174 l 1
 792 186 l 1
 921 795 l 1
 1076 795 l 1
 932 119 l 1
399 143 m 1
 425 264 l 1
 418.333 265.333 412.333 266 407 266 c 0
 383.667 266 363.333 250.333 346 219 c 1
 332 172 l 1
 328 160 326 149.333 326 140 c 0
 326 114.667 340.667 102 370 102 c 0
 376.667 102 382.333 102.667 387 104 c 2
 390 106 l 1
 399 143 l 1
311 518 m 0
 312.333 525.333 313 532 313 538 c 0
 313 560 301.667 571 279 571 c 0
 250.333 571 232.667 554 226 520 c 0
 224 512.667 223 506 223 500 c 0
 223 478 234.333 467 257 467 c 0
 285.667 467 303.667 484 311 518 c 0
EndSplineSet
EndChar
StartChar: uni0E07
Encoding: 211 3591
OldEncoding: 3591
Width: 682
Flags: W
HStem: -3.99999 119<348 375>
VStem: 574 123<656 677>
DStem: 509 506 690 614 442 195 602 203
Fore
602 203 m 1
 585.333 123.667 544.333 65 479 27 c 0
 443.667 6.33333 400.333 -4 349 -4 c 0
 255 -4 202.333 30 191 98 c 2
 160 283 l 1
 154 297.667 144 308.333 130 315 c 1
 94 324 l 1
 123 461 l 1
 149 463 l 2
 201 467 239 448.667 263 408 c 0
 274.333 388.667 286.667 328.333 300 227 c 0
 310 152.333 332.667 115 368 115 c 0
 406 115 430.667 141.667 442 195 c 2
 509 506 l 1
 491 506 l 1
 454.333 510 428.333 517.333 413 528 c 0
 384.333 548 370 576.667 370 614 c 0
 370 625.333 371.333 637.667 374 651 c 1
 387 690 l 1
 418.333 762.667 473.667 799 553 799 c 0
 649 799 697 757.667 697 675 c 0
 697 657 694.667 636.667 690 614 c 2
 602 203 l 1
572 651 m 0
 573.333 657.667 574 663.667 574 669 c 0
 574 693 560.333 705 533 705 c 0
 497.667 705 476.333 688.333 469 655 c 0
 461.667 618.333 475.667 600 511 600 c 0
 545 600 565.333 617 572 651 c 0
EndSplineSet
EndChar
StartChar: uni0E08
Encoding: 212 3592
OldEncoding: 3592
Width: 811
Flags: W
HStem: -3.99999 119<475 503> 264 86<307 324> 451 90<339 369>
VStem: 186 90<362 383>
DStem: 651 506 808 518 583 186 745 223
Fore
745 223 m 1
 739 193 730.333 164.333 719 137 c 0
 707.667 109.667 691.333 87.3333 670 70 c 1
 618.667 20.6667 554 -4 476 -4 c 0
 368 -4 312.333 38.3333 309 123 c 0
 307.667 163 309 192.333 313 211 c 2
 324 264 l 1
 275 264 l 1
 261 265.333 245.333 271.667 228 283 c 0
 200 301 186 327.333 186 362 c 0
 186 373.333 187.333 385 190 397 c 0
 199.333 440.333 220.333 475.167 253 501.5 c 0
 285.667 527.833 324.333 541 369 541 c 0
 427 541 463.333 519.667 478 477 c 0
 488 449 488 403.333 478 340 c 1
 457 203 l 1
 453 174.333 452 156.667 454 150 c 0
 456.667 126.667 472.333 115 501 115 c 0
 545 115 572.333 138.667 583 186 c 1
 651 506 l 2
 655 525.333 657 542.667 657 558 c 0
 657 615.333 630.667 652.667 578 670 c 0
 554 678 525.667 682 493 682 c 0
 423.667 682 364.333 665.667 315 633 c 2
 234 580 l 1
 158 649 l 1
 166 663 175.667 675.333 187 686 c 0
 269.667 761.333 383.333 799 528 799 c 0
 580.667 799 617.333 795.333 638 788 c 1
 668 785.333 696.667 775.333 724 758 c 0
 772 728 801.667 696 813 662 c 0
 823.667 630 822 582 808 518 c 1
 745 223 l 1
380 399 m 0
 381.333 405 382 410.667 382 416 c 0
 382 439.333 368 451 340 451 c 0
 312.667 451 291.667 433 277 397 c 1
 276.333 391.667 276 387 276 383 c 0
 276 361 290 350 318 350 c 0
 352 350 372.667 366.333 380 399 c 0
EndSplineSet
MinimumDistance: x31,-1 
EndChar
StartChar: uni0E09
Encoding: 213 3593
OldEncoding: 3593
Width: 950
Flags: W
HStem: 676 131<536 570>
VStem: 332 120<390 407> 709 167<563 610>
DStem: 705 520 870 557 672 367 836 397
Fore
759 -4 m 0
 723 -4 691.667 4 665 20 c 0
 633.667 39.3333 618 66 618 100 c 0
 618 108 619 116.333 621 125 c 2
 640 217 l 1
 622 199 l 1
 516 84 l 2
 480.667 46 451 22 427 12 c 1
 396.333 2.66667 358.333 -2 313 -2 c 0
 258.333 -2 231 23.6667 231 75 c 0
 231 82.3333 232 90 234 98 c 1
 264 240 l 1
 204 240 168 266.333 156 319 c 0
 152.667 334.333 153.333 353.667 158 377 c 0
 175.333 459 228.333 505.333 317 516 c 1
 407 516 452 479 452 405 c 0
 452 393.667 450.333 381.667 447 369 c 1
 404 166 l 2
 402.667 159.333 405.667 154.667 413 152 c 1
 422.333 152 442.667 167.667 474 199 c 2
 539 264 l 2
 571 296 602 322.667 632 344 c 1
 672 367 l 1
 705 520 l 1
 707.667 535.333 709 549.667 709 563 c 0
 709 638.333 655 676 547 676 c 0
 399.667 676 304 640.333 260 569 c 1
 168 635 l 1
 201.333 675 231 703.667 257 721 c 0
 342.333 778.333 443.667 807 561 807 c 0
 643 807 711.333 794.667 766 770 c 0
 839.333 736 876 682.667 876 610 c 0
 876 593.333 874 575.667 870 557 c 2
 836 397 l 1
 871 391 l 1
 931 371 964.667 337 972 289 c 0
 976.667 262.333 975 231 967 195 c 0
 939 62.3333 869.667 -4 759 -4 c 0
869 207 m 1
 873 243.667 864.667 269 844 283 c 1
 814 293 l 1
 784 150 l 2
 779.333 127.333 786 115.667 804 115 c 0
 829.333 114.333 845.667 126 853 150 c 0
 858.333 167.333 863.667 186.333 869 207 c 1
298 426 m 0
 269.333 426 251.333 409.667 244 377 c 0
 242.667 371 242 365.667 242 361 c 0
 242 340.333 253.667 330 277 330 c 0
 287 330 297.833 336.833 309.5 350.5 c 0
 321.167 364.167 328 376.333 330 387 c 0
 331.333 391.667 332 395.667 332 399 c 0
 332 417 320.667 426 298 426 c 0
EndSplineSet
MinimumDistance: x31,-1 
EndChar
StartChar: uni0E0A
Encoding: 214 3594
OldEncoding: 3594
Width: 877
Flags: W
HStem: 4 105<161 256 414 566> 779 20G<403 426>
VStem: 152 91<569 587>
DStem: 297 301 457 311 256 109 414 109 690 434 841 401 637 184 787 145
Fore
972 750 m 1
 942 725 l 2
 925.333 711 895 692 851 668 c 0
 825 653.333 802 643 782 637 c 2
 745 625 l 1
 787.667 614.333 817.667 585.667 835 539 c 0
 843.667 514.333 848 488.333 848 461 c 0
 848 441.667 845.667 421.667 841 401 c 1
 787 145 l 1
 775.667 121.667 767.333 106 762 98 c 0
 740 63.3333 703.333 35.3333 652 14 c 0
 636 7.33333 612.333 4 581 4 c 2
 140 4 l 1
 162 109 l 1
 256 109 l 1
 297 301 l 1
 303 330.333 320.333 359.667 349 389 c 2
 436 479 l 1
 467.333 517.667 486.333 552 493 582 c 1
 496 629 l 1
 492 679.667 457.333 705 392 705 c 1
 410.667 692.333 421 683.333 423 678 c 0
 431 665.333 434 651.667 432 637 c 1
 429 600 l 1
 409 507.333 354.667 461 266 461 c 0
 190 461 152 497.333 152 570 c 0
 152 626 176.333 679 225 729 c 0
 263 767.667 302.333 789 343 793 c 2
 403 799 l 1
 426 799 l 2
 536.667 799 603 758 625 676 c 1
 627 651 l 1
 699 688 l 1
 795 745 l 2
 847 775.667 890.333 810 925 848 c 2
 968 895 l 1
 972 750 l 1
637 184 m 2
 690 434 l 2
 698 472 695.333 501.333 682 522 c 0
 663.333 550.667 641.333 565 616 565 c 1
 602.667 531.667 586 502.333 566 477 c 2
 491 381 l 2
 473.667 359 462.333 335.667 457 311 c 2
 414 109 l 1
 551 109 l 2
 597.667 109 626.333 134 637 184 c 2
279 551 m 1
 307.667 551 328.667 569.333 342 606 c 0
 343.333 612 344 617.333 344 622 c 0
 344 644 330.333 655 303 655 c 0
 271.667 655 252.333 637.333 245 602 c 0
 243.667 596 243 590.333 243 585 c 0
 243 574.333 246 565.667 252 559 c 1
 279 551 l 1
EndSplineSet
MinimumDistance: x7,-1 
EndChar
StartChar: uni0E0B
Encoding: 215 3595
OldEncoding: 3595
Width: 928
Flags: W
HStem: -4 104<217 315 470 622> 387 84<247 266> 694 103<353 370>
DStem: 371 365 529 377 314 100 470 100 746 428 897 393 692 176 842 137
Fore
1028 741 m 1
 998 715 l 2
 970.667 691 940 671.667 906 657 c 2
 841 629 l 1
 801 616 l 1
 819 608 l 2
 874.333 584 903.333 543 906 485 c 0
 907.333 459.667 904.333 429 897 393 c 1
 842 137 l 1
 832 116.333 823.667 100.667 817 90 c 0
 793.667 54 757.333 26 708 6 c 0
 692 -0.666667 668 -4 636 -4 c 2
 196 -4 l 1
 218 100 l 1
 314 100 l 1
 371 365 l 1
 376.333 392.333 389 418.667 409 444 c 0
 413 448.667 441.333 475.667 494 525 c 0
 534.667 563.667 555 599.667 555 633 c 0
 555 639 554 645 552 651 c 1
 541 668 l 1
 523 670.667 498.333 659 467 633 c 1
 445 612 l 1
 438 635 l 1
 418 674.333 389.667 694 353 694 c 0
 339 694 325.667 689.333 313 680 c 1
 295 655 l 1
 291 643 l 1
 311 645 l 1
 354.333 645 382.333 626.667 395 590 c 0
 403 568 404.333 543.333 399 516 c 0
 391 478.667 373.167 447.833 345.5 423.5 c 0
 317.833 399.167 285.333 387 248 387 c 0
 197.333 387 163.667 409 147 453 c 1
 141 500 l 1
 147 557 l 1
 166 618 l 1
 195 678 l 2
 209.667 708 234.5 735.333 269.5 760 c 0
 304.5 784.667 338 797 370 797 c 0
 400 797 427 785.333 451 762 c 1
 478 725 l 1
 518 760 l 2
 545.333 784.667 572.333 797 599 797 c 0
 655 797 683 756.333 683 675 c 0
 683 665 682.667 654.333 682 643 c 1
 692 645 707.667 652 729 664 c 2
 785 694 l 2
 789.667 696.667 811.333 710.333 850 735 c 0
 908 771.667 951 805.333 979 836 c 2
 1027 889 l 1
 1028 741 l 1
692 176 m 1
 746 428 l 1
 751 479 l 1
 751.667 490.333 747.333 502 738 514 c 1
 720 545.333 692 561 654 561 c 1
 628 528 l 1
 588 483 l 2
 565.333 458.333 551.333 439.333 546 426 c 1
 529 377 l 1
 470 100 l 1
 607 100 l 2
 630.333 100 651 107.667 669 123 c 0
 679.667 133.667 687.333 151.333 692 176 c 1
322 520 m 0
 322.667 526 323 531.667 323 537 c 0
 323 558.333 311 569 287 569 c 0
 258.333 569 240.667 552.667 234 520 c 0
 232 513.333 231 507.667 231 503 c 0
 231 481.667 242.667 471 266 471 c 0
 296 471 314.667 487.333 322 520 c 0
EndSplineSet
MinimumDistance: x7,-1 
EndChar
StartChar: uni0E0C
Encoding: 216 3596
OldEncoding: 3596
Width: 1180
Flags: W
HStem: -6 98<619 643> -2 78<301 333> 692 109<574 602> 775 20G<1072 1230>
VStem: 175 122<99 123>
DStem: 708 547 867 549 659 315 819 326 1072 795 1230 795 948 213 1082 100
Fore
433 475 m 1
 273 477 l 1
 293 496.333 314 512 336 524 c 1
 353 530 l 1
 334 551 l 1
 284 592 l 1
 232 621 l 1
 197 639 l 1
 297.667 747 431.333 801 598 801 c 0
 782 801 874 737.333 874 610 c 0
 874 591.333 871.667 571 867 549 c 2
 819 326 l 1
 851 315 l 1
 864.333 312.333 877.667 305 891 293 c 2
 917 270 l 1
 931.667 252.667 942 233.667 948 213 c 1
 1072 795 l 1
 1230 795 l 1
 1082 100 l 1
 1068.67 35.3333 1028.33 2 961 0 c 0
 931.667 -0.666667 912.667 10.3333 904 33 c 1
 890 96 l 1
 884 125.333 875.333 148 864 164 c 1
 850 191.333 836.333 210.333 823 221 c 1
 800 233 l 1
 800 199 l 1
 797 154 l 1
 784 113 l 1
 750.667 33.6667 696 -6 620 -6 c 0
 576.667 -6 544.667 11 524 45 c 0
 506 76.3333 501.333 113.333 510 156 c 1
 527 209 l 1
 544.333 248.333 571.667 278.333 609 299 c 1
 659 315 l 1
 708 547 l 1
 711.333 561.667 713 575.333 713 588 c 0
 713.667 657.333 668.333 692 577 692 c 0
 535 692 495 684.667 457 670 c 1
 411 645 l 1
 473 598 l 2
 477 595.333 492 579 518 549 c 2
 528 537 l 1
 498 524 l 2
 482 516.667 460.333 500.333 433 475 c 1
670 221 m 0
 637.333 221 615.333 198.667 604 154 c 0
 601.333 144.667 600 136.667 600 130 c 0
 600 104.667 614.333 92 643 92 c 0
 675.667 92 696.667 114 706 158 c 1
 706 190 l 1
 702 210.667 690 221 670 221 c 0
277 477 m 1
 437 475 l 1
 425 463 411.333 444.667 396 420 c 1
 379 369 l 1
 358 270 l 1
 438 270 478 240.333 478 181 c 0
 478 172.333 476.667 162.667 474 152 c 0
 452.667 49.3333 395 -2 301 -2 c 0
 217 -2 175 36.3333 175 113 c 0
 175 131 177.333 151.333 182 174 c 2
 223 369 l 1
 242 422 l 1
 247.333 438.667 259 457 277 477 c 1
333 76 m 0
 365 76 384.667 93.6667 392 129 c 0
 394 135.667 395 141.667 395 147 c 0
 395 170.333 382 182 356 182 c 0
 326 182 307 164.333 299 129 c 0
 297.667 121.667 297 115.333 297 110 c 0
 297 87.3333 309 76 333 76 c 0
EndSplineSet
EndChar
StartChar: uni0E0D
Encoding: 217 3597
OldEncoding: 3597
Width: 1180
Flags: W
HStem: -385 86<628 661 668 685> -166 76<593 604> -2.00001 78<301 333> 0 104<564 618 776 881> 692 109<571 602> 775 20G<1076 1234>
VStem: 718 159<590 610>
DStem: 712 547 871 549 618 104 776 104 1076 795 1234 795 937 143 1107 197
Fore
1107 197 m 2
 1099 160.333 1092 133.667 1086 117 c 0
 1073.33 82.3333 1042.67 48.6667 994 16 c 1
 974.667 5.33333 954.667 -4.33681e-19 934 0 c 2
 543 0 l 1
 565 104 l 1
 618 104 l 1
 712 547 l 2
 716 565 718 581.333 718 596 c 0
 718 658 672.333 690 581 692 c 0
 541 692.667 501 685.333 461 670 c 0
 454.333 667.333 439.333 659 416 645 c 1
 477 598 l 2
 489 588.667 504.333 572.333 523 549 c 2
 532 537 l 1
 460.667 509.667 413.333 465.333 390 404 c 0
 385.333 392 381.667 380.333 379 369 c 1
 358 270 l 1
 388.667 268 411.333 264 426 258 c 0
 459.333 244 476 217.333 476 178 c 0
 476 170 475.333 161.333 474 152 c 0
 458.667 50.6667 401 -0.666667 301 -2 c 0
 217 -3.33333 175 34.6667 175 112 c 0
 175 130 177.333 150.667 182 174 c 1
 223 369 l 1
 238.333 439 277.333 490.667 340 524 c 1
 343.333 524.667 349 526.667 357 530 c 1
 349.667 538.667 343.333 545.667 338 551 c 0
 319.333 569 302.667 582.667 288 592 c 0
 276 598 258.667 607.667 236 621 c 0
 218.667 631 207.333 637 202 639 c 1
 247.333 689 308.333 728.667 385 758 c 0
 457 786 528.667 800.333 600 801 c 0
 675.333 801.667 737.333 788.667 786 762 c 0
 846.667 728.667 877 677.333 877 608 c 0
 877 590 875 570.333 871 549 c 1
 776 104 l 1
 868 104 l 2
 898 104 921 117 937 143 c 1
 1076 795 l 1
 1234 795 l 1
 1107 197 l 2
1035 -96 m 1
 1017.67 -175.333 982.667 -238.333 930 -285 c 0
 858 -349.667 768.333 -383 661 -385 c 0
 607.667 -386.333 561.667 -378.333 523 -361 c 0
 472.333 -337.667 447 -302.333 447 -255 c 0
 447 -245 448.333 -234.333 451 -223 c 0
 469 -136.333 520 -92 604 -90 c 0
 641.333 -89.3333 668.333 -100.167 685 -122.5 c 0
 701.667 -144.833 706.667 -174.333 700 -211 c 0
 694 -245 678.667 -270.333 654 -287 c 0
 653.333 -287 644.667 -291 628 -299 c 1
 638 -299 l 2
 650.667 -299 661 -299.667 669 -301 c 0
 687.667 -301 701.333 -300.333 710 -299 c 0
 764.667 -291 811 -263 849 -215 c 1
 863.667 -194.333 874 -171.667 880 -147 c 0
 882.667 -133.667 886.667 -117.333 892 -98 c 1
 1035 -96 l 1
333 76 m 0
 363.667 74.6667 383.333 92.3333 392 129 c 0
 395.333 142.333 393.667 154.667 387 166 c 0
 383.667 174.667 373.333 180 356 182 c 1
 326 182 307 164.333 299 129 c 0
 291.667 94.3333 303 76.6667 333 76 c 0
535 -213 m 0
 528.333 -243 540.667 -258.667 572 -260 c 0
 602.667 -261.333 621.667 -245 629 -211 c 0
 635 -181.667 623.333 -166.667 594 -166 c 0
 561.333 -164.667 541.667 -180.333 535 -213 c 0
EndSplineSet
EndChar
StartChar: uni0E0E
Encoding: 218 3598
OldEncoding: 3598
Width: 909
Flags: W
HStem: -4 86<196 218> 694 109<618 652>
VStem: 11 107<-296 -277> 80 93<93 114> 758 160<594 619>
DStem: 751 547 910 549 597 -178 755 -178
Fore
755 -178 m 1
 722 -225 l 2
 682 -282.333 615.333 -338.333 522 -393 c 2
 473 -422 l 1
 463 -397.333 443.667 -369.333 415 -338 c 2
 374 -293 l 1
 360 -281 l 1
 339 -313 l 2
 305.667 -365 258.333 -398 197 -412 c 1
 142 -418 l 1
 104.667 -418 73.5 -406.667 48.5 -384 c 0
 23.5 -361.333 11 -331.667 11 -295 c 0
 11 -283 12.3333 -270.667 15 -258 c 1
 33 -213 l 1
 70.3333 -140.333 133.333 -104 222 -104 c 2
 250 -104 l 2
 257.333 -104 271 -107 291 -113 c 1
 301 -113 310.667 -115.667 320 -121 c 1
 336 -86 l 1
 350 -47 l 1
 465 -47 l 1
 444 -109 l 2
 437.333 -127.667 431 -142 425 -152 c 2
 416 -166 l 1
 435 -178 l 1
 464 -205 l 1
 509 -254 l 1
 554 -225 l 1
 586 -195 l 1
 597 -178 l 1
 751 547 l 2
 755.667 568.333 758 587.333 758 604 c 0
 758 664 714.333 694 627 694 c 0
 584.333 694 541.333 686 498 670 c 0
 482.667 664 466.667 655.667 450 645 c 1
 469 633 l 1
 514 596 l 1
 567 537 l 1
 537 524 l 2
 482.333 500 442 448.333 416 369 c 1
 370 150 l 1
 348 47.3333 290.667 -4 198 -4 c 0
 119.333 -4 80 28.6667 80 94 c 0
 80 104.667 81.3333 115.667 84 127 c 1
 96 166 l 2
 111.333 214.667 146.667 246 202 260 c 1
 236 264 l 1
 258 369 l 1
 276 422 l 1
 294 463.333 327.667 497.333 377 524 c 1
 394 530 l 1
 375 551 l 2
 359 569 341 583.333 321 594 c 2
 276 618 l 1
 236 639 l 1
 282 690.333 346.667 731.333 430 762 c 0
 504 789.333 576 803 646 803 c 0
 827.333 803 918 741 918 617 c 0
 918 596.333 915.333 573.667 910 549 c 2
 755 -178 l 1
277 -213 m 1
 252 -203 l 1
 216 -197 l 1
 188.667 -197 164.333 -205.667 143 -223 c 1
 133.667 -234.333 125.667 -248.667 119 -266 c 0
 118.333 -270 118 -273.667 118 -277 c 0
 118 -299 135.667 -312.333 171 -317 c 1
 199.667 -317 226 -300 250 -266 c 1
 277 -213 l 1
228 180 m 0
 199.333 180 181.667 163.667 175 131 c 0
 173.667 124.333 173 118.667 173 114 c 0
 173 92.6667 184.333 82 207 82 c 0
 235.667 82 253.667 98.3333 261 131 c 0
 262.333 137.667 263 143.333 263 148 c 0
 263 169.333 251.333 180 228 180 c 0
EndSplineSet
EndChar
StartChar: uni0E0F
Encoding: 219 3599
OldEncoding: 3599
Width: 922
Flags: W
HStem: -188 90<140 151> -4 82<208 226> 696 105<624 657>
VStem: 94 89<100 112> 768 160<594 618>
DStem: 761 547 920 551 607 -178 765 -178
Fore
765 -178 m 1
 741 -219 l 2
 703 -285.667 645.667 -341 569 -385 c 2
 516 -416 l 1
 437 -258 l 1
 310 -410 l 1
 247 -293 l 1
 212 -344 l 1
 180 -380.667 147.667 -401.333 115 -406 c 2
 101 -408 l 1
 91 -408 l 2
 50.3333 -408 20.6667 -391.333 2 -358 c 0
 -14.6667 -328 -19 -292.667 -11 -252 c 1
 -4 -219 l 1
 9 -197 l 1
 38.3333 -131 85 -98 149 -98 c 0
 172.333 -98 191.333 -101.667 206 -109 c 2
 218 -115 l 1
 232 -47 l 1
 340 -47 l 1
 327 -106 l 1
 309 -166 l 1
 339 -233 l 1
 466 -88 l 1
 549 -238 l 1
 562.333 -232.667 573.333 -224.333 582 -213 c 1
 589.333 -207.667 596.667 -198 604 -184 c 2
 607 -178 l 1
 761 547 l 1
 765.667 567.667 768 586 768 602 c 0
 768 664.667 724.333 696 637 696 c 0
 581.667 696 531.667 685.333 487 664 c 1
 461 645 l 1
 479 633 l 1
 524 596 l 1
 568 549 l 1
 577 537 l 1
 547 524 l 2
 492.333 500 452 448.333 426 369 c 1
 380 150 l 1
 358 47.3333 300.667 -4 208 -4 c 0
 132 -4 94 30.3333 94 99 c 0
 94 109 95.3333 119.667 98 131 c 1
 109 166 l 1
 122.333 206 150.333 234.667 193 252 c 1
 246 264 l 1
 268 369 l 1
 287 422 l 1
 303.667 471.333 337 505.333 387 524 c 2
 404 530 l 1
 385 551 l 2
 369.667 568.333 351.667 582.667 331 594 c 2
 287 618 l 1
 247 639 l 1
 275 670.333 320.333 701.667 383 733 c 0
 473 778.333 563.667 801 655 801 c 0
 837.667 801 928.667 739.333 928 616 c 0
 928 596 925.333 574.333 920 551 c 1
 765 -178 l 1
177 -217 m 1
 166 -201 l 2
 160.667 -192.333 152.667 -188 142 -188 c 0
 108 -188 86.3333 -210 77 -254 c 0
 69 -290.667 79.3333 -309.667 108 -311 c 0
 130 -312.333 148.333 -296.667 163 -264 c 1
 177 -217 l 1
240 176 m 0
 210 176 191.667 159.667 185 127 c 0
 183.667 121 183 115.333 183 110 c 0
 183 88.6667 195.333 78 220 78 c 0
 248.667 78 266.333 94.3333 273 127 c 0
 274.333 133.667 275 139.333 275 144 c 0
 275 165.333 263.333 176 240 176 c 0
EndSplineSet
EndChar
StartChar: uni0E10
Encoding: 220 3600
OldEncoding: 3600
Width: 813
Flags: W
HStem: -467 96<2 17> 408 92<303 329> 662 98<761 795>
VStem: 151 91<327 345> 342 119<363 382> 571 82<-189 -170>
DStem: 618 373 768 365 556 150 716 178
Fore
913 711 m 1
 868.333 678.333 818 662 762 662 c 0
 730 662 683.5 670.167 622.5 686.5 c 0
 561.5 702.833 515 711 483 711 c 0
 450.333 711 422.333 702 399 684 c 1
 372 655 l 1
 424 655 l 1
 440.667 651 453.333 648.333 462 647 c 1
 491.333 647 535.167 636.333 593.5 615 c 0
 651.833 593.667 693.333 573.667 718 555 c 0
 746.667 533 766 505 776 471 c 1
 778 459 779 447.667 779 437 c 0
 779 425 778 413.667 776 403 c 2
 768 365 l 1
 716 178 l 2
 694.667 100.667 648.667 46.6667 578 16 c 1
 520 0 l 1
 452 -6 l 1
 379 0 l 1
 339.667 8 309 31.3333 287 70 c 1
 281 92 279.667 117.667 283 147 c 2
 292 227 l 1
 260 223 l 1
 187.333 223 151 258 151 328 c 0
 151 338.667 152.333 350 155 362 c 0
 163.667 402.667 184.333 435.833 217 461.5 c 0
 249.667 487.167 287 500 329 500 c 1
 350 498 l 2
 424 490.667 461 449.333 461 374 c 0
 461 360.667 459.667 346 457 330 c 1
 430 154 l 1
 428.667 148.667 428 143.333 428 138 c 0
 428 107.333 445.667 92 481 92 c 0
 520.333 92 545.333 111.333 556 150 c 2
 618 373 l 1
 645.333 469 571 531.667 395 561 c 2
 246 586 l 1
 228 586 208.333 588.667 187 594 c 1
 203.667 650.667 247 702.667 317 750 c 0
 377 790 441.667 808.333 511 805 c 2
 552 803 l 1
 593 797 l 1
 689 776 l 2
 737.667 765.333 773 760 795 760 c 0
 823.667 760 849.333 768.667 872 786 c 1
 885 799 l 1
 913 711 l 1
635 -285 m 1
 624.333 -337.667 600.667 -380.333 564 -413 c 0
 524.667 -447.667 478.667 -463 426 -459 c 2
 401 -457 l 2
 357 -453.667 323 -436.667 299 -406 c 1
 284 -379 l 1
 193 -459 l 1
 152 -362 l 1
 109 -414 l 1
 73 -449.333 37.6667 -467 3 -467 c 0
 -38.3333 -467 -67.3333 -450 -84 -416 c 0
 -98.6667 -386.667 -101.667 -351.667 -93 -311 c 1
 -87 -291 l 2
 -77 -259 -59.6667 -229.667 -35 -203 c 1
 -13 -182.333 15.3333 -168.667 50 -162 c 1
 80 -162 105 -165.333 125 -172 c 0
 136.333 -176 145.667 -181.333 153 -188 c 1
 156 -182 l 1
 177 -139 l 1
 196 -80 l 1
 300 -80 l 1
 287 -121 l 1
 277 -170.333 258.333 -212 231 -246 c 2
 221 -258 l 1
 246 -317 l 1
 315 -262 l 1
 326 -285 l 2
 350.667 -335.667 385.667 -360.667 431 -360 c 0
 451 -359.333 468 -351.333 482 -336 c 1
 492 -315 l 1
 426 -311 393 -280.333 393 -223 c 1
 396 -199 l 2
 400.667 -162.333 417.833 -132 447.5 -108 c 0
 477.167 -84 510.667 -72 548 -72 c 0
 618.667 -72 653.667 -106.667 653 -176 c 0
 653 -194 650.667 -214 646 -236 c 2
 635 -285 l 1
283 311 m 0
 314.333 311 333.333 326.667 340 358 c 0
 341.333 364 342 369.667 342 375 c 0
 342 397 329.333 408 304 408 c 0
 271.333 408 251.333 391.333 244 358 c 0
 242.667 352.667 242 347.667 242 343 c 0
 242 321.667 255.667 311 283 311 c 0
97 -285 m 1
 82 -266 l 1
 70 -254 57.6667 -248 45 -248 c 0
 31.6667 -248 19.6667 -254.667 9 -268 c 1
 -9 -311 l 1
 -11 -321 -12 -330 -12 -338 c 0
 -12 -360 -3 -371 15 -371 c 0
 41.6667 -371 62.6667 -355.333 78 -324 c 2
 97 -285 l 1
534 -147 m 0
 518 -147 505 -152.667 495 -164 c 1
 479 -193 l 1
 477.667 -198.333 477 -203 477 -207 c 0
 477 -227.667 489.333 -238 514 -238 c 0
 529.333 -238 542.333 -231.667 553 -219 c 1
 569 -193 l 1
 570.333 -187.667 571 -182.667 571 -178 c 0
 571 -157.333 558.667 -147 534 -147 c 0
EndSplineSet
MinimumDistance: x13,-1 
EndChar
StartChar: uni0E11
Encoding: 221 3601
OldEncoding: 3601
Width: 1112
Flags: W
HStem: 0 21G<362 522>
VStem: 138 91<463 481>
DStem: 965 598 1130 625 840 2 997 0
Fore
997 0 m 1
 840 2 l 1
 965 598 l 1
 961 616 947.333 625 924 625 c 0
 891.333 625 844.667 579 784 487 c 2
 666 309 l 2
 646 279.667 619.667 230 587 160 c 0
 549.667 80 528 26.6667 522 0 c 1
 362 0 l 1
 452 424 l 2
 458.667 456 476.333 493.667 505 537 c 0
 533.667 580.333 550.333 612.333 555 633 c 0
 555.667 637.667 556 641.667 556 645 c 0
 556 660.333 547.667 668 531 668 c 0
 513.667 668 492.333 657 467 635 c 2
 429 602 l 1
 425 621 l 1
 411 657.667 385.333 678.667 348 684 c 1
 334 684 320.667 678.667 308 668 c 1
 287 635 l 1
 281 616 l 1
 305 618 l 2
 349 621.333 377.667 603 391 563 c 0
 399 537.667 400.667 514.667 396 494 c 0
 390.667 469.333 380.333 446.667 365 426 c 1
 341.667 388 302.333 366 247 360 c 1
 174.333 360 138 397.333 138 472 c 0
 138 492.667 140.667 516.333 146 543 c 0
 166 635.667 209.667 708.667 277 762 c 0
 306.333 785.333 337.333 797 370 797 c 0
 398.667 797 423 784.667 443 760 c 1
 462 721 l 1
 506.667 771.667 548.333 797 587 797 c 0
 623.667 797 651.667 782.333 671 753 c 0
 684.333 731.667 691 708.667 691 684 c 0
 691 673.333 689.667 662.333 687 651 c 1
 675 612 l 1
 660.333 588 642.667 550 622 498 c 1
 597 383 l 2
 600.333 397.667 624 438 668 504 c 0
 707.333 563.333 736 604.333 754 627 c 0
 847.333 741.667 931.333 799 1006 799 c 1
 1039 795 l 2
 1079 790.333 1106.67 769.667 1122 733 c 0
 1136 701.667 1138.67 665.667 1130 625 c 2
 997 0 l 1
318 492 m 0
 319.333 498.667 320 504.667 320 510 c 0
 320 532 308.333 543 285 543 c 0
 256.333 543 238.667 526 232 492 c 0
 230 484.667 229 478.333 229 473 c 0
 229 451 240.667 440 264 440 c 0
 292.667 440 310.667 457.333 318 492 c 0
EndSplineSet
EndChar
StartChar: uni0E12
Encoding: 222 3602
OldEncoding: 3602
Width: 1235
Flags: W
HStem: -14 102<703 726> 0 21G<178 371 971 1038> 775 20G<1125 1281>
VStem: 382 87<369 389> 561 89<424 457> 586 100<100 127> 787 94<164 190>
DStem: 434 287 588 299 335 150 371 0 771 547 928 541 720 307 885 340 1125 795 1281 795 1011 260 1133 100
Fore
1133 100 m 2
 1119 33.3333 1087.33 3.46945e-18 1038 0 c 2
 971 0 l 1
 973 55 l 1
 975 135 950 191.667 898 225 c 1
 871 236 l 1
 880 205 l 1
 880.667 194.333 881 183.333 881 172 c 0
 881 161.333 880.667 150.333 880 139 c 1
 865 100 l 1
 828.333 24 774.667 -14 704 -14 c 0
 625.333 -14 586 24 586 100 c 0
 586 119.333 588.667 141.333 594 166 c 0
 604.667 214.667 628.667 253 666 281 c 0
 673.333 286.333 691.333 295 720 307 c 1
 771 547 l 1
 779 582.333 779.333 612 772 636 c 0
 766.667 654.667 752.333 666.667 729 672 c 1
 712 674 l 1
 578 608 l 1
 479 672 l 1
 461 667.333 446.667 661.667 436 655 c 0
 402.667 633.667 374.667 597.667 352 547 c 1
 329 471 l 1
 319 422 l 1
 317 382.667 318.667 345 324 309 c 0
 332 249 335.667 209.333 335 190 c 1
 335 150 l 1
 434 287 l 1
 413 295 l 1
 392.333 311.667 382 336.667 382 370 c 0
 382 384 383.667 399.333 387 416 c 0
 395 452.667 413.833 483.333 443.5 508 c 0
 473.167 532.667 506.667 545 544 545 c 0
 614.667 545 650 515.667 650 457 c 0
 650 409.667 629.333 357 588 299 c 2
 371 0 l 1
 178 0 l 1
 185 53 l 2
 189.667 87.6667 191 122 189 156 c 1
 175 373 l 1
 172.333 417 175.333 455.667 184 489 c 2
 195 532 l 2
 199 548 205 563.333 213 578 c 1
 249 661.333 303 723.333 375 764 c 0
 424.333 791.333 458.333 803 477 799 c 1
 601 731 l 1
 737 799 l 1
 791 791 l 1
 887 765 935 702.333 935 603 c 0
 935 583.667 932.667 563 928 541 c 2
 885 340 l 1
 915 334 l 2
 958.333 325.333 988.667 305.333 1006 274 c 1
 1011 260 l 1
 1125 795 l 1
 1281 795 l 1
 1133 100 l 2
559 406 m 0
 560.333 412.667 561 418.667 561 424 c 0
 561 446 549.667 457 527 457 c 0
 512.333 457 499.333 450 488 436 c 1
 471 406 l 1
 469.667 399.333 469 393.667 469 389 c 0
 469 365.667 482.333 354 509 354 c 0
 535 354 551.667 371.333 559 406 c 0
783 147 m 0
 785.667 158.333 787 168.333 787 177 c 0
 787 203.667 775 217 751 217 c 0
 719 217 698.333 194.667 689 150 c 0
 687 141.333 686 133.667 686 127 c 0
 686 101 699.333 88 726 88 c 0
 756 88 775 107.667 783 147 c 0
EndSplineSet
EndChar
StartChar: uni0E13
Encoding: 223 3603
OldEncoding: 3603
Width: 1280
Flags: W
HStem: -8 21G<1061 1081> -2 82<299 330> 0 21G<592 760> 694 105<570 600> 775 20G<1072 1230>
VStem: 171 125<103 127> 712 162<585 615> 932 158<95 126>
DStem: 707 539 867 549 592 0 799 229 1072 795 1230 795 984 383 1149 416
Fore
1303 301 m 1
 1306 250 l 1
 1302 197 l 1
 1290.67 144.333 1268.33 99.3333 1235 62 c 0
 1198.33 20.6667 1155 -2 1105 -6 c 2
 1081 -8 l 1
 1061 -8 l 2
 974.333 -8 931.333 26.3333 932 95 c 0
 932 109 933.667 124.333 937 141 c 1
 957 233 l 1
 924 213 l 1
 894.667 189 867.667 159 843 123 c 2
 760 0 l 1
 592 0 l 1
 707 539 l 1
 710.333 556.333 712 572 712 586 c 0
 712 658 667.333 694 578 694 c 0
 538.667 694 498.333 686 457 670 c 1
 411 645 l 1
 473 598 l 1
 531 530 l 1
 487.667 527.333 455 511.667 433 483 c 1
 414.333 465 402 446 396 426 c 1
 377 369 l 1
 356 270 l 1
 378 270 392.333 268.667 399 266 c 0
 449 254 474 226 474 182 c 0
 474 172.667 472.667 162.667 470 152 c 0
 448.667 49.3333 391.667 -2 299 -2 c 0
 213.667 -2 171 36.3333 171 113 c 0
 171 131 173.333 151.333 178 174 c 2
 219 369 l 1
 237 422 l 1
 255.667 464 288.667 498 336 524 c 1
 353 530 l 1
 334 551 l 1
 284 592 l 1
 232 621 l 1
 197 639 l 1
 212.333 652.333 239.667 674.333 279 705 c 1
 378.333 767.667 484.667 799 598 799 c 0
 782 799 874 737.667 874 615 c 0
 874 594.333 871.667 572.333 867 549 c 1
 799 229 l 1
 811.667 247 825.667 263.667 841 279 c 1
 888 317 l 1
 952 365 l 1
 984 383 l 1
 1072 795 l 1
 1230 795 l 1
 1149 416 l 1
 1231 416 1282.33 377.667 1303 301 c 1
1179 131 m 1
 1199 186 l 1
 1201.67 200 1203 213 1203 225 c 0
 1203 251 1195.67 271.667 1181 287 c 1
 1148 305 l 1
 1126 307 l 1
 1092 145 l 2
 1090.67 137.667 1090 131.333 1090 126 c 0
 1090 104.667 1100.67 94 1122 94 c 0
 1144 94 1163 106.333 1179 131 c 1
353 186 m 0
 324.333 187.333 306 169.667 298 133 c 0
 296.667 125.667 296 119 296 113 c 0
 296 91 307.333 80 330 80 c 0
 361.333 80 380.667 97.6667 388 133 c 0
 395.333 167 383.667 184.667 353 186 c 0
EndSplineSet
MinimumDistance: x49,-1 
EndChar
StartChar: uni0E14
Encoding: 224 3604
OldEncoding: 3604
Width: 938
Flags: W
HStem: 0 21G<193 360 666 825> 483 90<548 579> 684 125<591 633>
VStem: 392 90<403 417> 594 97<448 478> 780 163<559 587>
DStem: 775 512 936 520 666 0 825 0
Fore
825 0 m 1
 666 0 l 1
 775 512 l 1
 778.333 529.333 780 545.333 780 560 c 0
 780 642.667 722 684 606 684 c 0
 464.667 684 377.667 627.333 345 514 c 2
 334 475 l 1
 327.333 453 326.667 420.333 332 377 c 2
 341 305 l 1
 341 188 l 1
 339 162 l 1
 404 233 l 1
 463 301 l 1
 422 330 l 1
 402 351.333 392 376.333 392 405 c 0
 392 414.333 393 424 395 434 c 1
 414 483 l 1
 444.667 543 499.667 573 579 573 c 0
 653.667 573 691 541.333 691 478 c 0
 691 464 689.333 448.667 686 432 c 0
 673.333 372 644 316.667 598 266 c 2
 493 152 l 1
 360 0 l 1
 193 0 l 1
 198 68 l 1
 203.333 130 203.667 178.333 199 213 c 1
 183 346 l 1
 176.333 395.333 177 439 185 477 c 1
 195 522 l 1
 210 553 l 1
 272.667 723.667 413 809 631 809 c 0
 716.333 809 786.333 793.667 841 763 c 0
 909 724.333 943 665.667 943 587 c 0
 943 566.333 940.667 544 936 520 c 1
 825 0 l 1
484 430 m 0
 482.667 423.333 482 417.667 482 413 c 0
 482 389 496 377 524 377 c 0
 561.333 377 584 395.333 592 432 c 0
 593.333 438 594 443.333 594 448 c 0
 594 471.333 579 483 549 483 c 0
 513.667 483 492 465.333 484 430 c 0
EndSplineSet
EndChar
StartChar: uni0E15
Encoding: 225 3605
OldEncoding: 3605
Width: 958
Flags: W
HStem: 0 21G<203 403 692 848>
DStem: 807 541 963 541 692 0 848 0
Fore
848 0 m 1
 692 0 l 1
 807 541 l 1
 811 561 813 576 813 586 c 0
 814.333 593.333 815 600 815 606 c 0
 815 632.667 801.667 653.333 775 668 c 1
 750 676 l 1
 605 610 l 1
 490 676 l 1
 464 667.333 444 656.333 430 643 c 0
 382 598.333 350.333 539.667 335 467 c 1
 326 422 l 1
 327.333 398.667 331.667 360.333 339 307 c 1
 351 261.667 358.333 220 361 182 c 1
 364 131 l 1
 389 174 l 1
 472 293 l 1
 453.333 300.333 438.667 310 428 322 c 0
 401.333 354 392.667 392 402 436 c 0
 410 474 430.833 505.667 464.5 531 c 0
 498.167 556.333 534.667 569 574 569 c 0
 592.667 569 611.667 565.667 631 559 c 1
 657 555 674.667 537 684 505 c 0
 691.333 479 692 452 686 424 c 0
 678 386.667 660.667 351 634 317 c 2
 575 242 l 1
 507 152 l 1
 466 94 l 1
 403 0 l 1
 203 0 l 1
 213 66 l 2
 217.667 96 217.667 126 213 156 c 1
 184 354 l 1
 179.333 389.333 181.333 428.333 190 471 c 0
 214 584.333 269 672.333 355 735 c 0
 416.333 779.667 463 802 495 802 c 0
 500.333 802 505.333 801.667 510 801 c 1
 630 739 l 1
 778 801 l 1
 809 799 l 1
 899 782.333 951 732.333 965 649 c 0
 971 612.333 970.333 576.333 963 541 c 2
 848 0 l 1
598 432 m 0
 599.333 438.667 600 444.333 600 449 c 0
 600 473 586 485 558 485 c 0
 525.333 485 502.667 466 490 428 c 0
 488.667 422 488 416.333 488 411 c 0
 488 387 503 375 533 375 c 0
 568.333 375 590 394 598 432 c 0
EndSplineSet
EndChar
StartChar: uni0E16
Encoding: 226 3606
OldEncoding: 3606
Width: 887
Flags: W
HStem: -4 88<296 333> 0 21G<623 778> 694 109<573 609>
VStem: 174 117<111 125> 400 87<152 181>
DStem: 739 547 895 549 623 0 778 0
Fore
778 0 m 1
 623 0 l 1
 739 547 l 1
 742.333 561 744 574.333 744 587 c 0
 744 658.333 692 694 588 694 c 0
 516 694 457.333 675.667 412 639 c 1
 434 627 l 2
 456 615 484.667 589 520 549 c 2
 530 537 l 1
 500 524 l 1
 451.333 498 416 463.333 394 420 c 1
 377 369 l 1
 359 281 l 1
 405 279 l 1
 459.667 267 487 234.333 487 181 c 0
 487 168.333 485.667 154.333 483 139 c 0
 462.333 43.6667 400 -4 296 -4 c 0
 215.333 -4 174.667 35 174 113 c 0
 174 134.333 177 158.667 183 186 c 1
 221 369 l 1
 240 422 l 1
 258 464 290.667 498 338 524 c 1
 355 530 l 1
 336 551 l 1
 286 592 l 1
 234 621 l 1
 199 639 l 1
 221.667 663 249.667 685.667 283 707 c 0
 383.667 771 491.667 803 607 803 c 0
 685.667 803 750.667 789.667 802 763 c 0
 868 729 901 676.333 901 605 c 0
 901 587.667 899 569 895 549 c 1
 778 0 l 1
355 188 m 0
 327.667 188 307 170.333 293 135 c 0
 291.667 129 291 123.667 291 119 c 0
 291 95.6667 305 84 333 84 c 0
 369 84 390.667 101 398 135 c 0
 399.333 141 400 146.667 400 152 c 0
 400 176 385 188 355 188 c 0
EndSplineSet
EndChar
StartChar: uni0E17
Encoding: 227 3607
OldEncoding: 3607
Width: 965
Flags: W
HStem: 0 21G<213 371 692 848>
VStem: 181 101<612 637> 390 116<656 678>
DStem: 812 565 977 608 692 0 848 0
Fore
848 0 m 1
 692 0 l 1
 812 565 l 2
 816.667 586.333 819 604.667 819 620 c 0
 819 654.667 806.667 672 782 672 c 0
 744.667 672 699.667 638.333 647 571 c 0
 612.333 525.667 569.333 454 518 356 c 0
 491.333 306 456 230.333 412 129 c 1
 371 0 l 1
 213 0 l 1
 320 504 l 1
 302 504 l 1
 266 508 240.333 515.333 225 526 c 0
 195.667 546 181 574.667 181 612 c 0
 181 623.333 182.333 635.667 185 649 c 1
 197 688 l 1
 229 760.667 284.667 797 364 797 c 0
 458.667 797 506 756 506 674 c 0
 506 655.333 503.667 634.667 499 612 c 2
 474 492 l 1
 465 442 l 1
 492.333 518 520.333 573.333 549 608 c 1
 551 612 567.667 632 599 668 c 0
 675 755.333 758 799 848 799 c 0
 939.333 799 985 757.667 985 675 c 0
 985 655 982.333 632.667 977 608 c 2
 848 0 l 1
388 651 m 0
 389.333 657.667 390 663.667 390 669 c 0
 390 693 376.333 705 349 705 c 0
 313 705 291.333 688.333 284 655 c 0
 282.667 648.333 282 642.333 282 637 c 0
 282 612.333 297 600 327 600 c 0
 361 600 381.333 617 388 651 c 0
EndSplineSet
EndChar
StartChar: uni0E18
Encoding: 228 3608
OldEncoding: 3608
Width: 864
Flags: W
HStem: 0 104<125 278 436 539> 694 105<519 539>
DStem: 371 532 521 504 278 104 436 104 669 389 823 377 626 190 780 174
Fore
371 532 m 1
 335.667 536.667 300.333 544.333 265 555 c 2
 219 569 l 1
 233 634.333 273 689.667 339 735 c 0
 401.667 777.667 467.667 799 537 799 c 0
 562.333 799 605 789.667 665 771 c 0
 722.333 753.667 762 746 784 748 c 2
 832 752 l 1
 852.667 756 874 764.667 896 778 c 1
 922 799 l 1
 947 698 l 1
 911 668 871.667 649.667 829 643 c 1
 793.667 643 742.167 651.5 674.5 668.5 c 0
 606.833 685.5 555.667 694 521 694 c 0
 482.333 694 450.333 681.667 425 657 c 1
 407 637 l 1
 479 625 l 2
 533 615.667 597 598.333 671 573 c 0
 775 537 827 483.333 827 412 c 0
 827 400.667 825.667 389 823 377 c 2
 780 174 l 2
 755.333 58 698.667 0 610 0 c 2
 104 0 l 1
 126 104 l 1
 278 104 l 1
 371 532 l 1
521 504 m 1
 436 104 l 1
 522 104 l 2
 579.333 104 614 132.667 626 190 c 1
 669 389 l 2
 673.667 411.667 671.667 428.667 663 440 c 0
 647 459.333 599.667 480.667 521 504 c 1
EndSplineSet
MinimumDistance: x19,-1 
EndChar
StartChar: uni0E19
Encoding: 229 3609
OldEncoding: 3609
Width: 991
Flags: W
HStem: 0 21G<207 365> 775 20G<787 943>
VStem: 177 99<612 637> 384 118<656 675>
DStem: 316 504 495 612 207 0 419 254 787 795 943 795 714 453 874 461
Fore
954 103 m 0
 932 65.6667 905.833 38.1667 875.5 20.5 c 0
 845.167 2.83333 812.333 -6 777 -6 c 0
 709 -6 667 24.6667 651 86 c 1
 649.667 97.3333 649 108.667 649 120 c 0
 649 137.333 651 154.667 655 172 c 1
 685 315 l 1
 663 307 l 1
 607.667 279.667 546 227.333 478 150 c 0
 406.667 68.6667 369 18.6667 365 0 c 1
 207 0 l 1
 316 504 l 1
 297 504 l 1
 261.667 508 236.333 515.333 221 526 c 0
 191.667 546 177 574.667 177 612 c 0
 177 623.333 178.333 635.667 181 649 c 1
 193 688 l 1
 225 760.667 280.333 797 359 797 c 0
 455 797 502.667 755.333 502 672 c 0
 502 654 499.667 634 495 612 c 2
 419 254 l 1
 451 283 l 2
 521 345.667 591.333 394 662 428 c 2
 714 453 l 1
 787 795 l 1
 943 795 l 1
 874 461 l 1
 917 444 l 2
 979 420 1010 371.333 1010 298 c 0
 1010 230 991.333 165 954 103 c 0
912 272 m 1
 914 297.333 909.667 315.667 899 327 c 0
 888.333 338.333 871.333 342.667 848 340 c 1
 805 145 l 2
 799.667 121 807 107.333 827 104 c 1
 845 104 863 119 881 149 c 0
 903 185.667 914 222.333 914 259 c 0
 914 265 913.333 269.333 912 272 c 1
382 651 m 0
 383.333 657.667 384 663.667 384 669 c 0
 384 693 370.333 705 343 705 c 0
 307 705 285.333 688.333 278 655 c 0
 276.667 648.333 276 642.333 276 637 c 0
 276 612.333 291 600 321 600 c 0
 355 600 375.333 617 382 651 c 0
EndSplineSet
MinimumDistance: x25,-1 
EndChar
StartChar: uni0E1A
Encoding: 230 3610
OldEncoding: 3610
Width: 961
Flags: W
HStem: 0 109<155 252 408 646> 702 95<359 380> 775 20G<857 1013>
VStem: 197 98<614 635> 404 118<654 677>
DStem: 336 504 515 612 252 109 408 109 857 795 1013 795 729 195 873 137
Fore
873 137 m 2
 858.333 69 820.667 26 760 8 c 1
 709 0 l 1
 133 0 l 1
 156 109 l 1
 252 109 l 1
 336 504 l 1
 285 504 l 1
 271.667 506.667 257 514 241 526 c 0
 211.667 548 197 577.333 197 614 c 0
 197 625.333 198.333 637 201 649 c 1
 218 698 l 2
 228 726.667 250.333 750.667 285 770 c 0
 316.333 788 348 797 380 797 c 0
 474.667 797 522 756 522 674 c 0
 522 655.333 519.667 634.667 515 612 c 2
 408 109 l 1
 639 109 l 2
 680.333 109 707.333 126.667 720 162 c 1
 729 195 l 1
 857 795 l 1
 1013 795 l 1
 873 137 l 2
402 649 m 0
 403.333 655 404 660.667 404 666 c 0
 404 690 389.333 702 360 702 c 0
 324.667 702 303.667 685.667 297 653 c 0
 295.667 646.333 295 640.333 295 635 c 0
 295 610.333 309.333 598 338 598 c 0
 373.333 598 394.667 615 402 649 c 0
EndSplineSet
EndChar
StartChar: uni0E1B
Encoding: 231 3611
OldEncoding: 3611
Width: 961
Flags: W
HStem: 0 109<155 252 408 646>
VStem: 197 98<614 637> 404 118<656 677>
DStem: 336 504 515 612 252 109 408 109 939 1182 1095 1182 729 195 873 137
Fore
873 137 m 2
 858.333 69 820.667 26 760 8 c 1
 709 0 l 1
 133 0 l 1
 156 109 l 1
 252 109 l 1
 336 504 l 1
 285 504 l 1
 271.667 506.667 257 514 241 526 c 0
 211.667 548 197 577.333 197 614 c 0
 197 625.333 198.333 637 201 649 c 1
 218 698 l 2
 228 726.667 250.333 750.667 285 770 c 0
 316.333 788 348 797 380 797 c 0
 474.667 797 522 756 522 674 c 0
 522 655.333 519.667 634.667 515 612 c 2
 408 109 l 1
 639 109 l 2
 680.333 109 707.333 126.667 720 162 c 1
 729 195 l 1
 939 1182 l 1
 1095 1182 l 1
 873 137 l 2
402 651 m 0
 403.333 657.667 404 663.667 404 669 c 0
 404 693 389.667 705 361 705 c 0
 325.667 705 304.333 688.333 297 655 c 0
 295.667 648.333 295 642.333 295 637 c 0
 295 612.333 309.667 600 339 600 c 0
 374.333 600 395.333 617 402 651 c 0
EndSplineSet
EndChar
StartChar: uni0E1C
Encoding: 232 3612
OldEncoding: 3612
Width: 901
Flags: W
HStem: 0 21G<123 283 629 786> 775 20G<798 955>
DStem: 253 612 388 504 123 0 330 229 798 795 955 795 678 229 786 0
Fore
786 0 m 1
 629 0 l 1
 627 34.6667 621 64.6667 611 90 c 2
 583 162 l 1
 538 248 l 1
 515 281 l 1
 459 231 l 1
 394 160 l 1
 332 78 l 1
 283 0 l 1
 123 0 l 1
 253 612 l 2
 279 735.333 350.667 797 468 797 c 0
 546 797 585.333 760.667 586 688 c 1
 582 647 l 1
 570 592.333 539.667 552 491 526 c 0
 471 515.333 451.333 508.667 432 506 c 1
 388 504 l 1
 330 229 l 1
 362 266 l 1
 432 338 l 1
 494 393 l 1
 547 432 l 1
 571 403 l 1
 625 338 l 2
 638.333 322 652.667 294 668 254 c 2
 678 229 l 1
 798 795 l 1
 955 795 l 1
 786 0 l 1
449 705 m 0
 415 705 394 687 386 651 c 0
 384.667 645 384 639.667 384 635 c 0
 384 611.667 398.333 600 427 600 c 0
 454.333 600 474.667 617 488 651 c 1
 489.333 657.667 490 663.667 490 669 c 0
 490 693 476.333 705 449 705 c 0
EndSplineSet
EndChar
StartChar: uni0E1D
Encoding: 233 3613
OldEncoding: 3613
Width: 901
Flags: W
HStem: 0 21G<123 283 629 786>
DStem: 253 612 388 504 123 0 330 231 882 1188 1039 1188 679 233 786 0
Fore
786 0 m 1
 629 0 l 1
 614 76 l 2
 604.667 124.667 579 181.333 537 246 c 2
 515 281 l 1
 461 231 l 1
 395 164 l 1
 361 121.333 339 92 329 76 c 2
 283 0 l 1
 123 0 l 1
 253 612 l 2
 279 735.333 350.667 797 468 797 c 0
 546 797 585.333 760.667 586 688 c 1
 582 647 l 1
 570 592.333 539.667 552 491 526 c 0
 471 515.333 451.333 508.667 432 506 c 1
 388 504 l 1
 330 231 l 1
 364 268 l 2
 389.333 296 411.667 318.667 431 336 c 2
 488 387 l 1
 547 432 l 1
 573 403 l 2
 598.333 373.667 615 352 623 338 c 2
 679 233 l 1
 882 1188 l 1
 1039 1188 l 1
 786 0 l 1
453 707 m 0
 419 707 398.333 689 391 653 c 0
 389.667 647 389 641.667 389 637 c 0
 389 613.667 403 602 431 602 c 0
 458.333 602 479 619 493 653 c 1
 494.333 659.667 495 665.667 495 671 c 0
 495 695 481 707 453 707 c 0
EndSplineSet
EndChar
StartChar: uni0E1E
Encoding: 234 3614
OldEncoding: 3614
Width: 997
Flags: W
HStem: 0 21G<211 369 731 887> 512 92<307 320> 775 20G<665 761>
VStem: 385 121<671 684>
DStem: 320 512 499 621 211 0 443 358 665 795 674 598 443 358 369 0 674 598 761 795 731 0 805 358 898 793 1056 793 805 358 887 0
Fore
887 0 m 1
 731 0 l 1
 674 598 l 1
 369 0 l 1
 211 0 l 1
 320 512 l 1
 281 512 l 2
 245 512 218 526.667 200 556 c 0
 182 585.333 176.667 617.667 184 653 c 1
 194 684 l 1
 220 759.333 276.667 797 364 797 c 0
 458.667 797 506 757.333 506 678 c 0
 506 660.667 503.667 641.667 499 621 c 1
 443 358 l 1
 665 795 l 1
 761 795 l 1
 805 358 l 1
 898 793 l 1
 1056 793 l 1
 887 0 l 1
344 709 m 0
 316.667 709 295.333 691 280 655 c 1
 278.667 649 278 643.667 278 639 c 0
 278 615.667 292.333 604 321 604 c 0
 347.667 604 368.333 621 383 655 c 1
 384.333 661.667 385 667.667 385 673 c 0
 385 697 371.333 709 344 709 c 0
EndSplineSet
EndChar
StartChar: uni0E1F
Encoding: 235 3615
OldEncoding: 3615
Width: 1006
Flags: W
HStem: 0 21G<209 367 729 885> 512 92<305 318> 775 20G<663 759>
VStem: 381 123<671 684>
DStem: 318 512 497 621 209 0 441 358 663 795 672 598 441 358 367 0 672 598 759 795 729 0 803 358 994 1257 1152 1257 803 358 885 0
Fore
885 0 m 1
 729 0 l 1
 672 598 l 1
 367 0 l 1
 209 0 l 1
 318 512 l 1
 279 512 l 2
 243 512 216 526.667 198 556 c 0
 180 585.333 174.667 617.667 182 653 c 1
 192 684 l 1
 218 759.333 274.667 797 362 797 c 0
 456.667 797 504 757.333 504 678 c 0
 504 660.667 501.667 641.667 497 621 c 1
 441 358 l 1
 663 795 l 1
 759 795 l 1
 803 358 l 1
 994 1257 l 1
 1152 1257 l 1
 885 0 l 1
339 709 m 0
 311.667 709 290.667 691 276 655 c 0
 274.667 649 274 643.667 274 639 c 0
 274 615.667 288 604 316 604 c 0
 343.333 604 364.333 621 379 655 c 1
 380.333 661.667 381 667.667 381 673 c 0
 381 697 367 709 339 709 c 0
EndSplineSet
EndChar
StartChar: uni0E20
Encoding: 236 3616
OldEncoding: 3616
Width: 909
Flags: W
HStem: -4 84<201 218> 0 21G<639 797> 696 105<616 651>
VStem: 89 92<87 112> 762 159<592 616>
DStem: 755 547 914 549 639 0 797 0
Fore
797 0 m 1
 639 0 l 1
 755 547 l 1
 759.667 567.667 762 585.667 762 601 c 0
 762 664.333 718.333 696 631 696 c 0
 575 696 525 685.333 481 664 c 1
 454 645 l 1
 473 633 l 1
 518 596 l 1
 571 537 l 1
 541 524 l 2
 486.333 500 446 448.333 420 369 c 1
 374 150 l 1
 352 47.3333 294.667 -4 202 -4 c 0
 126.667 -4 89 26.3333 89 87 c 0
 89 99.6667 90.3333 113.667 93 129 c 1
 105 166 l 2
 118.333 207.333 145.667 236.667 187 254 c 1
 240 264 l 1
 262 369 l 1
 280 422 l 1
 302.667 473.333 336.333 507.333 381 524 c 2
 398 530 l 1
 379 551 l 2
 363.667 568.333 345.667 582.667 325 594 c 2
 281 618 l 1
 240 639 l 1
 258 659 286 681 324 705 c 0
 425.333 769 533.667 801 649 801 c 0
 831 801 921.667 739.333 921 616 c 0
 921 595.333 918.667 573 914 549 c 1
 797 0 l 1
237 178 m 0
 208.333 178 190.333 161.667 183 129 c 0
 181.667 122.333 181 116.667 181 112 c 0
 181 90.6667 192.667 80 216 80 c 0
 244.667 80 262.333 96.3333 269 129 c 0
 270.333 135.667 271 141.333 271 146 c 0
 271 167.333 259.667 178 237 178 c 0
EndSplineSet
EndChar
StartChar: uni0E21
Encoding: 237 3617
OldEncoding: 3617
Width: 961
Flags: W
HStem: -6 110<249 268> 512 90<370.986 385> 775 20G<859 1015>
VStem: 448 123<665 680>
DStem: 859 795 1015 795 734 209 876 143
Fore
876 143 m 1
 863.333 81.6667 833 38 785 12 c 1
 757.667 1.33333 730.667 -4 704 -4 c 0
 649.333 -4 613 17.6667 595 61 c 2
 568 127 l 1
 550.667 187.667 533.667 226.667 517 244 c 2
 490 272 l 1
 466 158 l 1
 452.667 97.3333 419.667 52.3333 367 23 c 0
 331.667 3.66667 293 -6 251 -6 c 0
 173 -6 127 31.3333 113 106 c 1
 111 142 113 174.333 119 203 c 0
 143 316.333 213.667 388.667 331 420 c 1
 366 424 l 1
 385 512 l 1
 347 512 l 2
 311 512 284 526.667 266 556 c 0
 248 585.333 242.667 617.667 250 653 c 1
 260 684 l 1
 286 759.333 342.333 797 429 797 c 0
 523.667 797 571 757.333 571 678 c 0
 571 660.667 568.667 641.667 564 621 c 1
 520 414 l 1
 552 401 l 1
 584.667 379.667 609.333 351 626 315 c 2
 666 227 l 2
 679.333 198.333 691.667 177.333 703 164 c 1
 719 176 l 1
 734 209 l 1
 859 795 l 1
 1015 795 l 1
 876 143 l 1
309 154 m 1
 341 305 l 1
 303 307 l 2
 286.333 307.667 268.333 289.333 249 252 c 1
 226 190 l 1
 223.333 175.333 222 162.333 222 151 c 0
 222 119.667 234.667 104 260 104 c 0
 285.333 104 301.667 120.667 309 154 c 1
406 707 m 0
 378.667 707 358 689 344 653 c 0
 342.667 647 342 641.667 342 637 c 0
 342 613.667 356 602 384 602 c 0
 411.333 602 432 619 446 653 c 1
 447.333 659.667 448 665.667 448 671 c 0
 448 695 434 707 406 707 c 0
EndSplineSet
EndChar
StartChar: uni0E22
Encoding: 238 3618
OldEncoding: 3618
Width: 879
Flags: W
HStem: 0 109<314 588> 305 101<468 530> 775 20G<781 937>
DStem: 781 795 937 795 653 193 804 168
Fore
804 168 m 2
 780 56 710.667 0 596 0 c 2
 133 0 l 1
 175 199 l 2
 185.667 248.333 213.667 290.667 259 326 c 0
 290.333 350 323.333 362 358 362 c 0
 288 362 246 399.667 232 475 c 1
 230 498.333 231.667 521.667 237 545 c 1
 251 612 l 1
 263 666.667 289 711.167 329 745.5 c 0
 369 779.833 416.667 797 472 797 c 0
 550 797 590 760.667 592 688 c 1
 588 643 l 1
 574.667 581.667 544.333 542.667 497 526 c 2
 457 512 l 1
 417 508 l 1
 391 510 l 1
 383 512 l 1
 380 465 l 1
 383.333 447.667 395.667 433 417 421 c 0
 436.333 411 455.667 406 475 406 c 2
 551 406 l 1
 530 305 l 1
 448 305 l 2
 415.333 305 386.333 291.333 361 264 c 1
 351 249.333 342.333 230.333 335 207 c 1
 314 109 l 1
 579 111 l 2
 594.333 111 610 121 626 141 c 0
 640.667 159 649.667 176.333 653 193 c 2
 781 795 l 1
 937 795 l 1
 804 168 l 2
454 702 m 0
 426.667 702 406 684.333 392 649 c 0
 390.667 643 390 637.667 390 633 c 0
 390 609.667 404 598 432 598 c 0
 467.333 598 488.667 615 496 649 c 0
 497.333 655 498 660.667 498 666 c 0
 498 690 483.333 702 454 702 c 0
EndSplineSet
EndChar
StartChar: uni0E23
Encoding: 239 3619
OldEncoding: 3619
Width: 737
Flags: W
HStem: -2 90<441 463> 193 90<475 497> 649 109<715 732 747 749> 705 98<475 497>
Fore
854 692 m 1
 796 662 l 1
 774 653.333 752 649 730 649 c 0
 701.333 649 650.667 661.333 578 686 c 0
 540.667 698.667 507.333 705 478 705 c 0
 442 705 413 697.333 391 682 c 1
 353 651 l 1
 424 643 l 2
 457.333 639 500.167 626.333 552.5 605 c 0
 604.833 583.667 643.667 562.667 669 542 c 0
 697 519.333 711 492.333 711 461 c 0
 711 453 710.333 444.667 709 436 c 1
 653 174 l 1
 628.333 56.6667 558 -2 442 -2 c 0
 360 -2 319.667 35.6667 321 111 c 1
 325 139 l 1
 329.667 175.667 348.333 208.833 381 238.5 c 0
 413.667 268.167 448.667 283 486 283 c 2
 519 283 l 1
 542 391 l 2
 547.333 417 549 437.667 547 453 c 0
 546.333 477 511 502.667 441 530 c 1
 341 557 l 1
 260 571 l 1
 208 573 l 1
 172 571 l 1
 180 595.667 187.333 613.667 194 625 c 0
 239.333 707.667 306.667 762 396 788 c 0
 431.333 798 464.333 803 495 803 c 0
 521 803 564 794 624 776 c 0
 677.333 760 718.333 754 747 758 c 1
 765.667 758 784.667 764 804 776 c 1
 827 799 l 1
 854 692 l 1
483 193 m 0
 455.667 193 435 175 421 139 c 0
 419.667 133 419 127.667 419 123 c 0
 419 99.6667 433 88 461 88 c 0
 497 88 518.667 105 526 139 c 0
 527.333 145 528 150.667 528 156 c 0
 528 180.667 513 193 483 193 c 0
EndSplineSet
EndChar
StartChar: uni0E24
Encoding: 240 3620
OldEncoding: 3620
Width: 905
Flags: W
HStem: -4 88<298 335> 698 103<590 612>
VStem: 178 115<113 126> 402 89<152 181> 748 157<585 605>
DStem: 743 547 899 549 565 -291 720 -291
Fore
720 -291 m 1
 565 -291 l 1
 743 547 l 1
 746.333 561.667 748 575 748 587 c 0
 748.667 661 696.667 698 592 698 c 0
 548.667 698 507 689.333 467 672 c 1
 452.333 668 436 659 418 645 c 1
 479 598 l 2
 491 588.667 506.333 572.333 525 549 c 2
 534 537 l 1
 504 524 l 1
 454 496.667 418.667 462 398 420 c 1
 381 369 l 1
 363 281 l 1
 409 279 l 1
 463.667 267 491 234.333 491 181 c 0
 491 168.333 489.667 154.333 487 139 c 0
 466.333 43.6667 403.333 -4 298 -4 c 0
 218 -4 178 35.6667 178 115 c 0
 178 135.667 181 159.333 187 186 c 1
 225 369 l 1
 244 422 l 1
 262 464 294.667 498 342 524 c 1
 359 530 l 1
 340 551 l 1
 290 592 l 1
 238 621 l 1
 204 639 l 1
 248.667 686.333 311.333 725.333 392 756 c 0
 468.667 786 541.333 801 610 801 c 0
 688 801 753 787.667 805 761 c 0
 871.667 726.333 905 673.667 905 603 c 0
 905 586.333 903 568.333 899 549 c 2
 720 -291 l 1
357 188 m 0
 329.667 188 309 170.333 295 135 c 0
 293.667 129 293 123.667 293 119 c 0
 293 95.6667 307 84 335 84 c 0
 371 84 392.667 101 400 135 c 0
 401.333 141 402 146.667 402 152 c 0
 402 176 387 188 357 188 c 0
EndSplineSet
EndChar
StartChar: uni0E25
Encoding: 241 3621
OldEncoding: 3621
Width: 883
Flags: W
HStem: -7.99999 90<300 322> 0 21G<602 760> 442 121<439 474> 694 115<547 597>
Fore
760 0 m 1
 602 0 l 1
 615 63 l 2
 623.667 103.667 619.333 156.333 602 221 c 0
 602 224.333 595.333 248.333 582 293 c 0
 553.333 392.333 506 442 440 442 c 0
 396.667 442 368 408.667 354 342 c 1
 340 279 l 1
 369 281 l 2
 433.667 285.667 472 255.333 484 190 c 1
 487 158 l 1
 483 133 l 1
 477.667 90.3333 457.167 56.1667 421.5 30.5 c 0
 385.833 4.83333 345.667 -8 301 -8 c 0
 212.333 -8 166.667 37.6667 164 129 c 0
 162.667 180.333 171.333 239.333 190 306 c 0
 210 378.667 235 431.667 265 465 c 0
 323.667 530.333 393.333 563 474 563 c 0
 527.333 563 571.667 546.667 607 514 c 0
 625.667 497.333 643 470.667 659 434 c 2
 683 381 l 1
 711 514 l 2
 715.667 535.333 718 555 718 573 c 0
 718 653.667 670.667 694 576 694 c 0
 436.667 694 342.667 660 294 592 c 1
 209 653 l 1
 231 680 l 2
 299.667 766 418.667 809 588 809 c 0
 762 809 859 755 879 647 c 0
 884.333 615 879.333 561.667 864 487 c 1
 760 0 l 1
345 188 m 0
 311 188 290.333 170.333 283 135 c 0
 281.667 128.333 281 122.667 281 118 c 0
 281 94 294.667 82 322 82 c 0
 352 82 373.667 99.6667 387 135 c 0
 388.333 141 389 146.667 389 152 c 0
 389 176 374.333 188 345 188 c 0
EndSplineSet
EndChar
StartChar: uni0E26
Encoding: 242 3622
OldEncoding: 3622
Width: 922
Flags: W
HStem: -4 86<209 226> 698 105<638 660>
VStem: 97 91<87 114> 770 160<594 619>
DStem: 763 547 922 549 582 -305 740 -305
Fore
740 -305 m 1
 582 -305 l 1
 763 547 l 2
 767.667 568.333 770 587.333 770 604 c 0
 770 666.667 726.667 698 640 698 c 0
 593.333 698 550.667 689.333 512 672 c 1
 497.333 668 481 658.333 463 643 c 1
 486 629 l 1
 523 600 l 2
 535 590 550.667 573 570 549 c 2
 579 537 l 1
 549 524 l 2
 494.333 500 454 448.333 428 369 c 1
 382 150 l 1
 360 47.3333 302.667 -4 210 -4 c 0
 134.667 -4 97 26.3333 97 87 c 0
 97 99.6667 98.3333 113.667 101 129 c 1
 113 166 l 2
 126.333 207.333 153.667 236.667 195 254 c 1
 249 264 l 1
 271 369 l 1
 289 422 l 1
 309.667 472 343.333 506 390 524 c 2
 406 530 l 1
 387 551 l 2
 371.667 568.333 353.667 582.667 333 594 c 2
 289 618 l 1
 249 639 l 1
 277.667 671 323 702.333 385 733 c 0
 478.333 779.667 569.333 803 658 803 c 0
 839.333 803 930 741 930 617 c 0
 930 596.333 927.333 573.667 922 549 c 2
 740 -305 l 1
245 180 m 0
 215 180 196.667 163.667 190 131 c 0
 188.667 125 188 119.333 188 114 c 0
 188 92.6667 200 82 224 82 c 0
 252.667 82 270.667 98.3333 278 131 c 0
 279.333 137.667 280 143.333 280 148 c 0
 280 169.333 268.333 180 245 180 c 0
EndSplineSet
EndChar
StartChar: uni0E27
Encoding: 243 3623
OldEncoding: 3623
Width: 793
Flags: W
HStem: -2 88<513 532> 190 93<545 563>
DStem: 635 494 796 508 590 283 725 174
Fore
725 174 m 2
 700.333 56.6667 630 -2 514 -2 c 0
 437.333 -2 397 35.6667 393 111 c 1
 395 141 l 1
 409 208.333 443.667 251.333 499 270 c 0
 524.333 278.667 544 283 558 283 c 2
 590 283 l 1
 635 494 l 2
 649 560 647.333 607.667 630 637 c 0
 610 671 566.667 688 500 688 c 0
 395.333 688 323.333 646.333 284 563 c 1
 162 616 l 1
 173 641 l 1
 220.333 715.667 296 764 400 786 c 0
 448 796 490.667 801 528 801 c 0
 587.333 801 640 794 686 780 c 0
 696.667 776.667 709 770.667 723 762 c 0
 769 734 796.667 699 806 657 c 0
 813.333 623 810 573.333 796 508 c 2
 725 174 l 2
552 190 m 0
 524.667 190 504 172.333 490 137 c 0
 488.667 131 488 125.667 488 121 c 0
 488 97.6667 502 86 530 86 c 0
 565.333 86 586.667 103 594 137 c 0
 595.333 143 596 148.667 596 154 c 0
 596 178 581.333 190 552 190 c 0
EndSplineSet
EndChar
StartChar: uni0E28
Encoding: 244 3624
OldEncoding: 3624
Width: 936
Flags: W
HStem: 0 21G<190 356 672 827> 469 92<579 594> 692 111<593 635>
DStem: 788 555 942 543 672 0 827 0
Fore
622 582 m 1
 699 651 l 1
 735 674 l 1
 709 686 663.333 692 598 692 c 0
 468 692 384 630.667 346 508 c 1
 339.333 476 333.667 427 329 361 c 0
 323.667 285.667 325 240.333 333 225 c 1
 339 252.333 344.333 271.667 349 283 c 1
 401.667 468.333 483.333 561 594 561 c 1
 622 582 l 1
1110 877 m 1
 1100 856 l 2
 1082.67 820.667 1055 788 1017 758 c 2
 956 709 l 1
 927 690 l 1
 932 678 l 2
 944.667 650 950.333 628 949 612 c 1
 942 543 l 1
 827 0 l 1
 672 0 l 1
 788 555 l 1
 790.667 569 790.667 581.333 788 592 c 2
 784 606 l 1
 686 532 l 1
 694.667 524 701.667 512 707 496 c 1
 714 459 l 1
 710 420 l 1
 696.667 357.333 658 315 594 293 c 0
 582.667 289 564.333 285.667 539 283 c 1
 517 283 502.333 284.333 495 287 c 1
 474 301 l 1
 448 248 l 1
 418 176 l 1
 386 90 l 1
 356 0 l 1
 190 0 l 1
 205 70 l 1
 207.667 94 208.667 123.333 208 158 c 1
 206 170.667 204.333 182.333 203 193 c 1
 189 330 l 2
 183.667 383.333 188 442.667 202 508 c 0
 222.667 604.667 275 679.333 359 732 c 0
 435 779.333 525.333 803 630 803 c 0
 691.333 803 739.667 797.333 775 786 c 2
 831 768 l 1
 854 780 l 1
 890 813 l 1
 932 864 l 1
 938 877 l 1
 1110 877 l 1
581 469 m 0
 547 469 526.333 452.667 519 420 c 0
 518.333 414.667 518 409.667 518 405 c 0
 518 382.333 532 371 560 371 c 0
 592.667 371 612.333 387.333 619 420 c 0
 620.333 426 621 431.333 621 436 c 0
 621 458 607.667 469 581 469 c 0
EndSplineSet
EndChar
StartChar: uni0E29
Encoding: 245 3625
OldEncoding: 3625
Width: 999
Flags: W
HStem: 0 109<157 254 410 653> 705 92<361 382> 775 20G<859 1015>
VStem: 200 95<614 637> 404 120<656 677> 505 87<402 425>
DStem: 338 504 517 612 254 109 410 109 859 795 1015 795 768 365 933 410
Fore
1144 469 m 1
 1121 430 l 1
 1099 401.333 1067 372.667 1025 344 c 0
 993.667 322 967 307 945 299 c 2
 907 285 l 1
 875 137 l 2
 860.333 69 822.667 26 762 8 c 1
 711 0 l 1
 135 0 l 1
 158 109 l 1
 254 109 l 1
 338 504 l 1
 287 504 l 1
 273 506.667 258.333 514 243 526 c 0
 214.333 548 200 577.333 200 614 c 0
 200 624.667 201.333 636.333 204 649 c 1
 220 698 l 1
 230 726 252.333 750 287 770 c 0
 319 788 350.667 797 382 797 c 0
 476.667 797 524 756 524 674 c 0
 524 655.333 521.667 634.667 517 612 c 2
 410 109 l 1
 641 109 l 2
 682.333 109 709.333 126.667 722 162 c 1
 731 195 l 1
 745 258 l 1
 729.667 255.333 714.667 254 700 254 c 0
 650 254 606.333 266 569 290 c 0
 526.333 318 505 355.667 505 403 c 0
 505 415 506.667 427.333 510 440 c 0
 518.667 481.333 542.667 515.667 582 543 c 0
 604 557.667 630.333 565 661 565 c 0
 688.333 565 709.667 559.667 725 549 c 1
 754.333 533.667 766.667 498.667 762 444 c 1
 758 422.667 747.333 401.667 730 381 c 1
 717 369 l 1
 742 365 l 1
 768 365 l 1
 859 795 l 1
 1015 795 l 1
 933 410 l 1
 955 420 l 2
 985.667 434 1013.33 460.667 1038 500 c 1
 1054 535 l 1
 1144 469 l 1
402 651 m 0
 403.333 657.667 404 663.667 404 669 c 0
 404 693 389.667 705 361 705 c 0
 325.667 705 304.333 688.333 297 655 c 0
 295.667 648.333 295 642.333 295 637 c 0
 295 612.333 309.667 600 339 600 c 0
 374.333 600 395.333 617 402 651 c 0
651 487 m 0
 619.667 488.333 600.667 472.667 594 440 c 0
 592.667 434.667 592 429.667 592 425 c 0
 592 403.667 605 393 631 393 c 0
 662.333 393 681.333 408.667 688 440 c 0
 688.667 445.333 689 450 689 454 c 0
 689 474.667 676.333 485.667 651 487 c 0
EndSplineSet
EndChar
StartChar: uni0E2A
Encoding: 246 3626
OldEncoding: 3626
Width: 879
Flags: W
HStem: -2 90<305 332> 0 21G<604 762> 781 20G<580 631>
Fore
1013 874 m 1
 996.333 832.667 973.667 799.333 945 774 c 2
 870 709 l 1
 853 696 l 1
 866 674 l 2
 878 654.667 883.333 637 882 621 c 1
 879 567 l 1
 870 510 l 1
 762 0 l 1
 604 0 l 1
 614 57 l 2
 624.667 117.667 617 193.667 591 285 c 0
 556.333 403.667 508 463 446 463 c 0
 422.667 463 403.333 450.667 388 426 c 0
 372 397.333 361.333 369.333 356 342 c 1
 344 285 l 1
 372 287 l 2
 437.333 291.667 476 261.667 488 197 c 1
 490 164 l 1
 487 139 l 1
 481 96.3333 460.167 62.1667 424.5 36.5 c 0
 388.833 10.8333 349 -2 305 -2 c 0
 257.667 -2 221 13 195 43 c 0
 177.667 63 169 97 169 145 c 0
 169 185.667 175.333 236.333 188 297 c 0
 206.667 385 237 447.667 279 485 c 0
 311 513.667 374 543 468 573 c 0
 489.333 579.667 518.333 591.333 555 608 c 0
 574.333 615.333 609.333 632.333 660 659 c 2
 682 672 l 1
 624 690 l 1
 529 694 l 2
 467.667 696.667 412.333 681.667 363 649 c 1
 297 590 l 1
 209 655 l 1
 233 682 l 1
 272.333 718.667 323.667 748.667 387 772 c 1
 476 793 l 1
 580 801 l 1
 631 801 l 2
 690.333 801 735.333 791.333 766 772 c 2
 788 758 l 1
 803 772 l 1
 837 815 l 2
 848.333 829 856 845.333 860 864 c 2
 862 874 l 1
 1013 874 l 1
684 377 m 1
 713 514 l 1
 722 563 l 1
 724.667 580.333 725 591.333 723 596 c 1
 692 580 l 1
 671.333 565.333 652 554.333 634 547 c 2
 578 524 l 1
 595 516 l 1
 611 502.667 623 489 631 475 c 2
 668 412 l 1
 684 377 l 1
354 195 m 0
 320 195 299.333 177 292 141 c 0
 290.667 134.333 290 128.667 290 124 c 0
 290 100 304 88 332 88 c 0
 362 88 383.667 105.667 397 141 c 0
 398.333 147 399 152.667 399 158 c 0
 399 182.667 384 195 354 195 c 0
EndSplineSet
EndChar
StartChar: uni0E2B
Encoding: 247 3627
OldEncoding: 3627
Width: 956
Flags: W
HStem: 0 21G<207 365 686 842>
VStem: 175 100<611 631> 383 119<650 672> 657 109<608 627>
DStem: 314 504 495 612 207 0 429 301 547 434 648 373 467 348 549 258 770 406 923 381 686 0 842 0
Fore
842 0 m 1
 686 0 l 1
 770 406 l 1
 772 419.333 768.667 428.667 760 434 c 1
 739 440 l 1
 728.333 440 719.667 437.333 713 432 c 2
 700 422 l 1
 648 373 l 1
 633.333 355.667 600.333 317.333 549 258 c 2
 467 164 l 2
 425.667 117.333 391.667 62.6667 365 0 c 1
 207 0 l 1
 314 504 l 1
 295 504 l 1
 259 508 233.333 515.333 218 526 c 0
 189.333 546 175 574.667 175 612 c 0
 175 623.333 176.333 635.667 179 649 c 1
 191 688 l 1
 223 760.667 278.333 797 357 797 c 0
 454.333 797 502.667 755.333 502 672 c 0
 502 654 499.667 634 495 612 c 2
 429 301 l 1
 467 348 l 1
 547 434 l 2
 565 452.667 602 482 658 522 c 2
 679 537 l 1
 665 563 l 1
 659.667 577.667 657 593 657 609 c 0
 657 619.667 658 630.333 660 641 c 0
 672 697 702.667 740.667 752 772 c 0
 782.667 791.333 818 801 858 801 c 0
 899.333 801 932.667 789.5 958 766.5 c 0
 983.333 743.5 993.333 710.667 988 668 c 2
 985 645 l 2
 980.333 609 960.667 575 926 543 c 1
 884 516 l 1
 891 512 l 2
 901.667 504 910 492.333 916 477 c 1
 928 432 l 1
 923 381 l 1
 842 0 l 1
381 645 m 0
 382.333 651.667 383 657.333 383 662 c 0
 383 686 369 698 341 698 c 0
 305 698 283.667 681.667 277 649 c 0
 275.667 642.333 275 636.333 275 631 c 0
 275 606.333 289.667 594 319 594 c 0
 353 594 373.667 611 381 645 c 0
839 702 m 0
 821.667 702 805.333 696 790 684 c 1
 781.333 674.667 773.667 660.333 767 641 c 0
 766.333 635.667 766 630.667 766 626 c 0
 766 601.333 782 586.667 814 582 c 1
 848 582 872 601.667 886 641 c 0
 888 648.333 889 655 889 661 c 0
 889 688.333 872.333 702 839 702 c 0
EndSplineSet
MinimumDistance: x39,-1 
EndChar
StartChar: uni0E2C
Encoding: 248 3628
OldEncoding: 3628
Width: 1008
Flags: W
HStem: 0 21G<209 367 729 885> 512 92<305 318> 805 80<801 831>
VStem: 383 121<671 684> 606 99<719 736>
DStem: 318 512 497 621 209 0 419 254 627 387 709 559 729 0 781 254 862 633 1033 696 781 254 885 0
Fore
1198 877 m 1
 1174 842 l 2
 1136.67 788.667 1095.33 744.333 1050 709 c 2
 1033 696 l 1
 885 0 l 1
 729 0 l 1
 627 387 l 1
 367 0 l 1
 209 0 l 1
 318 512 l 1
 279 512 l 2
 243 512 216 526.667 198 556 c 0
 180 585.333 174.667 617.667 182 653 c 1
 192 684 l 1
 218 759.333 274.667 797 362 797 c 0
 456.667 797 504 757.333 504 678 c 0
 504 660.667 501.667 641.667 497 621 c 1
 419 254 l 1
 613 559 l 1
 709 559 l 1
 781 254 l 1
 862 633 l 1
 822 621 l 1
 762 616 l 1
 711 618 l 1
 661 633 l 2
 624.333 643.667 606 672.333 606 719 c 0
 606 754.333 621.333 789 652 823 c 0
 689.333 864.333 748.333 885 829 885 c 2
 870 885 l 1
 888.667 881 920.333 867.333 965 844 c 1
 975 837.333 983.333 827.667 990 815 c 1
 1005 827 l 1
 1041 862 l 1
 1062 893 l 1
 1074 918 l 1
 1198 877 l 1
886 750 m 0
 887.333 754.667 888 758.667 888 762 c 0
 888 790.667 862 805 810 805 c 0
 750 805 715.333 786.667 706 750 c 0
 705.333 744.667 705 740 705 736 c 0
 705 706.667 732 692 786 692 c 0
 839.333 692 872.667 711.333 886 750 c 0
341 709 m 0
 314.333 709 293.333 691 278 655 c 1
 276.667 649 276 643.667 276 639 c 0
 276 615.667 290 604 318 604 c 0
 345.333 604 366.333 621 381 655 c 1
 382.333 661.667 383 667.667 383 673 c 0
 383 697 369 709 341 709 c 0
EndSplineSet
EndChar
StartChar: uni0E2D
Encoding: 249 3629
OldEncoding: 3629
Width: 895
Flags: W
HStem: 0 109<379 568> 688 113<558 616>
DStem: 733 539 889 539 661 201 812 178
Fore
812 178 m 1
 805.333 148.667 795.667 122 783 98 c 0
 760.333 56.6667 719 26.6667 659 8 c 1
 588 0 l 1
 313 0 l 2
 263 0 222.667 15 192 45 c 1
 175.333 65.6667 167 89.6667 167 117 c 0
 167 128.333 168.333 140 171 152 c 2
 217 369 l 2
 242.333 487.667 312.333 547 427 547 c 0
 506.333 547 547 508.667 549 432 c 1
 546 401 l 1
 532.667 335.667 498.333 293.333 443 274 c 0
 414.333 264 393.667 259.333 381 260 c 2
 353 262 l 1
 335 178 l 1
 333 170 332 163 332 157 c 0
 332 125 352 109 392 109 c 2
 560 109 l 2
 611.333 109 641 127.333 649 164 c 0
 652.333 180 656.333 192.333 661 201 c 1
 733 539 l 2
 736.333 555 737.667 569.667 737 583 c 0
 736.333 653 686.667 688 588 688 c 0
 460 688 368 650.333 312 575 c 1
 226 649 l 1
 241 672 l 1
 311 758 428.667 801 594 801 c 0
 743.333 801 838.667 762 880 684 c 0
 898.667 649.333 901.667 601 889 539 c 1
 812 178 l 1
412 457 m 0
 384.667 457 364 439 350 403 c 0
 348.667 397 348 391.667 348 387 c 0
 348 363.667 362 352 390 352 c 0
 426 352 447.667 369 455 403 c 0
 456.333 409 457 414.667 457 420 c 0
 457 444.667 442 457 412 457 c 0
EndSplineSet
MinimumDistance: x29,-1 
EndChar
StartChar: uni0E2E
Encoding: 250 3630
OldEncoding: 3630
Width: 877
Flags: W
HStem: 0 109<357 563> 721 84<532 582>
VStem: 149 164<117 153>
DStem: 724 575 876 535 647 201 800 178
Fore
979 799 m 1
 966 774 l 1
 956 756.667 944 740.333 930 725 c 2
 888 680 l 1
 866 664 l 1
 873 651 l 2
 881 637 884.667 623.333 884 610 c 1
 881 567 l 1
 876 535 l 1
 800 178 l 2
 780.667 86.6667 729 30 645 8 c 1
 573 0 l 1
 295 0 l 2
 244.333 0 204 15 174 45 c 1
 157.333 65.6667 149 89.6667 149 117 c 0
 149 128.333 150.333 140 153 152 c 2
 188 317 l 2
 213.333 436.333 284 496 400 496 c 0
 434 496 462.833 485.333 486.5 464 c 0
 510.167 442.667 522.333 415 523 381 c 1
 520 350 l 1
 506.667 287.333 470.667 245 412 223 c 1
 351 209 l 1
 324 211 l 1
 315 170 l 2
 313.667 164 313 158.333 313 153 c 0
 313 123.667 333.667 109 375 109 c 2
 545 109 l 2
 597 109 627 127.333 635 164 c 0
 638.333 180 642.333 192.333 647 201 c 1
 724 575 l 1
 724 581.667 723.667 586 723 588 c 2
 720 592 l 1
 621 569 l 2
 586.333 561 542.333 557 489 557 c 0
 431.667 557 380.667 564 336 578 c 0
 278.667 596 250 622.333 250 657 c 0
 250 711.667 297 752.667 391 780 c 0
 447.667 796.667 507.333 805 570 805 c 0
 641.333 805 699.667 796 745 778 c 1
 761.667 774 778 764.667 794 750 c 1
 803 754 l 1
 824 774 l 1
 848 817 l 1
 857 842 l 1
 979 799 l 1
704 684 m 1
 655 709 l 1
 627.667 717 596.333 721 561 721 c 0
 463.667 721 410 706 400 676 c 1
 395.333 655.333 410.667 644.333 446 643 c 2
 548 639 l 2
 622 636.333 674 651.333 704 684 c 1
381 403 m 0
 347 403 326.333 386 319 352 c 0
 317.667 346 317 340.667 317 336 c 0
 317 312.667 331 301 359 301 c 0
 393 301 413.667 318 421 352 c 0
 422.333 358 423 363.333 423 368 c 0
 423 391.333 409 403 381 403 c 0
EndSplineSet
MinimumDistance: x8,-1 
EndChar
StartChar: uni0E2F
Encoding: 251 3631
OldEncoding: 3631
Width: 834
Flags: W
HStem: 438 99<483 507.5> 567 70<406 425> 725 72<431 445>
DStem: 701 522 888 672 636 215 796 240
Fore
796 240 m 2
 783.333 181.333 771.333 141 760 119 c 0
 722 45 654 4 556 -4 c 2
 506 -8 l 1
 460 102 l 1
 511 104 l 1
 551.667 111.333 583.333 125.667 606 147 c 0
 618.667 158.333 628.667 181 636 215 c 2
 701 522 l 1
 642.333 466 569.333 438 482 438 c 0
 332 438 259 499 263 621 c 1
 267 647 l 1
 272.333 689.667 292.667 725.333 328 754 c 0
 363.333 782.667 402.333 797 445 797 c 0
 519.667 797 557 769.667 557 715 c 0
 557 683.667 551.667 661.667 541 649 c 1
 519 594.333 474 567 406 567 c 1
 423 553 l 1
 439 545 459 539.667 483 537 c 1
 501.667 537 515.667 538.333 525 541 c 0
 567.667 549 603.333 563.333 632 584 c 0
 685.333 622.667 725.333 682 752 762 c 2
 763 795 l 1
 786.333 795 809 793.667 831 791 c 0
 853 788.333 871.333 774.667 886 750 c 0
 890 744 892.333 732.333 893 715 c 1
 888 672 l 1
 796 240 l 2
433 725 m 0
 404.333 725 387 710 381 680 c 0
 379.667 674.667 379 670 379 666 c 0
 379 646.667 390.667 637 414 637 c 0
 442.667 637 460.333 651.333 467 680 c 0
 467.667 685.333 468 690.333 468 695 c 0
 468 715 456.333 725 433 725 c 0
EndSplineSet
EndChar
StartChar: uni0E30
Encoding: 252 3632
OldEncoding: 3632
Width: 711
Flags: W
HStem: 18 103<255 297> 455 104<348 386>
VStem: 202 92<587 604> 333 84<197 211>
Fore
488 578 m 1
 528 588 l 2
 603.333 606.667 678.667 655 754 733 c 1
 796 784 l 1
 759 610 l 1
 711 569 l 1
 663 534.333 618.333 510.667 577 498 c 2
 474 467 l 2
 448 459 418.667 455 386 455 c 0
 308 455 252.667 477.333 220 522 c 1
 208 542.667 202 564.667 202 588 c 0
 202 598.667 203.333 609.667 206 621 c 0
 215.333 665 237.667 700.5 273 727.5 c 0
 308.333 754.5 348.667 768 394 768 c 0
 456.667 768 494.667 744 508 696 c 0
 513.333 676 514 655.667 510 635 c 0
 506 615 501.667 601.333 497 594 c 2
 488 578 l 1
395 141 m 1
 435 152 l 2
 517.667 174.667 593 222.333 661 295 c 1
 703 348 l 1
 666 172 l 1
 618 131 l 2
 580 98.3333 537.333 75 490 61 c 2
 383 29 l 2
 358.333 21.6667 329.667 18 297 18 c 0
 216.333 18 160.333 40.6667 129 86 c 0
 110.333 113.333 105 146 113 184 c 0
 122.333 228 144.333 263.333 179 290 c 0
 213.667 316.667 253.667 330 299 330 c 0
 330.333 330 356 322.333 376 307 c 1
 404 291 418 262.667 418 222 c 0
 418 214 417.667 205.667 417 197 c 1
 401 150 l 1
 395 141 l 1
255 121 m 0
 273 121 289.333 127 304 139 c 1
 314.667 150.333 323.333 165.333 330 184 c 0
 332 192 333 199.333 333 206 c 0
 333 235.333 315.333 250 280 250 c 0
 244 250 218.667 228.667 204 186 c 0
 202 178.667 201 171.667 201 165 c 0
 201 135.667 219 121 255 121 c 0
348 559 m 0
 383.333 559 408.333 580.333 423 623 c 0
 425 631 426 638 426 644 c 0
 426 673.333 408.333 688 373 688 c 0
 337 688 311.667 667 297 625 c 0
 295 617 294 610 294 604 c 0
 294 574 312 559 348 559 c 0
EndSplineSet
MinimumDistance: x32,-1 
EndChar
StartChar: uni0E31
Encoding: 253 3633
OldEncoding: 3633
Width: 0
Flags: W
VStem: -381 85<1059 1084>
Fore
270 1051 m 1
 212 1002.33 141.333 964 58 936 c 0
 29.3333 926 1.33333 920 -26 918 c 2
 -109 911 l 2
 -147.667 907.667 -182.667 910.667 -214 920 c 2
 -297 944 l 1
 -353 967.333 -381 1005.67 -381 1059 c 0
 -381 1071 -379.667 1084 -377 1098 c 0
 -365 1153.33 -335 1194.33 -287 1221 c 0
 -261.667 1235.67 -233 1243 -201 1243 c 0
 -121.667 1243 -81 1205.33 -79 1130 c 1
 -82 1106 l 2
 -84 1088.67 -95 1066.67 -115 1040 c 1
 -138 1016 l 1
 -95 1014 l 1
 -10 1020 l 2
 8.66667 1021.33 39.3333 1031.67 82 1051 c 0
 152.667 1083 207.333 1119 246 1159 c 2
 307 1221 l 1
 270 1051 l 1
-171 1106 m 0
 -169.667 1113.33 -169 1120 -169 1126 c 0
 -169 1153.33 -185.667 1167 -219 1167 c 0
 -259.667 1167 -284.333 1146 -293 1104 c 0
 -295 1096.67 -296 1090 -296 1084 c 0
 -296 1056 -279.333 1042 -246 1042 c 0
 -205.333 1042 -180.333 1063.33 -171 1106 c 0
EndSplineSet
MinimumDistance: x5,-1 
EndChar
StartChar: uni0E32
Encoding: 254 3634
OldEncoding: 3634
Width: 659
Flags: W
HStem: 0 21G<420 578> 678 121<422 465>
VStem: 532 163<560 596>
DStem: 522 481 683 496 420 0 578 0
Fore
263 600 m 1
 154 639 l 1
 173.333 676.333 192 703 210 719 c 0
 268.667 772.333 353.667 799 465 799 c 0
 619.667 799 696.333 731.333 695 596 c 0
 695 566 691 532.667 683 496 c 1
 578 0 l 1
 420 0 l 1
 522 481 l 1
 528.667 511 532 537.667 532 561 c 0
 532 639 495.667 678 423 678 c 0
 371 678 328.667 665 296 639 c 0
 286 631 275 618 263 600 c 1
EndSplineSet
EndChar
StartChar: uni0E33
Encoding: 255 3635
OldEncoding: 3635
Width: 659
Flags: W
HStem: 0 21G<414 571> 678 121<416 459> 909 88<-33 -13>
VStem: -171 90<1035 1049> 526 162<560 597>
DStem: 516 481 676 496 414 0 571 0
Fore
37 1243 m 0
 77.6667 1243 110.667 1231.83 136 1209.5 c 0
 161.333 1187.17 174 1156.33 174 1117 c 0
 174 1103.67 172.333 1089.67 169 1075 c 0
 159 1025.67 135.167 985.667 97.5 955 c 0
 59.8333 924.333 16 909 -34 909 c 0
 -73.3333 909 -106 920.5 -132 943.5 c 0
 -158 966.5 -171 997.333 -171 1036 c 0
 -171 1048 -169.667 1061 -167 1075 c 0
 -156.333 1124.33 -132.167 1164.67 -94.5 1196 c 0
 -56.8333 1227.33 -13 1243 37 1243 c 0
-15 997 m 0
 34.3333 997 65.3333 1022.33 78 1073 c 0
 80.6667 1083 82 1092 82 1100 c 0
 82 1134 60.6667 1151 18 1151 c 0
 -32 1151 -63.6667 1125 -77 1073 c 0
 -79.6667 1063 -81 1054.33 -81 1047 c 0
 -81 1013.67 -59 997 -15 997 c 0
257 600 m 1
 148 639 l 1
 166 675 184.667 701.667 204 719 c 0
 263.333 772.333 348.333 799 459 799 c 0
 612.333 799 688.667 731.667 688 597 c 0
 688 567 684 533.333 676 496 c 2
 571 0 l 1
 414 0 l 1
 516 481 l 1
 522.667 511 526 537.667 526 561 c 0
 526 639 489.333 678 416 678 c 0
 364.667 678 322.667 665 290 639 c 0
 280 631 269 618 257 600 c 1
EndSplineSet
EndChar
StartChar: uni0E34
Encoding: 256 3636
OldEncoding: 3636
Width: 0
Flags: W
HStem: 958 80<-267 -217> 1133 88<-203 -174>
Fore
-176 1221 m 0
 -66 1221 10.6667 1169 54 1065 c 0
 76.6667 1012.33 88 962 88 914 c 0
 88 892.667 85.6667 872 81 852 c 1
 54.3333 876 29.3333 893.667 6 905 c 0
 -66 940.333 -151.667 958 -251 958 c 0
 -376.333 958 -482.667 942.333 -570 911 c 1
 -551.333 1001 -504.333 1075.17 -429 1133.5 c 0
 -353.667 1191.83 -269.333 1221 -176 1221 c 0
-195 1133 m 0
 -259.667 1133 -313 1115 -355 1079 c 0
 -365.667 1069.67 -380 1051.33 -398 1024 c 1
 -371 1028 l 2
 -326.333 1034.67 -277 1038 -223 1038 c 0
 -164.333 1038 -118.667 1032 -86 1020 c 2
 -30 999 l 1
 -50 1088.33 -105 1133 -195 1133 c 0
EndSplineSet
EndChar
StartChar: uni0E35
Encoding: 257 3637
OldEncoding: 3637
Width: 0
Flags: W
HStem: 936 80<-275 -220>
Fore
-573 889 m 1
 -557.667 961.667 -522.167 1025.5 -466.5 1080.5 c 0
 -410.833 1135.5 -346.333 1171.33 -273 1188 c 1
 -187 1198 l 1
 -124.333 1198 -71 1183 -27 1153 c 1
 -6 1253 l 1
 147 1253 l 1
 81 942 l 1
 83 891 l 1
 78 829 l 1
 50 854.333 25.3333 872.333 4 883 c 0
 -67.3333 918.333 -153.333 936 -254 936 c 0
 -379.333 936 -485.667 920.333 -573 889 c 1
-198 1110 m 0
 -262.667 1110 -315.667 1092.33 -357 1057 c 0
 -368.333 1047.67 -383 1029 -401 1001 c 1
 -374 1006 l 2
 -338 1012.67 -288.667 1016 -226 1016 c 0
 -170.667 1016 -125 1009.67 -89 997 c 2
 -32 977 l 1
 -52.6667 1065.67 -108 1110 -198 1110 c 0
EndSplineSet
EndChar
StartChar: uni0E36
Encoding: 258 3638
OldEncoding: 3638
Width: 0
Flags: W
HStem: 934 80<-272 -222> 1108 88<-208 -186> 1212 70<48 67>
VStem: 107 71<1167 1187>
Fore
-575 887 m 1
 -564.333 939.667 -540 990.333 -502 1039 c 0
 -464 1087.67 -420.333 1125 -371 1151 c 0
 -315.667 1181 -254.667 1196 -188 1196 c 0
 -147.333 1196 -115.667 1191.33 -93 1182 c 1
 -86 1196 l 1
 -64 1228.67 -31.3333 1253.33 12 1270 c 0
 32.6667 1278 51 1282 67 1282 c 0
 141 1282 178 1250.33 178 1187 c 0
 178 1178.33 176.667 1169 174 1159 c 1
 155 1106 l 2
 147.667 1086.67 136.333 1070.33 121 1057 c 1
 57 1022 l 1
 70 981 l 1
 79 940 l 1
 84 907 l 1
 74 848 l 1
 47.3333 867.333 23 881.667 1 891 c 0
 -66.3333 919.667 -152 934 -256 934 c 0
 -381.333 934 -487.667 918.333 -575 887 c 1
-200 1108 m 0
 -264.667 1108 -318 1090.33 -360 1055 c 0
 -370.667 1045.67 -385.333 1027 -404 999 c 1
 -377 1004 l 2
 -340.333 1010.67 -290.667 1014 -228 1014 c 0
 -172.667 1014 -127.333 1007.67 -92 995 c 2
 -35 975 l 1
 -55 1063.67 -110 1108 -200 1108 c 0
30 1087 m 0
 66 1087 91 1107 105 1147 c 1
 106.333 1154.33 107 1161 107 1167 c 0
 107 1197 87.6667 1212 49 1212 c 0
 13.6667 1212 -8.33333 1191.67 -17 1151 c 1
 -18 1118 l 1
 -12 1097.33 4 1087 30 1087 c 0
EndSplineSet
EndChar
StartChar: uni0E37
Encoding: 259 3639
OldEncoding: 3639
Width: 0
Flags: W
HStem: 950 80<-276 -222>
DStem: 25 1270 158 1270 -2 1141 82 913
Fore
-575 903 m 1
 -548 975 l 1
 -488 1099 -396.667 1175.33 -274 1204 c 1
 -188 1212 l 1
 -176 1270 l 1
 -53 1270 l 1
 -70 1190 l 1
 -38 1169 l 1
 -2 1141 l 1
 25 1270 l 1
 158 1270 l 1
 82 913 l 1
 77 844 l 1
 49 868.667 24.3333 886.333 3 897 c 0
 -68.3333 932.333 -154 950 -254 950 c 0
 -380.667 950 -487.667 934.333 -575 903 c 1
-201 1124 m 0
 -262.333 1124 -314.333 1106.33 -357 1071 c 0
 -368.333 1061.67 -383.333 1043.33 -402 1016 c 1
 -374 1020 l 2
 -328 1026.67 -279 1030 -227 1030 c 0
 -168.333 1030 -122.667 1024 -90 1012 c 2
 -32 991 l 1
 -52.6667 1079.67 -109 1124 -201 1124 c 0
EndSplineSet
EndChar
StartChar: uni0E38
Encoding: 260 3640
OldEncoding: 3640
Width: 0
Flags: W
VStem: -412 79<-176 -158>
DStem: -313 -260 -157 -190 -346 -412 -205 -412
Fore
-205 -412 m 1
 -346 -412 l 1
 -313 -260 l 1
 -321.667 -262.667 -329.667 -264 -337 -264 c 0
 -344.333 -264 -350 -262.667 -354 -260 c 2
 -381 -242 l 1
 -401.667 -224 -412 -202 -412 -176 c 0
 -412 -167.333 -411 -158.667 -409 -150 c 0
 -395 -84 -343.333 -46.3333 -254 -37 c 1
 -212 -43 l 1
 -171.333 -57.6667 -151 -89.6667 -151 -139 c 0
 -151 -154.333 -153 -171.333 -157 -190 c 2
 -205 -412 l 1
-257 -135 m 0
 -257 -119 -268 -111 -290 -111 c 0
 -313.333 -111 -327.333 -122.333 -332 -145 c 0
 -332.667 -149.667 -333 -154 -333 -158 c 0
 -333 -174 -324.333 -182 -307 -182 c 0
 -273.667 -182 -257 -166.333 -257 -135 c 0
EndSplineSet
MinimumDistance: x11,-1 
EndChar
StartChar: uni0E39
Encoding: 261 3641
OldEncoding: 3641
Width: 0
Flags: W
DStem: -271 -41 -115 -41 -316 -254 -178 -313
Fore
-377 -303 m 1
 -361 -301 l 1
 -355 -299 l 1
 -332 -283 l 1
 -316 -254 l 1
 -271 -41 l 1
 -115 -41 l 1
 -178 -313 l 1
 -185.333 -331 -196.333 -345.333 -211 -356 c 2
 -250 -385 l 1
 -257.333 -389 -269.667 -392.333 -287 -395 c 1
 -561 -395 l 1
 -539 -293 l 1
 -552.333 -294.333 -561.667 -295 -567 -295 c 0
 -625.667 -295 -655 -267.667 -655 -213 c 0
 -655 -199.667 -653.333 -184.667 -650 -168 c 0
 -641.333 -128 -621.167 -95.8333 -589.5 -71.5 c 0
 -557.833 -47.1667 -521.333 -35 -480 -35 c 0
 -411.333 -35 -377 -69.3333 -377 -138 c 0
 -377 -156 -379.333 -176.333 -384 -199 c 2
 -406 -301 l 1
 -377 -303 l 1
-533 -207 m 0
 -511.667 -207 -495.333 -192.667 -484 -164 c 1
 -476.667 -130 -488 -113 -518 -113 c 0
 -539.333 -113 -556.333 -128 -569 -158 c 1
 -575.667 -190.667 -563.667 -207 -533 -207 c 0
EndSplineSet
EndChar
StartChar: uni0E3A
Encoding: 262 3642
OldEncoding: 3642
Width: 0
Flags: W
Fore
-252 -195 m 0
 -188 -195 -156 -221.667 -156 -275 c 0
 -156 -285.667 -157.333 -297.667 -160 -311 c 0
 -176.667 -389 -224 -428 -302 -428 c 0
 -365.333 -428 -397 -401.667 -397 -349 c 0
 -397 -337.667 -395.333 -325 -392 -311 c 0
 -385.333 -278.333 -368.667 -250.833 -342 -228.5 c 0
 -315.333 -206.167 -285.333 -195 -252 -195 c 0
EndSplineSet
EndChar
StartChar: uni0E3F
Encoding: 263 3647
OldEncoding: 3647
Width: 864
Flags: W
HStem: -16 20G<112 366> 920 20G<311 565>
VStem: 695 166<299 320>
DStem: 311 940 444 817 112 4 386 547 311 940 361 426 112 4 298 133 366 4 495 4 331 -162 460 -162 456 426 584 424 393 133 523 135 539 817 668 817 481 547 611 549 597 1092 726 1092 565 940 694 940
Fore
481 547 m 1
 539 817 l 1
 444 817 l 1
 386 547 l 1
 481 547 l 1
393 133 m 1
 456 426 l 1
 361 426 l 1
 298 133 l 1
 393 133 l 1
584 424 m 1
 523 135 l 1
 614.333 135 670.667 185 692 285 c 0
 694 296.333 695 307.333 695 318 c 0
 695 350 684.667 375.667 664 395 c 0
 643.333 414.333 616.667 424 584 424 c 1
668 817 m 1
 611 549 l 1
 646.333 549 678.333 563.667 707 593 c 0
 733.667 619.667 750.667 651.333 758 688 c 0
 768.667 736.667 757.667 774.333 725 801 c 0
 717 807.667 698 813 668 817 c 1
597 1092 m 1
 726 1092 l 1
 694 940 l 1
 782.667 940 842.667 927 874 901 c 0
 914.667 867 935 822 935 766 c 0
 935 747.333 932.667 727.667 928 707 c 0
 905.333 599 834.333 528 715 494 c 1
 710 481 l 1
 810.667 459 861 398 861 298 c 0
 861 280.667 859 262.667 855 244 c 0
 839 170 792.667 106.333 716 53 c 0
 688.667 33.6667 655.667 20 617 12 c 1
 495 4 l 1
 460 -162 l 1
 331 -162 l 1
 366 4 l 1
 112 4 l 1
 311 940 l 1
 565 940 l 1
 597 1092 l 1
EndSplineSet
MinimumDistance: x26,-1 
EndChar
StartChar: uni0E40
Encoding: 264 3648
OldEncoding: 3648
Width: 481
Flags: W
HStem: -2 90<296 318> 775 20G<292 450>
VStem: 153 121<116 127> 380 98<157 175>
DStem: 292 795 450 795 160 174 341 283
Fore
464 111 m 2
 438 35.6667 382.333 -2 297 -2 c 0
 201 -2 153 38 153 118 c 0
 153 134.667 155.333 153.333 160 174 c 1
 292 795 l 1
 450 795 l 1
 341 283 l 1
 375 281 l 2
 443.667 277 478 241.667 478 175 c 0
 478 164.333 476.667 153 474 141 c 1
 464 111 l 2
338 193 m 0
 304 193 283.333 175 276 139 c 0
 274.667 133 274 127.667 274 123 c 0
 274 99.6667 288 88 316 88 c 0
 343.333 88 364 105 378 139 c 1
 379.333 145.667 380 151.667 380 157 c 0
 380 181 366 193 338 193 c 0
EndSplineSet
MinimumDistance: x8,-1 
EndChar
StartChar: uni0E41
Encoding: 265 3649
OldEncoding: 3649
Width: 868
Flags: W
HStem: -2 88<290 317 679 694> 775 20G<286 443 679 837>
VStem: 147 128<111 127> 383 89<154 175> 540 110<111 120> 756 109<153 174>
DStem: 286 795 443 795 154 174 334 283 679 795 837 795 547 174 728 283
Fore
851 111 m 2
 825.667 35.6667 770 -2 684 -2 c 0
 588 -2 540 38.3333 540 119 c 0
 540.667 135.667 543 154 547 174 c 1
 679 795 l 1
 837 795 l 1
 728 283 l 1
 762 281 l 2
 791.333 279 815.833 267.833 835.5 247.5 c 0
 855.167 227.167 865 202.667 865 174 c 0
 865 164.667 864 155 862 145 c 1
 851 111 l 2
458 111 m 2
 432 35.6667 376.333 -2 291 -2 c 0
 195 -2 147 38 147 118 c 0
 147 134.667 149.333 153.333 154 174 c 1
 286 795 l 1
 443 795 l 1
 334 283 l 1
 369 281 l 2
 437.667 277 472 241.667 472 175 c 0
 472 164.333 470.667 153 468 141 c 1
 458 111 l 2
714 190 m 0
 686.667 190 666 172.333 652 137 c 0
 650.667 131 650 125.667 650 121 c 0
 650 97.6667 664 86 692 86 c 0
 719.333 86 740 103 754 137 c 1
 755.333 143.667 756 149.333 756 154 c 0
 756 178 742 190 714 190 c 0
339 190 m 0
 311.667 190 291 172.333 277 137 c 0
 275.667 131 275 125.667 275 121 c 0
 275 97.6667 289 86 317 86 c 0
 352.333 86 373.667 103 381 137 c 0
 382.333 143 383 148.667 383 154 c 0
 383 178 368.333 190 339 190 c 0
EndSplineSet
MinimumDistance: x9,-1 
EndChar
StartChar: uni0E42
Encoding: 266 3650
OldEncoding: 3650
Width: 520
Flags: W
HStem: -2 88<333 357> 1257 107<784.015 817> 1325 94<509 530>
VStem: 192 120<111 127> 418 100<154 185>
DStem: 381 1032 536 1032 199 174 377 283
Fore
930 1303 m 1
 901 1280 l 1
 873 1264.67 840 1257 802 1257 c 0
 770 1257 724.167 1268.33 664.5 1291 c 0
 604.833 1313.67 559.333 1325 528 1325 c 0
 477.333 1325 434.333 1306 399 1268 c 1
 378 1235 l 1
 426 1223 l 2
 452.667 1216.33 478 1202.67 502 1182 c 0
 528 1159.33 543 1135.33 547 1110 c 0
 548.333 1099.33 544.667 1073.33 536 1032 c 2
 377 283 l 1
 406 283 l 2
 418.667 283 436.667 278 460 268 c 0
 498.667 252 518 224.333 518 185 c 0
 518 171.667 515.667 157 511 141 c 2
 503 111 l 1
 472.333 35.6667 416 -2 334 -2 c 0
 239.333 -2 192 37.6667 192 117 c 0
 192 134.333 194.333 153.333 199 174 c 1
 381 1032 l 1
 391 1078 383.333 1108.67 358 1124 c 0
 325.333 1144 292 1155 258 1157 c 2
 194 1161 l 1
 201.333 1195.67 213 1226.33 229 1253 c 0
 269 1319 323.333 1365.67 392 1393 c 0
 435.333 1410.33 477 1419 517 1419 c 0
 539.667 1419 595 1406.67 683 1382 c 0
 725.667 1370 764.667 1364 800 1364 c 0
 830 1364 855.333 1370.67 876 1384 c 1
 906 1411 l 1
 930 1303 l 1
376 190 m 0
 348.667 190 328 172.333 314 137 c 0
 312.667 131 312 125.667 312 121 c 0
 312 97.6667 326 86 354 86 c 0
 381.333 86 402 103 416 137 c 1
 417.333 143.667 418 149.333 418 154 c 0
 418 178 404 190 376 190 c 0
EndSplineSet
EndChar
StartChar: uni0E43
Encoding: 267 3651
OldEncoding: 3651
Width: 604
Flags: W
HStem: -2 88<423 448>
VStem: 280 124<111 127> 510 95<154 175>
DStem: 349 1245 349 1245 317 1241 386 1239 440 895 600 905 287 174 468 283
Fore
591 111 m 2
 565 35.6667 509.333 -2 424 -2 c 0
 328 -2 280 37.6667 280 117 c 0
 280 134.333 282.333 153.333 287 174 c 1
 440 895 l 1
 453.333 955.667 478 1007 514 1049 c 0
 539.333 1077.67 559.333 1113 574 1155 c 0
 586 1189.67 592 1223.33 592 1256 c 0
 592 1306 571 1333.67 529 1339 c 2
 476 1346 l 1
 427.333 1346 386.333 1328.67 353 1294 c 0
 343 1283.33 331 1265.67 317 1241 c 1
 349 1245 l 1
 386 1239 l 2
 434.667 1231 459 1201.33 459 1150 c 0
 459 1136 457 1120 453 1102 c 0
 441.667 1047.33 416.667 1009 378 987 c 0
 354 973.667 330 967 306 967 c 0
 271.333 967 241 980.667 215 1008 c 0
 189 1035.33 177 1066 179 1100 c 1
 189 1167 l 1
 201 1244.33 236 1308.5 294 1359.5 c 0
 352 1410.5 420 1436 498 1436 c 0
 623.333 1436 696.333 1391.67 717 1303 c 0
 724.333 1271.67 724.667 1240 718 1208 c 0
 712 1181.33 704.667 1159 696 1141 c 2
 659 1069 l 1
 623 991 l 1
 600 905 l 1
 468 283 l 1
 502 281 l 2
 570.667 277 605 241.667 605 175 c 0
 605 164.333 603.667 153 601 141 c 1
 591 111 l 2
322 1036 m 1
 354 1036 374.667 1057.33 384 1100 c 0
 386 1111.33 387 1121.67 387 1131 c 0
 387 1162.33 372 1178 342 1178 c 0
 310.667 1178 290.667 1156.67 282 1114 c 0
 280 1104 279 1095 279 1087 c 0
 279 1057 293.333 1040 322 1036 c 1
468 190 m 0
 434 190 413.333 172.333 406 137 c 0
 404.667 131 404 125.667 404 121 c 0
 404 97.6667 418 86 446 86 c 0
 473.333 86 494 103 508 137 c 1
 509.333 143.667 510 149.333 510 154 c 0
 510 178 496 190 468 190 c 0
EndSplineSet
EndChar
StartChar: uni0E44
Encoding: 268 3652
OldEncoding: 3652
Width: 612
Flags: W
HStem: -2 90<413 437>
VStem: 270 123<115 127> 499 99<157 185>
DStem: 444 948 598 946 277 174 457 283
Fore
583 111 m 1
 552.333 35.6667 496 -2 414 -2 c 0
 318 -2 270 37.6667 270 117 c 0
 270 133.667 272.333 152.667 277 174 c 2
 444 948 l 1
 451.333 985.333 464 1017.33 482 1044 c 0
 486.667 1051.33 496 1065.67 510 1087 c 1
 557 1165 l 1
 579 1221 l 1
 579.667 1227 580 1232.33 580 1237 c 0
 580 1252.33 573 1260 559 1260 c 0
 549 1260 537.333 1254.33 524 1243 c 1
 463 1174 l 1
 395 1094 l 2
 373.667 1069.33 352.333 1057 331 1057 c 0
 309.667 1057 293.333 1086.33 282 1145 c 0
 273.333 1191.67 264 1227 254 1251 c 0
 249.333 1262.33 239.667 1268.67 225 1270 c 2
 204 1270 l 1
 273 1438 l 1
 315 1436 l 2
 327.667 1435.33 340 1423 352 1399 c 0
 358 1387.67 363.667 1356.33 369 1305 c 0
 373 1267.67 382 1248.33 396 1247 c 1
 514 1362 l 2
 553.333 1400 592 1419 630 1419 c 1
 657 1415 l 2
 709.667 1407 736 1374 736 1316 c 0
 736 1300 734 1282.67 730 1264 c 0
 724 1236.67 706.333 1193.67 677 1135 c 2
 632 1044 l 2
 616.667 1013.33 605.333 980.667 598 946 c 2
 457 283 l 1
 492 281 l 2
 505.333 280.333 521.333 276 540 268 c 0
 578.667 252 598 224.333 598 185 c 0
 598 171.667 595.667 157 591 141 c 2
 583 111 l 1
457 193 m 0
 423 193 402.333 175 395 139 c 0
 393.667 133 393 127.667 393 123 c 0
 393 99.6667 407 88 435 88 c 0
 462.333 88 483 105 497 139 c 1
 498.333 145.667 499 151.667 499 157 c 0
 499 181 485 193 457 193 c 0
EndSplineSet
MinimumDistance: x31,-1 
EndChar
StartChar: uni0E45
Encoding: 269 3653
OldEncoding: 3653
Width: 412
Flags: W
HStem: -256 21G<108 265> 674 121<163 208>
VStem: 273 163<556 595>
DStem: 263 477 424 492 108 -256 265 -256
Fore
4 596 m 1
 -105 635 l 1
 -85.6667 671.667 -66.3333 698.333 -47 715 c 0
 14.3333 768.333 99.3333 795 208 795 c 0
 360 795 436 728.333 436 595 c 0
 436 564.333 432 530 424 492 c 2
 265 -256 l 1
 108 -256 l 1
 263 477 l 1
 269.667 507 273 533.667 273 557 c 0
 273 635 236.333 674 163 674 c 0
 111 674 69 661 37 635 c 0
 27.6667 627 16.6667 614 4 596 c 1
EndSplineSet
EndChar
StartChar: uni0E46
Encoding: 270 3654
OldEncoding: 3654
Width: 903
Flags: W
HStem: 352 84<427 435> 779 20G<762 799>
DStem: 769 575 928 580 647 2 812 35
Fore
812 35 m 2
 800 -22.3333 787.333 -66.6667 774 -98 c 0
 733.333 -194 658.667 -261.667 550 -301 c 1
 496 -315 l 1
 419 -207 l 1
 476 -190 l 2
 518.667 -177.333 550.667 -161 572 -141 c 1
 599.333 -121 620.333 -89.6667 635 -47 c 0
 638.333 -36.3333 642.333 -20 647 2 c 2
 769 575 l 1
 778.333 617.667 778.333 645 769 657 c 2
 746 686 l 1
 734 694 l 1
 600 618 l 1
 504 688 l 1
 484 678 l 2
 469.333 670.667 456.667 657 446 637 c 1
 433 600 l 1
 430 580 l 1
 445 578 l 1
 474 582 l 1
 490.667 582 504.667 578.333 516 571 c 1
 548.667 561.667 565 539.667 565 505 c 0
 565 495 564 484.333 562 473 c 0
 554.667 439.667 539 411.667 515 389 c 0
 489 364.333 459.667 352 427 352 c 1
 404 350 l 1
 348.667 350 311 372.333 291 417 c 0
 273.667 455 270.667 501.667 282 557 c 0
 288 583 296 607.667 306 631 c 0
 348 726.333 420.667 782.333 524 799 c 1
 624 727 l 1
 762 799 l 1
 799 799 l 1
 825.667 791.667 842.333 786.667 849 784 c 0
 863 778 876.667 768.667 890 756 c 0
 919.333 728 935.667 695 939 657 c 0
 939.667 643.667 936 618 928 580 c 2
 812 35 l 2
447 514 m 0
 426.333 514 410.667 501 400 475 c 1
 399.333 470.333 399 466.333 399 463 c 0
 399 445 409.667 436 431 436 c 0
 457 436 472.667 449 478 475 c 0
 478.667 479.667 479 483.667 479 487 c 0
 479 505 468.333 514 447 514 c 0
EndSplineSet
EndChar
StartChar: uni0E47
Encoding: 271 3655
OldEncoding: 3655
Width: 0
Flags: W
HStem: 901 84<-47 -27>
VStem: 24 71<1047 1076>
DStem: -176 1352 -176 1352 -231 1350 -75 1348
Fore
277 1460 m 1
 269.667 1423.33 258 1390.67 242 1362 c 0
 206.667 1295.33 154.667 1255.67 86 1243 c 1
 9 1237 l 1
 -72 1243 l 1
 -212 1257 l 1
 -278 1257 -320 1214 -338 1128 c 0
 -344.667 1097.33 -339.667 1075 -323 1061 c 2
 -312 1051 l 1
 -295 1087 l 1
 -278.333 1113.67 -257 1130.33 -231 1137 c 0
 -210.333 1142.33 -184.333 1134 -153 1112 c 1
 -120 1075 l 1
 -106 1100 l 1
 -77.3333 1139.33 -39.3333 1159 8 1159 c 0
 66 1159 95 1131.33 95 1076 c 0
 95 1062 93.3333 1046 90 1028 c 1
 85 1008 l 1
 79 977.333 63.3333 951.833 38 931.5 c 0
 12.6667 911.167 -15.3333 901 -46 901 c 0
 -85.3333 901 -126.333 926.333 -169 977 c 0
 -190.333 1001.67 -208.667 1014 -224 1014 c 0
 -251.333 1014 -273.667 986.667 -291 932 c 1
 -296 909 l 1
 -296 899 l 1
 -396 899 -451.667 939.333 -463 1020 c 0
 -468.333 1058 -467.667 1093.33 -461 1126 c 0
 -437 1236.67 -376 1307.67 -278 1339 c 1
 -231 1350 l 1
 -176 1352 l 1
 -75 1348 l 1
 -6 1343 l 2
 60 1338.33 103 1355.67 123 1395 c 1
 144 1460 l 1
 277 1460 l 1
-9 1079 m 0
 -36.3333 1079 -53.3333 1062.67 -60 1030 c 0
 -61.3333 1024.67 -62 1019.67 -62 1015 c 0
 -62 995 -50.3333 985 -27 985 c 0
 -6.33333 985 10 999.333 22 1028 c 1
 23.3333 1035.33 24 1041.67 24 1047 c 0
 24 1068.33 13 1079 -9 1079 c 0
EndSplineSet
EndChar
StartChar: uni0E48
Encoding: 272 3656
OldEncoding: 3656
Width: 0
Flags: W
DStem: 71 1595 218 1595 14 1325 161 1325
Fore
14 1325 m 1
 71 1595 l 1
 218 1595 l 1
 161 1325 l 1
 14 1325 l 1
EndSplineSet
EndChar
StartChar: uni0E49
Encoding: 273 3657
OldEncoding: 3657
Width: 0
Flags: W
Fore
-150 1364 m 1
 -118 1401 l 1
 -110 1413 l 1
 -158 1413 -186.667 1433.67 -196 1475 c 0
 -200.667 1493 -201.333 1510 -198 1526 c 0
 -190.667 1560 -174.167 1589 -148.5 1613 c 0
 -122.833 1637 -93 1649 -59 1649 c 0
 24.3333 1649 64.6667 1614 62 1544 c 1
 59 1518 l 1
 51.6667 1464.67 24.3333 1423 -23 1393 c 1
 10.3333 1397 51.6667 1409.33 101 1430 c 0
 123.667 1439.33 144.333 1448.67 163 1458 c 1
 221 1501 l 2
 259 1529 293.667 1564 325 1606 c 2
 345 1632 l 1
 307 1454 l 1
 275 1430 l 2
 225.667 1393.33 164 1363.67 90 1341 c 1
 -37 1315 l 1
 -171 1307 l 1
 -226 1309 l 1
 -202 1323 l 2
 -189.333 1330.33 -172 1344 -150 1364 c 1
-85 1477 m 1
 -51 1477 -30.3333 1494 -23 1528 c 0
 -21.6667 1534 -21 1539.67 -21 1545 c 0
 -21 1569 -36.3333 1581.67 -67 1583 c 0
 -101 1584.33 -121.667 1567.33 -129 1532 c 0
 -133 1512.67 -128.667 1497.67 -116 1487 c 0
 -111.333 1483 -101 1479.67 -85 1477 c 1
EndSplineSet
EndChar
StartChar: uni0E4A
Encoding: 274 3658
OldEncoding: 3658
Width: 0
Flags: W
HStem: 1321 47<-142 -124>
VStem: -77 53<1424 1442>
Fore
-137 1507 m 2
 -140 1493 l 1
 -126 1497 l 1
 -95 1501 l 1
 -47.6667 1501 -24 1481.33 -24 1442 c 0
 -24 1433.33 -25.3333 1423.67 -28 1413 c 0
 -40.6667 1351.67 -77.6667 1321 -139 1321 c 0
 -187 1321 -217.667 1343.67 -231 1389 c 1
 -236 1427 l 1
 -229 1479 l 1
 -223.667 1514.33 -207 1552.33 -179 1593 c 0
 -154.333 1629 -130.667 1648.33 -108 1651 c 2
 -62 1657 l 1
 -34.6667 1657 -9.33333 1646.67 14 1626 c 1
 26 1612 l 1
 60 1634 l 2
 86.6667 1650.67 113.333 1659 140 1659 c 0
 200.667 1659 231 1630 231 1572 c 0
 231 1563.33 230 1554 228 1544 c 1
 228 1532 l 1
 226 1522 l 2
 220 1494 208.667 1468 192 1444 c 2
 180 1427 l 1
 194 1431.67 209.667 1441.33 227 1456 c 1
 259 1487 l 2
 269.667 1497 290.667 1528.33 322 1581 c 1
 343 1651 l 1
 439 1595 l 1
 415 1548 l 2
 379 1477.33 321.667 1422.67 243 1384 c 0
 212.333 1369.33 169 1355 113 1341 c 0
 69 1330.33 33.3333 1325 6 1325 c 1
 24.6667 1329 45.3333 1345 68 1373 c 0
 88 1397.67 102 1420.67 110 1442 c 1
 127 1493 l 1
 129.667 1505.67 131 1516.67 131 1526 c 0
 131 1557.33 116.667 1573 88 1573 c 0
 74.6667 1573 54 1565.33 26 1550 c 2
 5 1538 l 1
 -15 1556 l 1
 -33 1568.67 -51.6667 1575 -71 1575 c 0
 -105 1575 -127 1552.33 -137 1507 c 2
-133 1368 m 0
 -116.333 1368 -103.667 1373.33 -95 1384 c 1
 -79 1411 l 1
 -77.6667 1416.33 -77 1421 -77 1425 c 0
 -77 1445.67 -89.6667 1456 -115 1456 c 0
 -138.333 1456 -156.333 1441 -169 1411 c 0
 -170.333 1406.33 -171 1402 -171 1398 c 0
 -171 1378 -158.333 1368 -133 1368 c 0
EndSplineSet
MinimumDistance: x4,-1 
EndChar
StartChar: uni0E4B
Encoding: 275 3659
OldEncoding: 3659
Width: 0
Flags: W
HStem: 1421 92<-85 32 203 318>
Fore
78 1638 m 1
 229 1638 l 1
 203 1513 l 1
 338 1513 l 1
 318 1421 l 1
 183 1421 l 1
 161 1315 l 1
 10 1315 l 1
 32 1421 l 1
 -104 1421 l 1
 -84 1513 l 1
 52 1513 l 1
 78 1638 l 1
EndSplineSet
EndChar
StartChar: uni0E4C
Encoding: 276 3660
OldEncoding: 3660
Width: 0
Flags: W
VStem: 172 57<1307 1319>
Fore
210 1438 m 1
 182.667 1438 160.333 1431 143 1417 c 1
 130 1401 l 1
 156 1397 174.667 1392 186 1386 c 0
 214.667 1370 229 1345.33 229 1312 c 0
 229 1302 227.667 1291.33 225 1280 c 0
 219 1250 202 1225.83 174 1207.5 c 0
 146 1189.17 116.333 1180 85 1180 c 0
 17 1180 -17 1214.33 -17 1283 c 0
 -17 1294.33 -15.6667 1306.33 -13 1319 c 0
 -0.333333 1376.33 32 1422 84 1456 c 0
 105.333 1470 134 1481.67 170 1491 c 0
 229.333 1507 261.333 1516 266 1518 c 0
 296 1532 319 1554.33 335 1585 c 1
 347 1622 l 1
 456 1622 l 1
 437 1577 l 2
 424.333 1545.67 407 1519.67 385 1499 c 1
 345 1469 286.667 1448.67 210 1438 c 1
103 1235 m 1
 140.333 1235 162.667 1253.33 170 1290 c 0
 171.333 1296.67 172 1303 172 1309 c 0
 172 1335 157 1348 127 1348 c 0
 93 1348 71 1328.67 61 1290 c 0
 53 1258.67 67 1240.33 103 1235 c 1
EndSplineSet
EndChar
StartChar: uni0E4D
Encoding: 277 3661
OldEncoding: 3661
Width: 0
Flags: W
HStem: 930 88<-65 -46>
VStem: -203 93<1057 1075>
Fore
5 1264 m 0
 45 1264 77.8333 1252.83 103.5 1230.5 c 0
 129.167 1208.17 142 1177.33 142 1138 c 0
 142 1124.67 140.333 1110.67 137 1096 c 0
 126.333 1046.67 102.333 1006.67 65 976 c 0
 27.6667 945.333 -16 930 -66 930 c 0
 -106 930 -138.833 941.5 -164.5 964.5 c 0
 -190.167 987.5 -203 1018.33 -203 1057 c 0
 -203 1069 -201.667 1082 -199 1096 c 0
 -188.333 1145.33 -164.167 1185.67 -126.5 1217 c 0
 -88.8333 1248.33 -45 1264 5 1264 c 0
-48 1018 m 0
 2.66667 1018 34.3333 1043.33 47 1094 c 0
 49 1103.33 50 1112 50 1120 c 0
 50 1154 28.3333 1171 -15 1171 c 0
 -60.3333 1171 -91 1145.33 -107 1094 c 0
 -109 1085.33 -110 1077.33 -110 1070 c 0
 -110 1035.33 -89.3333 1018 -48 1018 c 0
EndSplineSet
MinimumDistance: x15,-1 
EndChar
StartChar: uni0E4E
Encoding: 278 3662
OldEncoding: 3662
Width: 0
Flags: W
Fore
-18 1237 m 1
 -32.6667 1251.67 -40 1269.67 -40 1291 c 0
 -40 1297.67 -39.3333 1305 -38 1313 c 1
 -20 1358.33 18.6667 1392.33 78 1415 c 0
 126 1433 176.333 1442 229 1442 c 0
 270.333 1442 312.333 1431.67 355 1411 c 1
 262 1350 l 1
 231 1354 l 1
 203 1360 l 1
 141.667 1360 106.667 1339.33 98 1298 c 0
 96 1287.33 105 1277.67 125 1269 c 0
 142.333 1261 157 1257 169 1257 c 2
 197 1257 l 1
 141 1174 l 1
 129 1174 l 2
 28.3333 1174 -28 1146 -40 1090 c 0
 -46 1064 -32.6667 1051 0 1051 c 0
 17.3333 1051 32.3333 1053 45 1057 c 1
 86 1085 l 1
 148 1024 l 1
 87.3333 980 18 958 -60 958 c 0
 -151.333 958 -197.333 987.667 -198 1047 c 0
 -198 1057 -197 1067.67 -195 1079 c 0
 -177.667 1159.67 -118.667 1212.33 -18 1237 c 1
EndSplineSet
EndChar
StartChar: uni0E4F
Encoding: 279 3663
OldEncoding: 3663
Width: 797
Flags: W
HStem: 0 45<387 426> 145 48<424 442> 481 49<488 510> 631 45<508 556>
VStem: 121 46<250 265> 269 55<287 306> 620 47<367 387> 768 47<399 433>
Fore
539 676 m 0
 639.667 676 714.333 645 763 583 c 0
 797.667 539 815 486 815 424 c 0
 815 397.333 811.667 368.667 805 338 c 0
 783.667 238 735.5 156.667 660.5 94 c 0
 585.5 31.3333 497 -1.73472e-18 395 0 c 0
 295 0 220.667 31.3333 172 94 c 0
 138 137.333 121 190 121 252 c 0
 121 278.667 124.333 307.333 131 338 c 0
 151.667 436.667 199.833 517.667 275.5 581 c 0
 351.167 644.333 439 676 539 676 c 0
405 45 m 0
 493 45 569.5 72 634.5 126 c 0
 699.5 180 741.333 250.667 760 338 c 0
 765.333 364 768 388.667 768 412 c 0
 768 466 753 512 723 550 c 0
 680.333 604 615.667 631 529 631 c 0
 443 631 367.167 603.333 301.5 548 c 0
 235.833 492.667 194 422.667 176 338 c 0
 170.667 312.667 167.667 288.333 167 265 c 0
 167 211 182 165 212 127 c 0
 254.667 72.3333 319 45 405 45 c 0
508 530 m 0
 451.333 530 401.333 512 358 476 c 0
 314.667 440 287 394 275 338 c 0
 271 320.667 269 304.333 269 289 c 0
 269 243.667 284 208 314 182 c 0
 342 157.333 379.333 145 426 145 c 0
 484.667 145 535.667 162.833 579 198.5 c 0
 622.333 234.167 650 280.667 662 338 c 0
 665.333 355.333 667 371.667 667 387 c 0
 667 432.333 651.667 468 621 494 c 0
 592.333 518 554.667 530 508 530 c 0
501 481 m 0
 535.667 481 564.167 470.833 586.5 450.5 c 0
 608.833 430.167 620 403.333 620 370 c 0
 620 359.333 618.667 348 616 336 c 0
 607.333 293.333 586.667 258.833 554 232.5 c 0
 521.333 206.167 483.333 193 440 193 c 0
 406.667 193 379 203.333 357 224 c 0
 335 244.667 324 271.333 324 304 c 0
 324 314 325 324.667 327 336 c 0
 336.333 378 357 412.667 389 440 c 0
 421 467.333 458.333 481 501 481 c 0
EndSplineSet
EndChar
StartChar: uni0E50
Encoding: 280 3664
OldEncoding: 3664
Width: 932
Flags: W
HStem: -12 102<448 487> 471 102<549 577>
VStem: 150 151<207 229> 723 154<337 357>
Fore
158 283 m 0
 178.667 379.667 229.333 453.333 310 504 c 0
 382.667 550 471 573 575 573 c 0
 658.333 573 726.667 557.333 780 526 c 0
 844.667 487.333 877 429.333 877 352 c 0
 877 330.667 874.333 307.667 869 283 c 0
 848.333 186.333 797.333 111.667 716 59 c 0
 642.667 11.6667 554 -12 450 -12 c 0
 250 -12 150 61.6667 150 209 c 0
 150 232.333 152.667 257 158 283 c 0
553 471 m 0
 416.333 471 334.667 407.667 308 281 c 0
 303.333 259.667 301 240.333 301 223 c 0
 301 134.333 356.667 90 468 90 c 0
 606.667 90 689.667 153.667 717 281 c 0
 721 301.667 723 321 723 339 c 0
 723 427 666.333 471 553 471 c 0
EndSplineSet
MinimumDistance: x4,-1 
EndChar
StartChar: uni0E51
Encoding: 281 3665
OldEncoding: 3665
Width: 932
Flags: W
HStem: -4 86<370 420> 252 72<533 556> 475 90<576 616>
VStem: 405 76<188 205> 769 153<322 344>
Fore
914 272 m 0
 898.667 201.333 867.333 133.667 820 69 c 0
 770 2.33333 713.333 -45.3333 650 -74 c 1
 578 -8 l 1
 608.667 6.66667 632.333 22.3333 649 39 c 0
 703.667 94.3333 741.667 172 763 272 c 0
 767 292.667 769 311.667 769 329 c 0
 769 426.333 711 475 595 475 c 0
 530.333 475 474 456.667 426 420 c 0
 378 383.333 347.333 334 334 272 c 0
 324 224.667 323.667 184 333 150 c 0
 345.667 104.667 374.667 82 420 82 c 0
 438 82 448.667 83.3333 452 86 c 2
 477 102 l 1
 429 111.333 405 140.667 405 190 c 0
 405 231.333 424 266 462 294 c 0
 490 314 521.333 324 556 324 c 0
 620 324 652 295 652 237 c 0
 652 223 650 207.333 646 190 c 1
 640 168 l 1
 624 115.333 588.333 72.6667 533 40 c 0
 483 10.6667 428.667 -4 370 -4 c 0
 292.667 -4 239 24 209 80 c 0
 192.333 111.333 184 148 184 190 c 0
 184 216 187 244 193 274 c 0
 213.667 371.333 265 445.667 347 497 c 0
 419.667 542.333 508.667 565 614 565 c 0
 699.333 565 768.667 549.333 822 518 c 0
 888.667 479.333 922 420.667 922 342 c 0
 922 320 919.333 296.667 914 272 c 0
533 252 m 0
 517 252 505 247.333 497 238 c 1
 482 209 l 1
 481.333 204.333 481 200 481 196 c 0
 481 177.333 492.333 168 515 168 c 0
 543.667 168 560.667 181.667 566 209 c 0
 567.333 214.333 568 219 568 223 c 0
 568 242.333 556.333 252 533 252 c 0
EndSplineSet
MinimumDistance: x28,-1 
EndChar
